<?xml version='1.0' encoding='utf-8'?>
<mlt LC_NUMERIC="C" producer="main_bin" version="6.26.1" root="E:/emacs/documents/notes/org/flow/highlights/the loyalist">
 <profile frame_rate_num="30" sample_aspect_num="1" display_aspect_den="9" colorspace="709" progressive="1" description="HD 720p 30 fps" display_aspect_num="16" frame_rate_den="1" width="1280" height="720" sample_aspect_den="1"/>
 <producer id="producer0" in="00:00:00.000" out="00:48:23.433">
  <property name="length">87104</property>
  <property name="eof">pause</property>
  <property name="resource">DEBATE! Ancap with LiquidZulu &amp; The Loyalist.mp4</property>
  <property name="audio_index">1</property>
  <property name="video_index">0</property>
  <property name="mute_on_pause">0</property>
  <property name="mlt_service">avformat-novalidate</property>
  <property name="seekable">1</property>
  <property name="aspect_ratio">1</property>
  <property name="kdenlive:clipname"/>
  <property name="kdenlive:folderid">-1</property>
  <property name="kdenlive:id">2</property>
  <property name="kdenlive:file_size">388872559</property>
  <property name="kdenlive:file_hash">05445012ea9d769bafaaf1093ad30a5c</property>
  <property name="global_feed">1</property>
  <property name="kdenlive:audio_max">1</property>
  <property name="meta.media.nb_streams">2</property>
  <property name="meta.media.0.stream.type">video</property>
  <property name="meta.media.0.stream.frame_rate">30</property>
  <property name="meta.media.0.stream.sample_aspect_ratio">0</property>
  <property name="meta.media.0.codec.width">1280</property>
  <property name="meta.media.0.codec.height">720</property>
  <property name="meta.media.0.codec.rotate">0</property>
  <property name="meta.media.0.codec.frame_rate">30</property>
  <property name="meta.media.0.codec.pix_fmt">yuv420p</property>
  <property name="meta.media.0.codec.sample_aspect_ratio">1</property>
  <property name="meta.media.0.codec.colorspace">709</property>
  <property name="meta.media.0.codec.color_trc">1</property>
  <property name="meta.media.0.codec.name">h264</property>
  <property name="meta.media.0.codec.long_name">H.264 / AVC / MPEG-4 AVC / MPEG-4 part 10</property>
  <property name="meta.media.0.codec.bit_rate">940201</property>
  <property name="meta.attr.0.stream.creation_time.markup">2021-09-25T16:40:52.000000Z</property>
  <property name="meta.attr.0.stream.handler_name.markup">ISO Media file produced by Google Inc. Created on: 09/25/2021.</property>
  <property name="meta.attr.0.stream.vendor_id.markup">[0][0][0][0]</property>
  <property name="meta.media.1.stream.type">audio</property>
  <property name="meta.media.1.codec.sample_fmt">fltp</property>
  <property name="meta.media.1.codec.sample_rate">44100</property>
  <property name="meta.media.1.codec.channels">2</property>
  <property name="meta.media.1.codec.name">aac</property>
  <property name="meta.media.1.codec.long_name">AAC (Advanced Audio Coding)</property>
  <property name="meta.media.1.codec.bit_rate">128000</property>
  <property name="meta.attr.1.stream.creation_time.markup">2021-09-25T16:40:52.000000Z</property>
  <property name="meta.attr.1.stream.language.markup">eng</property>
  <property name="meta.attr.1.stream.handler_name.markup">ISO Media file produced by Google Inc. Created on: 09/25/2021.</property>
  <property name="meta.attr.1.stream.vendor_id.markup">[0][0][0][0]</property>
  <property name="meta.attr.major_brand.markup">mp42</property>
  <property name="meta.attr.minor_version.markup">0</property>
  <property name="meta.attr.compatible_brands.markup">isommp42</property>
  <property name="meta.attr.creation_time.markup">2021-09-25T16:40:52.000000Z</property>
  <property name="meta.media.sample_aspect_num">1</property>
  <property name="meta.media.sample_aspect_den">1</property>
  <property name="meta.media.frame_rate_num">30</property>
  <property name="meta.media.frame_rate_den">1</property>
  <property name="meta.media.colorspace">709</property>
  <property name="meta.media.color_trc">1</property>
  <property name="meta.media.width">1280</property>
  <property name="meta.media.height">720</property>
  <property name="meta.media.color_range">mpeg</property>
  <property name="meta.media.top_field_first">0</property>
  <property name="meta.media.progressive">1</property>
 </producer>
 <producer id="producer1" in="00:00:00.000" out="00:00:01.867">
  <property name="length">57</property>
  <property name="eof">pause</property>
  <property name="resource">E:/vids_large/!yt buisiness/.sound fx/Swoosh 1-SoundBible.com-231145780.wav</property>
  <property name="meta.media.nb_streams">1</property>
  <property name="meta.media.0.stream.type">audio</property>
  <property name="meta.media.0.codec.sample_fmt">s16</property>
  <property name="meta.media.0.codec.sample_rate">44100</property>
  <property name="meta.media.0.codec.channels">2</property>
  <property name="meta.media.0.codec.name">pcm_s16le</property>
  <property name="meta.media.0.codec.long_name">PCM signed 16-bit little-endian</property>
  <property name="meta.media.0.codec.bit_rate">1411200</property>
  <property name="seekable">1</property>
  <property name="audio_index">0</property>
  <property name="video_index">-1</property>
  <property name="mute_on_pause">1</property>
  <property name="mlt_service">avformat</property>
  <property name="kdenlive:clipname"/>
  <property name="kdenlive:folderid">-1</property>
  <property name="kdenlive:id">3</property>
  <property name="kdenlive:file_size">332756</property>
  <property name="kdenlive:file_hash">9c7835f66129a3817da47133062e22c4</property>
  <property name="global_feed">1</property>
  <property name="kdenlive:audio_max">3</property>
 </producer>
 <producer id="producer2" in="00:00:00.000" out="00:00:04.967">
  <property name="length">00:00:05.000</property>
  <property name="eof">pause</property>
  <property name="resource">2021-09-26 17_05_41-Hans-Hermann-Hoppe-Democracy-The-God-That-Failed.pdf â€” Firefox Developer Edition.png</property>
  <property name="ttl">25</property>
  <property name="aspect_ratio">1</property>
  <property name="progressive">1</property>
  <property name="seekable">1</property>
  <property name="meta.media.width">1279</property>
  <property name="meta.media.height">995</property>
  <property name="mlt_service">qimage</property>
  <property name="kdenlive:clipname"/>
  <property name="kdenlive:duration">00:00:05.000</property>
  <property name="kdenlive:folderid">-1</property>
  <property name="kdenlive:id">4</property>
  <property name="kdenlive:file_size">382234</property>
  <property name="kdenlive:file_hash">dac6143d4516095d77b1d67cae81a856</property>
 </producer>
 <producer id="producer3" in="00:00:00.000" out="00:48:23.433">
  <property name="length">87104</property>
  <property name="eof">pause</property>
  <property name="resource">DEBATE! Ancap with LiquidZulu &amp; The Loyalist.mp4</property>
  <property name="audio_index">1</property>
  <property name="video_index">0</property>
  <property name="mute_on_pause">0</property>
  <property name="mlt_service">avformat-novalidate</property>
  <property name="meta.media.nb_streams">2</property>
  <property name="meta.media.0.stream.type">video</property>
  <property name="meta.media.0.stream.frame_rate">30</property>
  <property name="meta.media.0.stream.sample_aspect_ratio">0</property>
  <property name="meta.media.0.codec.width">1280</property>
  <property name="meta.media.0.codec.height">720</property>
  <property name="meta.media.0.codec.rotate">0</property>
  <property name="meta.media.0.codec.frame_rate">30</property>
  <property name="meta.media.0.codec.pix_fmt">yuv420p</property>
  <property name="meta.media.0.codec.sample_aspect_ratio">1</property>
  <property name="meta.media.0.codec.colorspace">709</property>
  <property name="meta.media.0.codec.color_trc">1</property>
  <property name="meta.media.0.codec.name">h264</property>
  <property name="meta.media.0.codec.long_name">H.264 / AVC / MPEG-4 AVC / MPEG-4 part 10</property>
  <property name="meta.media.0.codec.bit_rate">940201</property>
  <property name="meta.attr.0.stream.creation_time.markup">2021-09-25T16:40:52.000000Z</property>
  <property name="meta.attr.0.stream.handler_name.markup">ISO Media file produced by Google Inc. Created on: 09/25/2021.</property>
  <property name="meta.attr.0.stream.vendor_id.markup">[0][0][0][0]</property>
  <property name="meta.media.1.stream.type">audio</property>
  <property name="meta.media.1.codec.sample_fmt">fltp</property>
  <property name="meta.media.1.codec.sample_rate">44100</property>
  <property name="meta.media.1.codec.channels">2</property>
  <property name="meta.media.1.codec.name">aac</property>
  <property name="meta.media.1.codec.long_name">AAC (Advanced Audio Coding)</property>
  <property name="meta.media.1.codec.bit_rate">128000</property>
  <property name="meta.attr.1.stream.creation_time.markup">2021-09-25T16:40:52.000000Z</property>
  <property name="meta.attr.1.stream.language.markup">eng</property>
  <property name="meta.attr.1.stream.handler_name.markup">ISO Media file produced by Google Inc. Created on: 09/25/2021.</property>
  <property name="meta.attr.1.stream.vendor_id.markup">[0][0][0][0]</property>
  <property name="meta.attr.major_brand.markup">mp42</property>
  <property name="meta.attr.minor_version.markup">0</property>
  <property name="meta.attr.compatible_brands.markup">isommp42</property>
  <property name="meta.attr.creation_time.markup">2021-09-25T16:40:52.000000Z</property>
  <property name="seekable">1</property>
  <property name="meta.media.sample_aspect_num">1</property>
  <property name="meta.media.sample_aspect_den">1</property>
  <property name="aspect_ratio">1</property>
  <property name="kdenlive:clipname"/>
  <property name="kdenlive:folderid">-1</property>
  <property name="meta.media.frame_rate_num">30</property>
  <property name="meta.media.frame_rate_den">1</property>
  <property name="meta.media.colorspace">709</property>
  <property name="meta.media.color_trc">1</property>
  <property name="meta.media.width">1280</property>
  <property name="meta.media.height">720</property>
  <property name="meta.media.color_range">mpeg</property>
  <property name="kdenlive:id">5</property>
  <property name="kdenlive:file_size">388872559</property>
  <property name="kdenlive:file_hash">05445012ea9d769bafaaf1093ad30a5c</property>
  <property name="meta.media.top_field_first">0</property>
  <property name="meta.media.progressive">1</property>
 </producer>
 <producer id="producer4" in="00:00:00.000" out="00:00:04.967">
  <property name="length">00:00:05.000</property>
  <property name="eof">pause</property>
  <property name="resource">hoppe ancap again.png</property>
  <property name="ttl">25</property>
  <property name="aspect_ratio">1</property>
  <property name="progressive">1</property>
  <property name="seekable">1</property>
  <property name="meta.media.width">725</property>
  <property name="meta.media.height">212</property>
  <property name="mlt_service">qimage</property>
  <property name="kdenlive:clipname"/>
  <property name="kdenlive:duration">00:00:05.000</property>
  <property name="kdenlive:folderid">-1</property>
  <property name="kdenlive:id">6</property>
  <property name="kdenlive:file_size">80646</property>
  <property name="kdenlive:file_hash">b5fd3e2e92eccdd3283b1302c6948b14</property>
 </producer>
 <producer id="producer5" in="00:00:00.000" out="00:00:04.967">
  <property name="length">00:00:05.000</property>
  <property name="eof">pause</property>
  <property name="resource">hoppe ancap.png</property>
  <property name="ttl">25</property>
  <property name="aspect_ratio">1</property>
  <property name="progressive">1</property>
  <property name="seekable">1</property>
  <property name="meta.media.width">725</property>
  <property name="meta.media.height">372</property>
  <property name="mlt_service">qimage</property>
  <property name="kdenlive:clipname"/>
  <property name="kdenlive:duration">00:00:05.000</property>
  <property name="kdenlive:folderid">-1</property>
  <property name="kdenlive:id">7</property>
  <property name="kdenlive:file_size">254078</property>
  <property name="kdenlive:file_hash">49e4018de26377b01c8036798a83f3f3</property>
 </producer>
 <producer id="producer6" in="00:00:00.000" out="00:00:06.133">
  <property name="length">185</property>
  <property name="eof">pause</property>
  <property name="resource">page xx.png</property>
  <property name="ttl">25</property>
  <property name="aspect_ratio">1</property>
  <property name="progressive">1</property>
  <property name="seekable">1</property>
  <property name="meta.media.width">562</property>
  <property name="meta.media.height">367</property>
  <property name="mlt_service">qimage</property>
  <property name="kdenlive:clipname"/>
  <property name="kdenlive:duration">00:00:05.000</property>
  <property name="kdenlive:folderid">-1</property>
  <property name="kdenlive:id">8</property>
  <property name="kdenlive:file_size">40136</property>
  <property name="kdenlive:file_hash">18279abc4aacc9e8f80ebb2dfa176c13</property>
 </producer>
 <producer id="producer7" in="00:00:00.000" out="00:00:11.367">
  <property name="length">342</property>
  <property name="eof">pause</property>
  <property name="resource">sarwark lizard.png</property>
  <property name="ttl">25</property>
  <property name="aspect_ratio">1</property>
  <property name="progressive">1</property>
  <property name="seekable">1</property>
  <property name="meta.media.width">646</property>
  <property name="meta.media.height">695</property>
  <property name="mlt_service">qimage</property>
  <property name="kdenlive:clipname"/>
  <property name="kdenlive:duration">00:00:05.000</property>
  <property name="kdenlive:folderid">-1</property>
  <property name="kdenlive:id">9</property>
  <property name="kdenlive:file_size">66624</property>
  <property name="kdenlive:file_hash">a67213346cd7bda7e573b247632bd2c9</property>
 </producer>
 <producer id="producer8" in="00:00:00.000" out="00:00:06.000">
  <property name="length">181</property>
  <property name="eof">pause</property>
  <property name="resource"/>
  <property name="progressive">1</property>
  <property name="aspect_ratio">1</property>
  <property name="seekable">1</property>
  <property name="mlt_service">kdenlivetitle</property>
  <property name="kdenlive:duration">150</property>
  <property name="kdenlive:clipname">highlight</property>
  <property name="xmldata">&lt;kdenlivetitle duration="150" LC_NUMERIC="C" width="1280" height="720" out="149">&#xd;
 &lt;item type="QGraphicsRectItem" z-index="1">&#xd;
  &lt;position x="168" y="50">&#xd;
   &lt;transform zoom="100">1,0,0,0,1,0,0,0,1&lt;/transform>&#xd;
  &lt;/position>&#xd;
  &lt;content brushcolor="255,255,127,130" pencolor="0,0,0,255" penwidth="0" rect="0,0,994.738,36.6443"/>&#xd;
 &lt;/item>&#xd;
 &lt;startviewport rect="0,0,1280,720"/>&#xd;
 &lt;endviewport rect="0,0,1280,720"/>&#xd;
 &lt;background color="0,0,0,0"/>&#xd;
&lt;/kdenlivetitle>&#xd;
</property>
  <property name="kdenlive:folderid">-1</property>
  <property name="kdenlive:id">10</property>
  <property name="kdenlive:file_hash">2777da7938b0fc3f6204ac227528be8d</property>
  <property name="force_reload">0</property>
  <property name="meta.media.width">1280</property>
  <property name="meta.media.height">720</property>
  <property name="global_feed">1</property>
 </producer>
 <producer id="producer9" in="00:00:00.000" out="00:00:05.100">
  <property name="length">154</property>
  <property name="eof">pause</property>
  <property name="resource"/>
  <property name="progressive">1</property>
  <property name="aspect_ratio">1</property>
  <property name="seekable">1</property>
  <property name="mlt_service">kdenlivetitle</property>
  <property name="kdenlive:duration">150</property>
  <property name="xmldata">&lt;kdenlivetitle duration="150" LC_NUMERIC="C" width="1280" height="720" out="149">&#xd;
 &lt;item type="QGraphicsRectItem" z-index="2">&#xd;
  &lt;position x="99" y="93">&#xd;
   &lt;transform zoom="100">1,0,0,0,1,0,0,0,1&lt;/transform>&#xd;
  &lt;/position>&#xd;
  &lt;content brushcolor="255,255,127,130" pencolor="0,0,0,255" penwidth="0" rect="0,0,69.5168,36.6577"/>&#xd;
 &lt;/item>&#xd;
 &lt;startviewport rect="0,0,1280,720"/>&#xd;
 &lt;endviewport rect="0,0,1280,720"/>&#xd;
 &lt;background color="0,0,0,0"/>&#xd;
&lt;/kdenlivetitle>&#xd;
</property>
  <property name="kdenlive:folderid">-1</property>
  <property name="kdenlive:id">11</property>
  <property name="force_reload">0</property>
  <property name="global_feed">1</property>
  <property name="kdenlive:clipname">highlight 2</property>
  <property name="kdenlive:file_hash">a805f54b906c404a16449aeb9a2534b5</property>
  <property name="meta.media.width">1280</property>
  <property name="meta.media.height">720</property>
 </producer>
 <producer id="producer10" in="00:00:00.000" out="00:31:18.967">
  <property name="length">56370</property>
  <property name="eof">pause</property>
  <property name="resource">fudd.png</property>
  <property name="ttl">25</property>
  <property name="aspect_ratio">1</property>
  <property name="progressive">1</property>
  <property name="seekable">1</property>
  <property name="meta.media.width">552</property>
  <property name="meta.media.height">552</property>
  <property name="mlt_service">qimage</property>
  <property name="kdenlive:clipname"/>
  <property name="kdenlive:duration">00:00:05.000</property>
  <property name="kdenlive:folderid">-1</property>
  <property name="kdenlive:id">12</property>
  <property name="kdenlive:file_size">240678</property>
  <property name="kdenlive:file_hash">e36ed900c6bbf31e7f109455a9438a60</property>
 </producer>
 <producer id="producer11" in="00:00:00.000" out="00:00:04.967">
  <property name="length">00:00:05.000</property>
  <property name="eof">pause</property>
  <property name="resource">D:/_Pics/!youtube/assets/cards/position-teal.png</property>
  <property name="ttl">25</property>
  <property name="aspect_ratio">1</property>
  <property name="progressive">1</property>
  <property name="seekable">1</property>
  <property name="meta.media.width">1600</property>
  <property name="meta.media.height">1200</property>
  <property name="mlt_service">qimage</property>
  <property name="kdenlive:clipname"/>
  <property name="kdenlive:duration">00:00:05.000</property>
  <property name="kdenlive:folderid">-1</property>
  <property name="kdenlive:id">19</property>
  <property name="kdenlive:file_size">16434</property>
  <property name="kdenlive:file_hash">e09453067209048fe4028faaa3d81de5</property>
 </producer>
 <producer id="producer12" in="00:00:00.000" out="00:00:04.967">
  <property name="length">00:00:05.000</property>
  <property name="eof">pause</property>
  <property name="resource">D:/_Pics/!youtube/assets/cards/question-purple.png</property>
  <property name="ttl">25</property>
  <property name="aspect_ratio">1</property>
  <property name="progressive">1</property>
  <property name="seekable">1</property>
  <property name="meta.media.width">1600</property>
  <property name="meta.media.height">1200</property>
  <property name="mlt_service">qimage</property>
  <property name="kdenlive:clipname"/>
  <property name="kdenlive:duration">00:00:05.000</property>
  <property name="kdenlive:folderid">-1</property>
  <property name="kdenlive:id">20</property>
  <property name="kdenlive:file_size">17808</property>
  <property name="kdenlive:file_hash">f8673fe2ba74462d82902cd5403f754f</property>
 </producer>
 <producer id="producer13" in="00:00:00.000" out="00:00:04.967">
  <property name="length">00:00:05.000</property>
  <property name="eof">pause</property>
  <property name="resource">D:/_Pics/!youtube/assets/cards/response-red.png</property>
  <property name="ttl">25</property>
  <property name="aspect_ratio">1</property>
  <property name="progressive">1</property>
  <property name="seekable">1</property>
  <property name="meta.media.width">1600</property>
  <property name="meta.media.height">1200</property>
  <property name="mlt_service">qimage</property>
  <property name="kdenlive:clipname"/>
  <property name="kdenlive:duration">00:00:05.000</property>
  <property name="kdenlive:folderid">-1</property>
  <property name="kdenlive:id">21</property>
  <property name="kdenlive:file_size">16574</property>
  <property name="kdenlive:file_hash">523b076a5d1377097675a1a03b0102a2</property>
 </producer>
 <producer id="producer14" in="00:00:00.000" out="00:01:10.567">
  <property name="length">2118</property>
  <property name="eof">pause</property>
  <property name="resource"/>
  <property name="progressive">1</property>
  <property name="aspect_ratio">1</property>
  <property name="seekable">1</property>
  <property name="mlt_service">kdenlivetitle</property>
  <property name="kdenlive:duration">150</property>
  <property name="kdenlive:clipname">Anarchism ca...</property>
  <property name="xmldata">&lt;kdenlivetitle duration="150" LC_NUMERIC="C" width="1280" height="720" out="149">
 &lt;item type="QGraphicsTextItem" z-index="1">
  &lt;position x="286" y="160">
   &lt;transform>1,0,0,0,1,0,0,0,1&lt;/transform>
  &lt;/position>
  &lt;content line-spacing="0" shadow="0;#64000000;3;3;3" font-underline="0" box-height="490" font="Montserrat Black" letter-spacing="0" font-pixel-size="51" font-italic="0" typewriter="0;2;1;0;0" alignment="4" font-weight="50" box-width="708" font-color="255,255,255,255">Anarchism cannot work
because it cannot defend
itself from outside
aggressors, due to the
fact that it is not in
your self-interest to
team up.&lt;/content>
 &lt;/item>
 &lt;item type="QGraphicsPixmapItem" z-index="0">
  &lt;position x="160" y="0">
   &lt;transform>0.599917,0,0,0,0.599917,0,0,0,1&lt;/transform>
  &lt;/position>
  &lt;content url="D:/_Pics/!youtube/assets/cards/position-teal.png"/>
 &lt;/item>
 &lt;startviewport rect="0,0,1280,720"/>
 &lt;endviewport rect="0,0,1280,720"/>
 &lt;background color="0,0,0,0"/>
&lt;/kdenlivetitle>
</property>
  <property name="kdenlive:folderid">-1</property>
  <property name="kdenlive:id">22</property>
  <property name="kdenlive:file_hash">b7b2f87772da999559b471d768ef5625</property>
  <property name="force_reload">0</property>
  <property name="meta.media.width">1280</property>
  <property name="meta.media.height">720</property>
  <property name="global_feed">1</property>
 </producer>
 <producer id="producer15" in="00:00:00.000" out="00:00:04.967">
  <property name="length">150</property>
  <property name="eof">pause</property>
  <property name="resource"/>
  <property name="progressive">1</property>
  <property name="aspect_ratio">1</property>
  <property name="seekable">1</property>
  <property name="mlt_service">kdenlivetitle</property>
  <property name="kdenlive:duration">150</property>
  <property name="kdenlive:clipname">response</property>
  <property name="xmldata">&lt;kdenlivetitle duration="150" LC_NUMERIC="C" width="1280" height="720" out="149">
 &lt;item type="QGraphicsPixmapItem" z-index="0">
  &lt;position x="160" y="0">
   &lt;transform>0.599917,0,0,0,0.599917,0,0,0,1&lt;/transform>
  &lt;/position>
  &lt;content url="D:/_Pics/!youtube/assets/cards/response-red.png"/>
 &lt;/item>
 &lt;startviewport rect="0,0,1280,720"/>
 &lt;endviewport rect="0,0,1280,720"/>
 &lt;background color="0,0,0,0"/>
&lt;/kdenlivetitle>
</property>
  <property name="kdenlive:folderid">-1</property>
  <property name="kdenlive:id">23</property>
  <property name="kdenlive:file_hash">79c3a33be154c8b7e5ac349a9f2c57ce</property>
  <property name="force_reload">0</property>
  <property name="meta.media.width">1280</property>
  <property name="meta.media.height">720</property>
  <property name="global_feed">1</property>
 </producer>
 <producer id="producer16" in="00:00:00.000" out="00:01:05.800">
  <property name="length">1975</property>
  <property name="eof">pause</property>
  <property name="resource"/>
  <property name="progressive">1</property>
  <property name="aspect_ratio">1</property>
  <property name="seekable">1</property>
  <property name="mlt_service">kdenlivetitle</property>
  <property name="kdenlive:duration">150</property>
  <property name="kdenlive:clipname">Is it in you...</property>
  <property name="xmldata">&lt;kdenlivetitle duration="150" LC_NUMERIC="C" width="1280" height="720" out="149">
 &lt;item type="QGraphicsTextItem" z-index="1">
  &lt;position x="247" y="180">
   &lt;transform>1,0,0,0,1,0,0,0,1&lt;/transform>
  &lt;/position>
  &lt;content line-spacing="0" shadow="0;#64000000;3;3;3" font-underline="0" box-height="280" font-outline-color="0,0,0,255" font="Montserrat Black" letter-spacing="0" font-pixel-size="51" font-italic="0" typewriter="0;2;1;0;0" alignment="4" font-weight="50" font-outline="0" box-width="786" font-color="255,255,255,255">Is it in your self-interest to
have a collectivised defense
(i.e, is it within your
self-interest to team up)&lt;/content>
 &lt;/item>
 &lt;item type="QGraphicsPixmapItem" z-index="0">
  &lt;position x="160" y="0">
   &lt;transform>0.599917,0,0,0,0.599917,0,0,0,1&lt;/transform>
  &lt;/position>
  &lt;content url="D:/_Pics/!youtube/assets/cards/question-purple.png"/>
 &lt;/item>
 &lt;startviewport rect="0,0,1280,720"/>
 &lt;endviewport rect="0,0,1280,720"/>
 &lt;background color="0,0,0,0"/>
&lt;/kdenlivetitle>
</property>
  <property name="kdenlive:folderid">-1</property>
  <property name="kdenlive:id">24</property>
  <property name="kdenlive:file_hash">21cb0993b4bb9818ea2f751dc693ae6b</property>
  <property name="force_reload">0</property>
  <property name="meta.media.width">1280</property>
  <property name="meta.media.height">720</property>
  <property name="global_feed">1</property>
 </producer>
 <producer id="producer17" in="00:00:00.000" out="00:01:03.300">
  <property name="length">1900</property>
  <property name="eof">pause</property>
  <property name="resource"/>
  <property name="progressive">1</property>
  <property name="aspect_ratio">1</property>
  <property name="seekable">1</property>
  <property name="mlt_service">kdenlivetitle</property>
  <property name="kdenlive:duration">150</property>
  <property name="kdenlive:clipname">It would not...</property>
  <property name="xmldata">&lt;kdenlivetitle duration="150" LC_NUMERIC="C" width="1280" height="720" out="149">
 &lt;item type="QGraphicsTextItem" z-index="1">
  &lt;position x="240" y="160">
   &lt;transform>1,0,0,0,1,0,0,0,1&lt;/transform>
  &lt;/position>
  &lt;content line-spacing="0" shadow="0;#64000000;3;3;3" font-underline="0" box-height="490" font="Montserrat Black" letter-spacing="0" font-pixel-size="51" font-italic="0" typewriter="0;2;1;0;0" alignment="4" font-weight="50" box-width="800" font-color="255,255,255,255">It would not be in your
self-interest to have a
collectivised defense as you
receive no tangible benefit.
You could have a poorly
organised collective defense
though (contradiction)&lt;/content>
 &lt;/item>
 &lt;item type="QGraphicsPixmapItem" z-index="0">
  &lt;position x="160" y="0">
   &lt;transform>0.599917,0,0,0,0.599917,0,0,0,1&lt;/transform>
  &lt;/position>
  &lt;content url="D:/_Pics/!youtube/assets/cards/response-red.png"/>
 &lt;/item>
 &lt;startviewport rect="0,0,1280,720"/>
 &lt;endviewport rect="0,0,1280,720"/>
 &lt;background color="0,0,0,0"/>
&lt;/kdenlivetitle>
</property>
  <property name="kdenlive:folderid">-1</property>
  <property name="kdenlive:id">25</property>
  <property name="force_reload">0</property>
  <property name="global_feed">1</property>
  <property name="kdenlive:file_hash">5cc5897cacb5b6209d93d8a2b80f072d</property>
  <property name="meta.media.width">1280</property>
  <property name="meta.media.height">720</property>
 </producer>
 <producer id="producer18" in="00:00:00.000" out="00:01:05.800">
  <property name="length">1975</property>
  <property name="eof">pause</property>
  <property name="resource"/>
  <property name="progressive">1</property>
  <property name="aspect_ratio">1</property>
  <property name="seekable">1</property>
  <property name="mlt_service">kdenlivetitle</property>
  <property name="kdenlive:duration">150</property>
  <property name="kdenlive:clipname">Is the state...</property>
  <property name="xmldata">&lt;kdenlivetitle duration="150" LC_NUMERIC="C" width="1280" height="720" out="149">
 &lt;item type="QGraphicsTextItem" z-index="1">
  &lt;position x="263" y="180">
   &lt;transform>1,0,0,0,1,0,0,0,1&lt;/transform>
  &lt;/position>
  &lt;content line-spacing="0" shadow="0;#64000000;3;3;3" font-underline="0" box-height="210" font="Montserrat Black" letter-spacing="0" font-pixel-size="51" font-italic="0" typewriter="0;2;1;0;0" alignment="4" font-weight="50" box-width="753" font-color="255,255,255,255">Is the state needed to form
firms (well organised
groups of people)&lt;/content>
 &lt;/item>
 &lt;item type="QGraphicsPixmapItem" z-index="0">
  &lt;position x="160" y="0">
   &lt;transform>0.599917,0,0,0,0.599917,0,0,0,1&lt;/transform>
  &lt;/position>
  &lt;content url="D:/_Pics/!youtube/assets/cards/question-purple.png"/>
 &lt;/item>
 &lt;startviewport rect="0,0,1280,720"/>
 &lt;endviewport rect="0,0,1280,720"/>
 &lt;background color="0,0,0,0"/>
&lt;/kdenlivetitle>
</property>
  <property name="kdenlive:folderid">-1</property>
  <property name="kdenlive:id">26</property>
  <property name="force_reload">0</property>
  <property name="global_feed">1</property>
  <property name="kdenlive:file_hash">2f31df8f063f193348bb947e70725a5b</property>
  <property name="meta.media.width">1280</property>
  <property name="meta.media.height">720</property>
 </producer>
 <producer id="producer19" in="00:00:00.000" out="00:01:03.300">
  <property name="length">1900</property>
  <property name="eof">pause</property>
  <property name="resource"/>
  <property name="progressive">1</property>
  <property name="aspect_ratio">1</property>
  <property name="seekable">1</property>
  <property name="mlt_service">kdenlivetitle</property>
  <property name="kdenlive:duration">150</property>
  <property name="kdenlive:clipname">You don't ne...</property>
  <property name="xmldata">&lt;kdenlivetitle duration="150" LC_NUMERIC="C" width="1280" height="720" out="149">
 &lt;item type="QGraphicsTextItem" z-index="1">
  &lt;position x="220" y="160">
   &lt;transform>1,0,0,0,1,0,0,0,1&lt;/transform>
  &lt;/position>
  &lt;content line-spacing="0" shadow="0;#64000000;3;3;3" font-underline="0" box-height="350" font="Montserrat Black" letter-spacing="0" font-pixel-size="51" font-italic="0" typewriter="0;2;1;0;0" alignment="4" font-weight="50" box-width="839" font-color="255,255,255,255">You don't need the state
to have well organised groups
of people, but the point is
moot as the state will always
exist (shifting the goalposts)&lt;/content>
 &lt;/item>
 &lt;item type="QGraphicsPixmapItem" z-index="0">
  &lt;position x="160" y="0">
   &lt;transform>0.599917,0,0,0,0.599917,0,0,0,1&lt;/transform>
  &lt;/position>
  &lt;content url="D:/_Pics/!youtube/assets/cards/response-red.png"/>
 &lt;/item>
 &lt;startviewport rect="0,0,1280,720"/>
 &lt;endviewport rect="0,0,1280,720"/>
 &lt;background color="0,0,0,0"/>
&lt;/kdenlivetitle>
</property>
  <property name="kdenlive:folderid">-1</property>
  <property name="kdenlive:id">27</property>
  <property name="force_reload">0</property>
  <property name="global_feed">1</property>
  <property name="kdenlive:file_hash">22cc92e342f61e7034b1406054ea04c6</property>
  <property name="meta.media.width">1280</property>
  <property name="meta.media.height">720</property>
 </producer>
 <producer id="producer20" in="00:00:00.000" out="00:01:05.800">
  <property name="length">1975</property>
  <property name="eof">pause</property>
  <property name="resource"/>
  <property name="progressive">1</property>
  <property name="aspect_ratio">1</property>
  <property name="seekable">1</property>
  <property name="mlt_service">kdenlivetitle</property>
  <property name="kdenlive:duration">150</property>
  <property name="kdenlive:clipname">If you don't...</property>
  <property name="xmldata">&lt;kdenlivetitle duration="150" LC_NUMERIC="C" width="1280" height="720" out="149">
 &lt;item type="QGraphicsTextItem" z-index="1">
  &lt;position x="237" y="180">
   &lt;transform>1,0,0,0,1,0,0,0,1&lt;/transform>
  &lt;/position>
  &lt;content line-spacing="0" shadow="0;#64000000;3;3;3" font-underline="0" box-height="280" font="Montserrat Black" letter-spacing="0" font-pixel-size="51" font-italic="0" typewriter="0;2;1;0;0" alignment="4" font-weight="50" box-width="806" font-color="255,255,255,255">If you don't need the state to
form firms why wouldn't you
expect a firm to pop up that
provides this defense&lt;/content>
 &lt;/item>
 &lt;item type="QGraphicsPixmapItem" z-index="0">
  &lt;position x="160" y="0">
   &lt;transform>0.599917,0,0,0,0.599917,0,0,0,1&lt;/transform>
  &lt;/position>
  &lt;content url="D:/_Pics/!youtube/assets/cards/question-purple.png"/>
 &lt;/item>
 &lt;startviewport rect="0,0,1280,720"/>
 &lt;endviewport rect="0,0,1280,720"/>
 &lt;background color="0,0,0,0"/>
&lt;/kdenlivetitle>
</property>
  <property name="kdenlive:folderid">-1</property>
  <property name="kdenlive:id">28</property>
  <property name="force_reload">0</property>
  <property name="global_feed">1</property>
  <property name="kdenlive:file_hash">0d274bb20567304dff67db2061beae12</property>
  <property name="meta.media.width">1280</property>
  <property name="meta.media.height">720</property>
 </producer>
 <producer id="producer21" in="00:00:00.000" out="00:01:03.300">
  <property name="length">1900</property>
  <property name="eof">pause</property>
  <property name="resource"/>
  <property name="progressive">1</property>
  <property name="aspect_ratio">1</property>
  <property name="seekable">1</property>
  <property name="mlt_service">kdenlivetitle</property>
  <property name="kdenlive:duration">150</property>
  <property name="kdenlive:clipname">Those firms ...</property>
  <property name="xmldata">&lt;kdenlivetitle duration="150" LC_NUMERIC="C" width="1280" height="720" out="149">
 &lt;item type="QGraphicsTextItem" z-index="1">
  &lt;position x="247" y="160">
   &lt;transform>1,0,0,0,1,0,0,0,1&lt;/transform>
  &lt;/position>
  &lt;content line-spacing="0" shadow="0;#64000000;3;3;3" font-underline="0" box-height="210" font="Montserrat Black" letter-spacing="0" font-pixel-size="51" font-italic="0" typewriter="0;2;1;0;0" alignment="4" font-weight="50" box-width="785" font-color="255,255,255,255">Those firms would not work
because I can simply bribe
them to not show up&lt;/content>
 &lt;/item>
 &lt;item type="QGraphicsPixmapItem" z-index="0">
  &lt;position x="160" y="0">
   &lt;transform>0.599917,0,0,0,0.599917,0,0,0,1&lt;/transform>
  &lt;/position>
  &lt;content url="D:/_Pics/!youtube/assets/cards/response-red.png"/>
 &lt;/item>
 &lt;startviewport rect="0,0,1280,720"/>
 &lt;endviewport rect="0,0,1280,720"/>
 &lt;background color="0,0,0,0"/>
&lt;/kdenlivetitle>
</property>
  <property name="kdenlive:folderid">-1</property>
  <property name="kdenlive:id">29</property>
  <property name="force_reload">0</property>
  <property name="global_feed">1</property>
  <property name="kdenlive:file_hash">fe7d35e58d8bda480f00fc01aa7cfadf</property>
  <property name="meta.media.width">1280</property>
  <property name="meta.media.height">720</property>
 </producer>
 <producer id="producer22" in="00:00:00.000" out="00:01:05.800">
  <property name="length">1975</property>
  <property name="eof">pause</property>
  <property name="resource"/>
  <property name="progressive">1</property>
  <property name="aspect_ratio">1</property>
  <property name="seekable">1</property>
  <property name="mlt_service">kdenlivetitle</property>
  <property name="kdenlive:duration">150</property>
  <property name="kdenlive:clipname">If you had a...</property>
  <property name="xmldata">&lt;kdenlivetitle duration="150" LC_NUMERIC="C" width="1280" height="720" out="149">
 &lt;item type="QGraphicsTextItem" z-index="1">
  &lt;position x="248" y="180">
   &lt;transform>1,0,0,0,1,0,0,0,1&lt;/transform>
  &lt;/position>
  &lt;content line-spacing="0" shadow="0;#64000000;3;3;3" font-underline="0" box-height="280" font="Montserrat Black" letter-spacing="0" font-pixel-size="51" font-italic="0" typewriter="0;2;1;0;0" alignment="4" font-weight="50" box-width="783" font-color="255,255,255,255">If you had a choice between
a firm that accepts bribes
and one that doesn't which
would you hire&lt;/content>
 &lt;/item>
 &lt;item type="QGraphicsPixmapItem" z-index="0">
  &lt;position x="160" y="0">
   &lt;transform>0.599917,0,0,0,0.599917,0,0,0,1&lt;/transform>
  &lt;/position>
  &lt;content url="D:/_Pics/!youtube/assets/cards/question-purple.png"/>
 &lt;/item>
 &lt;startviewport rect="0,0,1280,720"/>
 &lt;endviewport rect="0,0,1280,720"/>
 &lt;background color="0,0,0,0"/>
&lt;/kdenlivetitle>
</property>
  <property name="kdenlive:folderid">-1</property>
  <property name="kdenlive:id">30</property>
  <property name="force_reload">0</property>
  <property name="global_feed">1</property>
  <property name="kdenlive:file_hash">ec060a326068c91518bbb1281e8302fa</property>
  <property name="meta.media.width">1280</property>
  <property name="meta.media.height">720</property>
 </producer>
 <producer id="producer23" in="00:00:00.000" out="00:01:03.300">
  <property name="length">1900</property>
  <property name="eof">pause</property>
  <property name="resource"/>
  <property name="progressive">1</property>
  <property name="aspect_ratio">1</property>
  <property name="seekable">1</property>
  <property name="mlt_service">kdenlivetitle</property>
  <property name="kdenlive:duration">150</property>
  <property name="kdenlive:clipname">Every firm w...</property>
  <property name="xmldata">&lt;kdenlivetitle duration="150" LC_NUMERIC="C" width="1280" height="720" out="149">
 &lt;item type="QGraphicsTextItem" z-index="1">
  &lt;position x="246" y="160">
   &lt;transform>1,0,0,0,1,0,0,0,1&lt;/transform>
  &lt;/position>
  &lt;content line-spacing="0" shadow="0;#64000000;3;3;3" font-underline="0" box-height="140" font="Montserrat Black" letter-spacing="0" font-pixel-size="51" font-italic="0" typewriter="0;2;1;0;0" alignment="4" font-weight="50" box-width="788" font-color="255,255,255,255">Every firm would accept the
bribes&lt;/content>
 &lt;/item>
 &lt;item type="QGraphicsPixmapItem" z-index="0">
  &lt;position x="160" y="0">
   &lt;transform>0.599917,0,0,0,0.599917,0,0,0,1&lt;/transform>
  &lt;/position>
  &lt;content url="D:/_Pics/!youtube/assets/cards/response-red.png"/>
 &lt;/item>
 &lt;startviewport rect="0,0,1280,720"/>
 &lt;endviewport rect="0,0,1280,720"/>
 &lt;background color="0,0,0,0"/>
&lt;/kdenlivetitle>
</property>
  <property name="kdenlive:folderid">-1</property>
  <property name="kdenlive:id">31</property>
  <property name="force_reload">0</property>
  <property name="global_feed">1</property>
  <property name="kdenlive:file_hash">5c6fbb05efa2d4f4c0635d279d1529d3</property>
  <property name="meta.media.width">1280</property>
  <property name="meta.media.height">720</property>
 </producer>
 <producer id="producer24" in="00:00:00.000" out="00:01:05.800">
  <property name="length">1975</property>
  <property name="eof">pause</property>
  <property name="resource"/>
  <property name="progressive">1</property>
  <property name="aspect_ratio">1</property>
  <property name="seekable">1</property>
  <property name="mlt_service">kdenlivetitle</property>
  <property name="kdenlive:duration">150</property>
  <property name="kdenlive:clipname">Why would th...</property>
  <property name="xmldata">&lt;kdenlivetitle duration="150" LC_NUMERIC="C" width="1280" height="720" out="149">
 &lt;item type="QGraphicsTextItem" z-index="1">
  &lt;position x="225" y="180">
   &lt;transform>1,0,0,0,1,0,0,0,1&lt;/transform>
  &lt;/position>
  &lt;content line-spacing="0" shadow="0;#64000000;3;3;3" font-underline="0" box-height="350" font="Montserrat Black" letter-spacing="0" font-pixel-size="51" font-italic="0" typewriter="0;2;1;0;0" alignment="4" font-weight="50" box-width="830" font-color="255,255,255,255">Why would they all be willing
to take bribes, would bribe
taking firms not be out
competed by bribe refusing
firms&lt;/content>
 &lt;/item>
 &lt;item type="QGraphicsPixmapItem" z-index="0">
  &lt;position x="160" y="0">
   &lt;transform>0.599917,0,0,0,0.599917,0,0,0,1&lt;/transform>
  &lt;/position>
  &lt;content url="D:/_Pics/!youtube/assets/cards/question-purple.png"/>
 &lt;/item>
 &lt;startviewport rect="0,0,1280,720"/>
 &lt;endviewport rect="0,0,1280,720"/>
 &lt;background color="0,0,0,0"/>
&lt;/kdenlivetitle>
</property>
  <property name="kdenlive:folderid">-1</property>
  <property name="kdenlive:id">32</property>
  <property name="force_reload">0</property>
  <property name="global_feed">1</property>
  <property name="kdenlive:file_hash">4f318eff0aa69d09a57cb88589cf5f1f</property>
  <property name="meta.media.width">1280</property>
  <property name="meta.media.height">720</property>
 </producer>
 <producer id="producer25" in="00:00:00.000" out="00:01:03.300">
  <property name="length">1900</property>
  <property name="eof">pause</property>
  <property name="resource"/>
  <property name="progressive">1</property>
  <property name="aspect_ratio">1</property>
  <property name="seekable">1</property>
  <property name="mlt_service">kdenlivetitle</property>
  <property name="kdenlive:duration">150</property>
  <property name="kdenlive:clipname">State armies...</property>
  <property name="xmldata">&lt;kdenlivetitle duration="150" LC_NUMERIC="C" width="1280" height="720" out="149">
 &lt;item type="QGraphicsTextItem" z-index="1">
  &lt;position x="204" y="160">
   &lt;transform>1,0,0,0,1,0,0,0,1&lt;/transform>
  &lt;/position>
  &lt;content line-spacing="0" shadow="0;#64000000;3;3;3" font-underline="0" box-height="350" font="Montserrat Black" letter-spacing="0" font-pixel-size="51" font-italic="0" typewriter="0;2;1;0;0" alignment="4" font-weight="50" box-width="871" font-color="255,255,255,255">State armies are bound by
adherence to higher ideals
and thus they are more loyal
than when paid (not answering
the question)&lt;/content>
 &lt;/item>
 &lt;item type="QGraphicsPixmapItem" z-index="0">
  &lt;position x="160" y="0">
   &lt;transform>0.599917,0,0,0,0.599917,0,0,0,1&lt;/transform>
  &lt;/position>
  &lt;content url="D:/_Pics/!youtube/assets/cards/response-red.png"/>
 &lt;/item>
 &lt;startviewport rect="0,0,1280,720"/>
 &lt;endviewport rect="0,0,1280,720"/>
 &lt;background color="0,0,0,0"/>
&lt;/kdenlivetitle>
</property>
  <property name="kdenlive:folderid">-1</property>
  <property name="kdenlive:id">33</property>
  <property name="force_reload">0</property>
  <property name="global_feed">1</property>
  <property name="kdenlive:file_hash">b47b725a86a29ba7b54f840d1723d742</property>
  <property name="meta.media.width">1280</property>
  <property name="meta.media.height">720</property>
 </producer>
 <producer id="producer26" in="00:00:00.000" out="00:01:05.800">
  <property name="length">1975</property>
  <property name="eof">pause</property>
  <property name="resource"/>
  <property name="progressive">1</property>
  <property name="aspect_ratio">1</property>
  <property name="seekable">1</property>
  <property name="mlt_service">kdenlivetitle</property>
  <property name="kdenlive:duration">150</property>
  <property name="kdenlive:clipname">(1) would yo...</property>
  <property name="xmldata">&lt;kdenlivetitle duration="150" LC_NUMERIC="C" width="1280" height="720" out="149">
 &lt;item type="QGraphicsTextItem" z-index="1">
  &lt;position x="259" y="180">
   &lt;transform>1,0,0,0,1,0,0,0,1&lt;/transform>
  &lt;/position>
  &lt;content line-spacing="0" shadow="0;#64000000;3;3;3" font-underline="0" box-height="420" font="Montserrat Black" letter-spacing="0" font-pixel-size="51" font-italic="0" typewriter="0;2;1;0;0" alignment="4" font-weight="50" box-width="762" font-color="255,255,255,255">(1) would you go for a bribe
refusing firm over a bribe
receiving firm

(2) do you need the state to
have loyalty&lt;/content>
 &lt;/item>
 &lt;item type="QGraphicsPixmapItem" z-index="0">
  &lt;position x="160" y="0">
   &lt;transform>0.599917,0,0,0,0.599917,0,0,0,1&lt;/transform>
  &lt;/position>
  &lt;content url="D:/_Pics/!youtube/assets/cards/question-purple.png"/>
 &lt;/item>
 &lt;startviewport rect="0,0,1280,720"/>
 &lt;endviewport rect="0,0,1280,720"/>
 &lt;background color="0,0,0,0"/>
&lt;/kdenlivetitle>
</property>
  <property name="kdenlive:folderid">-1</property>
  <property name="kdenlive:id">34</property>
  <property name="force_reload">0</property>
  <property name="global_feed">1</property>
  <property name="kdenlive:file_hash">90196c5e32b60b246395b063a6963018</property>
  <property name="meta.media.width">1280</property>
  <property name="meta.media.height">720</property>
 </producer>
 <producer id="producer27" in="00:00:00.000" out="00:01:03.300">
  <property name="length">1900</property>
  <property name="eof">pause</property>
  <property name="resource"/>
  <property name="progressive">1</property>
  <property name="aspect_ratio">1</property>
  <property name="seekable">1</property>
  <property name="mlt_service">kdenlivetitle</property>
  <property name="kdenlive:duration">150</property>
  <property name="kdenlive:clipname">(1) we are n...</property>
  <property name="xmldata">&lt;kdenlivetitle duration="150" LC_NUMERIC="C" width="1280" height="720" out="149">
 &lt;item type="QGraphicsTextItem" z-index="1">
  &lt;position x="258" y="160">
   &lt;transform>1,0,0,0,1,0,0,0,1&lt;/transform>
  &lt;/position>
  &lt;content line-spacing="0" shadow="0;#64000000;3;3;3" font-underline="0" box-height="140" font="Montserrat Black" letter-spacing="0" font-pixel-size="51" font-italic="0" typewriter="0;2;1;0;0" alignment="4" font-weight="50" box-width="764" font-color="255,255,255,255">(1) we are not talking about
[that] (this is false)&lt;/content>
 &lt;/item>
 &lt;item type="QGraphicsPixmapItem" z-index="0">
  &lt;position x="160" y="0">
   &lt;transform>0.599917,0,0,0,0.599917,0,0,0,1&lt;/transform>
  &lt;/position>
  &lt;content url="D:/_Pics/!youtube/assets/cards/response-red.png"/>
 &lt;/item>
 &lt;startviewport rect="0,0,1280,720"/>
 &lt;endviewport rect="0,0,1280,720"/>
 &lt;background color="0,0,0,0"/>
&lt;/kdenlivetitle>
</property>
  <property name="kdenlive:folderid">-1</property>
  <property name="kdenlive:id">35</property>
  <property name="force_reload">0</property>
  <property name="global_feed">1</property>
  <property name="kdenlive:file_hash">c7e0239032e48fbdae08918b06ea6eee</property>
  <property name="meta.media.width">1280</property>
  <property name="meta.media.height">720</property>
 </producer>
 <producer id="producer28" in="00:00:00.000" out="00:01:03.300">
  <property name="length">1900</property>
  <property name="eof">pause</property>
  <property name="resource"/>
  <property name="progressive">1</property>
  <property name="aspect_ratio">1</property>
  <property name="seekable">1</property>
  <property name="mlt_service">kdenlivetitle</property>
  <property name="kdenlive:duration">150</property>
  <property name="kdenlive:clipname">(1) we are n...</property>
  <property name="xmldata">&lt;kdenlivetitle duration="150" LC_NUMERIC="C" width="1280" height="720" out="149">
 &lt;item type="QGraphicsTextItem" z-index="1">
  &lt;position x="258" y="160">
   &lt;transform>1,0,0,0,1,0,0,0,1&lt;/transform>
  &lt;/position>
  &lt;content line-spacing="0" shadow="0;#64000000;3;3;3" font-underline="0" box-height="420" font="Montserrat Black" letter-spacing="0" font-pixel-size="51" font-italic="0" typewriter="0;2;1;0;0" alignment="4" font-weight="50" box-width="764" font-color="255,255,255,255">(1) we are not talking about
[that] (this is false)

(2) you are atomised
individuals (I take this to
mean "yes")&lt;/content>
 &lt;/item>
 &lt;item type="QGraphicsPixmapItem" z-index="0">
  &lt;position x="160" y="0">
   &lt;transform>0.599917,0,0,0,0.599917,0,0,0,1&lt;/transform>
  &lt;/position>
  &lt;content url="D:/_Pics/!youtube/assets/cards/response-red.png"/>
 &lt;/item>
 &lt;startviewport rect="0,0,1280,720"/>
 &lt;endviewport rect="0,0,1280,720"/>
 &lt;background color="0,0,0,0"/>
&lt;/kdenlivetitle>
</property>
  <property name="kdenlive:folderid">-1</property>
  <property name="kdenlive:id">36</property>
  <property name="force_reload">0</property>
  <property name="global_feed">1</property>
  <property name="kdenlive:file_hash">50e71c2b384638b94aa8122af4133c9e</property>
  <property name="meta.media.width">1280</property>
  <property name="meta.media.height">720</property>
 </producer>
 <producer id="producer29" in="00:00:00.000" out="00:01:05.800">
  <property name="length">1975</property>
  <property name="eof">pause</property>
  <property name="resource"/>
  <property name="progressive">1</property>
  <property name="aspect_ratio">1</property>
  <property name="seekable">1</property>
  <property name="mlt_service">kdenlivetitle</property>
  <property name="kdenlive:duration">150</property>
  <property name="kdenlive:clipname">Are you loya...</property>
  <property name="xmldata">&lt;kdenlivetitle duration="150" LC_NUMERIC="C" width="1280" height="720" out="149">
 &lt;item type="QGraphicsTextItem" z-index="1">
  &lt;position x="230" y="180">
   &lt;transform>1,0,0,0,1,0,0,0,1&lt;/transform>
  &lt;/position>
  &lt;content line-spacing="0" shadow="0;#64000000;3;3;3" font-underline="0" box-height="140" font="Montserrat Black" letter-spacing="0" font-pixel-size="51" font-italic="0" typewriter="0;2;1;0;0" alignment="4" font-weight="50" box-width="819" font-color="255,255,255,255">Are you loyal to your parents,
friends, etc&lt;/content>
 &lt;/item>
 &lt;item type="QGraphicsPixmapItem" z-index="0">
  &lt;position x="160" y="0">
   &lt;transform>0.599917,0,0,0,0.599917,0,0,0,1&lt;/transform>
  &lt;/position>
  &lt;content url="D:/_Pics/!youtube/assets/cards/question-purple.png"/>
 &lt;/item>
 &lt;startviewport rect="0,0,1280,720"/>
 &lt;endviewport rect="0,0,1280,720"/>
 &lt;background color="0,0,0,0"/>
&lt;/kdenlivetitle>
</property>
  <property name="kdenlive:folderid">-1</property>
  <property name="kdenlive:id">37</property>
  <property name="force_reload">0</property>
  <property name="global_feed">1</property>
  <property name="kdenlive:file_hash">de01d0fc0be33576ff61d2d041f70730</property>
  <property name="meta.media.width">1280</property>
  <property name="meta.media.height">720</property>
 </producer>
 <producer id="producer30" in="00:00:00.000" out="00:01:03.300">
  <property name="length">1900</property>
  <property name="eof">pause</property>
  <property name="resource"/>
  <property name="progressive">1</property>
  <property name="aspect_ratio">1</property>
  <property name="seekable">1</property>
  <property name="mlt_service">kdenlivetitle</property>
  <property name="kdenlive:duration">150</property>
  <property name="kdenlive:clipname">yes, I am lo...</property>
  <property name="xmldata">&lt;kdenlivetitle duration="150" LC_NUMERIC="C" width="1280" height="720" out="149">
 &lt;item type="QGraphicsTextItem" z-index="1">
  &lt;position x="294" y="160">
   &lt;transform>1,0,0,0,1,0,0,0,1&lt;/transform>
  &lt;/position>
  &lt;content line-spacing="0" shadow="0;#64000000;3;3;3" font-underline="0" box-height="70" font="Montserrat Black" letter-spacing="0" font-pixel-size="51" font-italic="0" typewriter="0;2;1;0;0" alignment="4" font-weight="50" box-width="691" font-color="255,255,255,255">yes, I am loyal to parents&lt;/content>
 &lt;/item>
 &lt;item type="QGraphicsPixmapItem" z-index="0">
  &lt;position x="160" y="0">
   &lt;transform>0.599917,0,0,0,0.599917,0,0,0,1&lt;/transform>
  &lt;/position>
  &lt;content url="D:/_Pics/!youtube/assets/cards/response-red.png"/>
 &lt;/item>
 &lt;startviewport rect="0,0,1280,720"/>
 &lt;endviewport rect="0,0,1280,720"/>
 &lt;background color="0,0,0,0"/>
&lt;/kdenlivetitle>
</property>
  <property name="kdenlive:folderid">-1</property>
  <property name="kdenlive:id">38</property>
  <property name="force_reload">0</property>
  <property name="global_feed">1</property>
  <property name="kdenlive:file_hash">30cd3d2cc565a898041b69bab2eb4651</property>
  <property name="meta.media.width">1280</property>
  <property name="meta.media.height">720</property>
 </producer>
 <producer id="producer31" in="00:00:00.000" out="00:02:03.033">
  <property name="length">3692</property>
  <property name="eof">pause</property>
  <property name="resource"/>
  <property name="progressive">1</property>
  <property name="aspect_ratio">1</property>
  <property name="seekable">1</property>
  <property name="mlt_service">kdenlivetitle</property>
  <property name="kdenlive:duration">150</property>
  <property name="kdenlive:clipname">Did the stat...</property>
  <property name="xmldata">&lt;kdenlivetitle duration="150" LC_NUMERIC="C" width="1280" height="720" out="149">
 &lt;item type="QGraphicsTextItem" z-index="1">
  &lt;position x="244" y="180">
   &lt;transform>1,0,0,0,1,0,0,0,1&lt;/transform>
  &lt;/position>
  &lt;content line-spacing="0" shadow="0;#64000000;3;3;3" font-underline="0" box-height="140" font="Montserrat Black" letter-spacing="0" font-pixel-size="51" font-italic="0" typewriter="0;2;1;0;0" alignment="4" font-weight="50" box-width="791" font-color="255,255,255,255">Did the state force you to be
loyal to your parents&lt;/content>
 &lt;/item>
 &lt;item type="QGraphicsPixmapItem" z-index="0">
  &lt;position x="160" y="0">
   &lt;transform>0.599917,0,0,0,0.599917,0,0,0,1&lt;/transform>
  &lt;/position>
  &lt;content url="D:/_Pics/!youtube/assets/cards/question-purple.png"/>
 &lt;/item>
 &lt;startviewport rect="0,0,1280,720"/>
 &lt;endviewport rect="0,0,1280,720"/>
 &lt;background color="0,0,0,0"/>
&lt;/kdenlivetitle>
</property>
  <property name="kdenlive:folderid">-1</property>
  <property name="kdenlive:id">39</property>
  <property name="force_reload">0</property>
  <property name="global_feed">1</property>
  <property name="kdenlive:file_hash">d99f2dac523e9d751e730a2963fcde95</property>
  <property name="meta.media.width">1280</property>
  <property name="meta.media.height">720</property>
 </producer>
 <producer id="producer32" in="00:00:00.000" out="00:01:38.000">
  <property name="length">2941</property>
  <property name="eof">pause</property>
  <property name="resource"/>
  <property name="progressive">1</property>
  <property name="aspect_ratio">1</property>
  <property name="seekable">1</property>
  <property name="mlt_service">kdenlivetitle</property>
  <property name="kdenlive:duration">150</property>
  <property name="kdenlive:clipname">State milita...</property>
  <property name="xmldata">&lt;kdenlivetitle duration="150" LC_NUMERIC="C" width="1280" height="720" out="149">
 &lt;item type="QGraphicsTextItem" z-index="1">
  &lt;position x="240" y="160">
   &lt;transform>1,0,0,0,1,0,0,0,1&lt;/transform>
  &lt;/position>
  &lt;content line-spacing="0" shadow="0;#64000000;3;3;3" font-underline="0" box-height="280" font="Montserrat Black" letter-spacing="0" font-pixel-size="51" font-italic="0" typewriter="0;2;1;0;0" alignment="4" font-weight="50" box-width="800" font-color="255,255,255,255">State militaries are more
efficient as they are fighting
for a higher ideal (shifting
the goalposts)&lt;/content>
 &lt;/item>
 &lt;item type="QGraphicsPixmapItem" z-index="0">
  &lt;position x="160" y="0">
   &lt;transform>0.599917,0,0,0,0.599917,0,0,0,1&lt;/transform>
  &lt;/position>
  &lt;content url="D:/_Pics/!youtube/assets/cards/position-teal.png"/>
 &lt;/item>
 &lt;startviewport rect="0,0,1280,720"/>
 &lt;endviewport rect="0,0,1280,720"/>
 &lt;background color="0,0,0,0"/>
&lt;/kdenlivetitle>
</property>
  <property name="kdenlive:folderid">-1</property>
  <property name="kdenlive:id">40</property>
  <property name="force_reload">0</property>
  <property name="global_feed">1</property>
  <property name="kdenlive:file_hash">007a79567c0253af50b8f58f3e80ccc5</property>
  <property name="meta.media.width">1280</property>
  <property name="meta.media.height">720</property>
 </producer>
 <producer id="producer33" in="00:00:00.000" out="00:01:06.367">
  <property name="length">1992</property>
  <property name="eof">pause</property>
  <property name="resource"/>
  <property name="progressive">1</property>
  <property name="aspect_ratio">1</property>
  <property name="seekable">1</property>
  <property name="mlt_service">kdenlivetitle</property>
  <property name="kdenlive:duration">150</property>
  <property name="kdenlive:clipname">Would libert...</property>
  <property name="xmldata">&lt;kdenlivetitle duration="150" LC_NUMERIC="C" width="1280" height="720" out="149">
 &lt;item type="QGraphicsTextItem" z-index="1">
  &lt;position x="285" y="180">
   &lt;transform>1,0,0,0,1,0,0,0,1&lt;/transform>
  &lt;/position>
  &lt;content line-spacing="0" shadow="0;#64000000;3;3;3" font-underline="0" box-height="140" font="Montserrat Black" letter-spacing="0" font-pixel-size="51" font-italic="0" typewriter="0;2;1;0;0" alignment="4" font-weight="50" box-width="709" font-color="255,255,255,255">Would liberty be a higher
ideal than oneself&lt;/content>
 &lt;/item>
 &lt;item type="QGraphicsPixmapItem" z-index="0">
  &lt;position x="160" y="0">
   &lt;transform>0.599917,0,0,0,0.599917,0,0,0,1&lt;/transform>
  &lt;/position>
  &lt;content url="D:/_Pics/!youtube/assets/cards/question-purple.png"/>
 &lt;/item>
 &lt;startviewport rect="0,0,1280,720"/>
 &lt;endviewport rect="0,0,1280,720"/>
 &lt;background color="0,0,0,0"/>
&lt;/kdenlivetitle>
</property>
  <property name="kdenlive:folderid">-1</property>
  <property name="kdenlive:id">41</property>
  <property name="force_reload">0</property>
  <property name="global_feed">1</property>
  <property name="kdenlive:file_hash">c9724830f30b4ae4c3f9c8fd06464db8</property>
  <property name="meta.media.width">1280</property>
  <property name="meta.media.height">720</property>
 </producer>
 <producer id="producer34" in="00:00:00.000" out="00:02:00.167">
  <property name="length">3606</property>
  <property name="eof">pause</property>
  <property name="resource"/>
  <property name="progressive">1</property>
  <property name="aspect_ratio">1</property>
  <property name="seekable">1</property>
  <property name="mlt_service">kdenlivetitle</property>
  <property name="kdenlive:duration">150</property>
  <property name="kdenlive:clipname">No, liberty ...</property>
  <property name="xmldata">&lt;kdenlivetitle duration="150" LC_NUMERIC="C" width="1280" height="720" out="149">
 &lt;item type="QGraphicsTextItem" z-index="1">
  &lt;position x="287" y="160">
   &lt;transform>1,0,0,0,1,0,0,0,1&lt;/transform>
  &lt;/position>
  &lt;content line-spacing="0" shadow="0;#64000000;3;3;3" font-underline="0" box-height="140" font="Montserrat Black" letter-spacing="0" font-pixel-size="51" font-italic="0" typewriter="0;2;1;0;0" alignment="4" font-weight="50" box-width="705" font-color="255,255,255,255">No, liberty is not a higher
ideal than onself&lt;/content>
 &lt;/item>
 &lt;item type="QGraphicsPixmapItem" z-index="0">
  &lt;position x="160" y="0">
   &lt;transform>0.599917,0,0,0,0.599917,0,0,0,1&lt;/transform>
  &lt;/position>
  &lt;content url="D:/_Pics/!youtube/assets/cards/response-red.png"/>
 &lt;/item>
 &lt;startviewport rect="0,0,1280,720"/>
 &lt;endviewport rect="0,0,1280,720"/>
 &lt;background color="0,0,0,0"/>
&lt;/kdenlivetitle>
</property>
  <property name="kdenlive:folderid">-1</property>
  <property name="kdenlive:id">42</property>
  <property name="force_reload">0</property>
  <property name="global_feed">1</property>
  <property name="kdenlive:file_hash">c839ad97bea3b372255026e927a1931b</property>
  <property name="meta.media.width">1280</property>
  <property name="meta.media.height">720</property>
 </producer>
 <producer id="producer35" in="00:00:00.000" out="00:01:57.767">
  <property name="length">3534</property>
  <property name="eof">pause</property>
  <property name="resource"/>
  <property name="progressive">1</property>
  <property name="aspect_ratio">1</property>
  <property name="seekable">1</property>
  <property name="mlt_service">kdenlivetitle</property>
  <property name="kdenlive:duration">150</property>
  <property name="kdenlive:clipname">What are the...</property>
  <property name="xmldata">&lt;kdenlivetitle duration="150" LC_NUMERIC="C" width="1280" height="720" out="149">
 &lt;item type="QGraphicsTextItem" z-index="1">
  &lt;position x="284" y="180">
   &lt;transform>1,0,0,0,1,0,0,0,1&lt;/transform>
  &lt;/position>
  &lt;content line-spacing="0" shadow="0;#64000000;3;3;3" font-underline="0" box-height="140" font="Montserrat Black" letter-spacing="0" font-pixel-size="51" font-italic="0" typewriter="0;2;1;0;0" alignment="4" font-weight="50" box-width="711" font-color="255,255,255,255">What are the criteria that
define a higher ideal&lt;/content>
 &lt;/item>
 &lt;item type="QGraphicsPixmapItem" z-index="0">
  &lt;position x="160" y="0">
   &lt;transform>0.599917,0,0,0,0.599917,0,0,0,1&lt;/transform>
  &lt;/position>
  &lt;content url="D:/_Pics/!youtube/assets/cards/question-purple.png"/>
 &lt;/item>
 &lt;startviewport rect="0,0,1280,720"/>
 &lt;endviewport rect="0,0,1280,720"/>
 &lt;background color="0,0,0,0"/>
&lt;/kdenlivetitle>
</property>
  <property name="kdenlive:folderid">-1</property>
  <property name="kdenlive:id">43</property>
  <property name="force_reload">0</property>
  <property name="global_feed">1</property>
  <property name="kdenlive:file_hash">6e827e20ceafbd65d5a8028ca61441e7</property>
  <property name="meta.media.width">1280</property>
  <property name="meta.media.height">720</property>
 </producer>
 <producer id="producer36" in="00:00:00.000" out="00:00:04.967">
  <property name="length">150</property>
  <property name="eof">pause</property>
  <property name="resource"/>
  <property name="progressive">1</property>
  <property name="aspect_ratio">1</property>
  <property name="seekable">1</property>
  <property name="mlt_service">kdenlivetitle</property>
  <property name="kdenlive:duration">150</property>
  <property name="kdenlive:clipname">(Hes still n...</property>
  <property name="xmldata">&lt;kdenlivetitle duration="150" LC_NUMERIC="C" width="1280" height="720" out="149">
 &lt;item type="QGraphicsTextItem" z-index="0">
  &lt;position x="54" y="331">
   &lt;transform>1,0,0,0,1,0,0,0,1&lt;/transform>
  &lt;/position>
  &lt;content line-spacing="0" shadow="0;#64000000;3;3;3" font-underline="0" box-height="58" font-outline-color="0,0,0,255" font="Montserrat Black" letter-spacing="0" font-pixel-size="42" font-italic="0" typewriter="0;2;1;0;0" alignment="4" font-weight="50" font-outline="2" box-width="1171" font-color="255,255,255,255">(Hes still not answering the fucking question lmao)&lt;/content>
 &lt;/item>
 &lt;startviewport rect="0,0,1280,720"/>
 &lt;endviewport rect="0,0,1280,720"/>
 &lt;background color="0,0,0,0"/>
&lt;/kdenlivetitle>
</property>
  <property name="kdenlive:folderid">-1</property>
  <property name="kdenlive:id">44</property>
  <property name="kdenlive:file_hash">47f824a5004e364b920eab26a9c82d6b</property>
  <property name="force_reload">0</property>
  <property name="meta.media.width">1280</property>
  <property name="meta.media.height">720</property>
  <property name="global_feed">1</property>
 </producer>
 <producer id="producer37" in="00:00:00.000" out="00:01:03.300">
  <property name="length">1900</property>
  <property name="eof">pause</property>
  <property name="resource"/>
  <property name="progressive">1</property>
  <property name="aspect_ratio">1</property>
  <property name="seekable">1</property>
  <property name="mlt_service">kdenlivetitle</property>
  <property name="kdenlive:duration">150</property>
  <property name="kdenlive:clipname">It has to no...</property>
  <property name="xmldata">&lt;kdenlivetitle duration="150" LC_NUMERIC="C" width="1280" height="720" out="149">
 &lt;item type="QGraphicsTextItem" z-index="1">
  &lt;position x="306" y="160">
   &lt;transform>1,0,0,0,1,0,0,0,1&lt;/transform>
  &lt;/position>
  &lt;content line-spacing="0" shadow="0;#64000000;3;3;3" font-underline="0" box-height="70" font="Montserrat Black" letter-spacing="0" font-pixel-size="51" font-italic="0" typewriter="0;2;1;0;0" alignment="4" font-weight="50" box-width="667" font-color="255,255,255,255">It has to not be tangible&lt;/content>
 &lt;/item>
 &lt;item type="QGraphicsPixmapItem" z-index="0">
  &lt;position x="160" y="0">
   &lt;transform>0.599917,0,0,0,0.599917,0,0,0,1&lt;/transform>
  &lt;/position>
  &lt;content url="D:/_Pics/!youtube/assets/cards/response-red.png"/>
 &lt;/item>
 &lt;startviewport rect="0,0,1280,720"/>
 &lt;endviewport rect="0,0,1280,720"/>
 &lt;background color="0,0,0,0"/>
&lt;/kdenlivetitle>
</property>
  <property name="kdenlive:folderid">-1</property>
  <property name="kdenlive:id">45</property>
  <property name="force_reload">0</property>
  <property name="global_feed">1</property>
  <property name="kdenlive:file_hash">2ebe698cec597e413eb147bcad01e674</property>
  <property name="meta.media.width">1280</property>
  <property name="meta.media.height">720</property>
 </producer>
 <producer id="producer38" in="00:00:00.000" out="00:01:03.300">
  <property name="length">1900</property>
  <property name="eof">pause</property>
  <property name="resource"/>
  <property name="progressive">1</property>
  <property name="aspect_ratio">1</property>
  <property name="seekable">1</property>
  <property name="mlt_service">kdenlivetitle</property>
  <property name="kdenlive:duration">150</property>
  <property name="kdenlive:clipname">Liberty isn'...</property>
  <property name="xmldata">&lt;kdenlivetitle duration="150" LC_NUMERIC="C" width="1280" height="720" out="149">
 &lt;item type="QGraphicsTextItem" z-index="1">
  &lt;position x="213" y="160">
   &lt;transform>1,0,0,0,1,0,0,0,1&lt;/transform>
  &lt;/position>
  &lt;content line-spacing="0" shadow="0;#64000000;3;3;3" font-underline="0" box-height="140" font="Montserrat Black" letter-spacing="0" font-pixel-size="51" font-italic="0" typewriter="0;2;1;0;0" alignment="4" font-weight="50" box-width="853" font-color="255,255,255,255">Liberty isn't tangible therefore
it must by a higher ideal&lt;/content>
 &lt;/item>
 &lt;item type="QGraphicsPixmapItem" z-index="0">
  &lt;position x="160" y="0">
   &lt;transform>0.599917,0,0,0,0.599917,0,0,0,1&lt;/transform>
  &lt;/position>
  &lt;content url="D:/_Pics/!youtube/assets/cards/response-red.png"/>
 &lt;/item>
 &lt;startviewport rect="0,0,1280,720"/>
 &lt;endviewport rect="0,0,1280,720"/>
 &lt;background color="0,0,0,0"/>
&lt;/kdenlivetitle>
</property>
  <property name="kdenlive:folderid">-1</property>
  <property name="kdenlive:id">46</property>
  <property name="force_reload">0</property>
  <property name="global_feed">1</property>
  <property name="kdenlive:file_hash">5423aaf1a90d846e53e80c6b21f4a218</property>
  <property name="meta.media.width">1280</property>
  <property name="meta.media.height">720</property>
 </producer>
 <producer id="producer39" in="00:00:00.000" out="00:01:03.300">
  <property name="length">1900</property>
  <property name="eof">pause</property>
  <property name="resource"/>
  <property name="progressive">1</property>
  <property name="aspect_ratio">1</property>
  <property name="seekable">1</property>
  <property name="mlt_service">kdenlivetitle</property>
  <property name="kdenlive:duration">150</property>
  <property name="kdenlive:clipname">It's not bec...</property>
  <property name="xmldata">&lt;kdenlivetitle duration="150" LC_NUMERIC="C" width="1280" height="720" out="149">
 &lt;item type="QGraphicsTextItem" z-index="1">
  &lt;position x="213" y="160">
   &lt;transform>1,0,0,0,1,0,0,0,1&lt;/transform>
  &lt;/position>
  &lt;content line-spacing="0" shadow="0;#64000000;3;3;3" font-underline="0" box-height="280" font="Montserrat Black" letter-spacing="0" font-pixel-size="51" font-italic="0" typewriter="0;2;1;0;0" alignment="4" font-weight="50" box-width="854" font-color="255,255,255,255">It's not because nobody would
be willing to fight for it
(this does not contradict
his criterion)&lt;/content>
 &lt;/item>
 &lt;item type="QGraphicsPixmapItem" z-index="0">
  &lt;position x="160" y="0">
   &lt;transform>0.599917,0,0,0,0.599917,0,0,0,1&lt;/transform>
  &lt;/position>
  &lt;content url="D:/_Pics/!youtube/assets/cards/response-red.png"/>
 &lt;/item>
 &lt;startviewport rect="0,0,1280,720"/>
 &lt;endviewport rect="0,0,1280,720"/>
 &lt;background color="0,0,0,0"/>
&lt;/kdenlivetitle>
</property>
  <property name="kdenlive:folderid">-1</property>
  <property name="kdenlive:id">47</property>
  <property name="force_reload">0</property>
  <property name="global_feed">1</property>
  <property name="kdenlive:file_hash">4944863e1edbbe6c31ed965b994077d6</property>
  <property name="meta.media.width">1280</property>
  <property name="meta.media.height">720</property>
 </producer>
 <producer id="producer40" in="00:00:00.000" out="00:01:03.300">
  <property name="length">1900</property>
  <property name="eof">pause</property>
  <property name="resource"/>
  <property name="progressive">1</property>
  <property name="aspect_ratio">1</property>
  <property name="seekable">1</property>
  <property name="mlt_service">kdenlivetitle</property>
  <property name="kdenlive:duration">150</property>
  <property name="kdenlive:clipname">I, and many ...</property>
  <property name="xmldata">&lt;kdenlivetitle duration="150" LC_NUMERIC="C" width="1280" height="720" out="149">
 &lt;item type="QGraphicsTextItem" z-index="1">
  &lt;position x="249" y="160">
   &lt;transform>1,0,0,0,1,0,0,0,1&lt;/transform>
  &lt;/position>
  &lt;content line-spacing="0" shadow="0;#64000000;3;3;3" font-underline="0" box-height="210" font="Montserrat Black" letter-spacing="0" font-pixel-size="51" font-italic="0" typewriter="0;2;1;0;0" alignment="4" font-weight="50" box-width="782" font-color="255,255,255,255">I, and many other ancaps,
would be willing to fight for
the NAP&lt;/content>
 &lt;/item>
 &lt;item type="QGraphicsPixmapItem" z-index="0">
  &lt;position x="160" y="0">
   &lt;transform>0.599917,0,0,0,0.599917,0,0,0,1&lt;/transform>
  &lt;/position>
  &lt;content url="D:/_Pics/!youtube/assets/cards/response-red.png"/>
 &lt;/item>
 &lt;startviewport rect="0,0,1280,720"/>
 &lt;endviewport rect="0,0,1280,720"/>
 &lt;background color="0,0,0,0"/>
&lt;/kdenlivetitle>
</property>
  <property name="kdenlive:folderid">-1</property>
  <property name="kdenlive:id">48</property>
  <property name="force_reload">0</property>
  <property name="global_feed">1</property>
  <property name="kdenlive:file_hash">2f548afd331ed77b092148ab07ae008d</property>
  <property name="meta.media.width">1280</property>
  <property name="meta.media.height">720</property>
 </producer>
 <producer id="producer41" in="00:00:00.000" out="00:01:38.000">
  <property name="length">2941</property>
  <property name="eof">pause</property>
  <property name="resource"/>
  <property name="progressive">1</property>
  <property name="aspect_ratio">1</property>
  <property name="seekable">1</property>
  <property name="mlt_service">kdenlivetitle</property>
  <property name="kdenlive:duration">150</property>
  <property name="kdenlive:clipname">There is no ...</property>
  <property name="xmldata">&lt;kdenlivetitle duration="150" LC_NUMERIC="C" width="1280" height="720" out="149">
 &lt;item type="QGraphicsTextItem" z-index="1">
  &lt;position x="230" y="160">
   &lt;transform>1,0,0,0,1,0,0,0,1&lt;/transform>
  &lt;/position>
  &lt;content line-spacing="0" shadow="0;#64000000;3;3;3" font-underline="0" box-height="490" font="Montserrat Black" letter-spacing="0" font-pixel-size="51" font-italic="0" typewriter="0;2;1;0;0" alignment="4" font-weight="50" box-width="819" font-color="255,255,255,255">There is no tangible benefit
[received upon funding a
libertarian project by] the
wealthy people you would
need to fund it, therefore
no wealthy person would be
willing to fund such a project&lt;/content>
 &lt;/item>
 &lt;item type="QGraphicsPixmapItem" z-index="0">
  &lt;position x="160" y="0">
   &lt;transform>0.599917,0,0,0,0.599917,0,0,0,1&lt;/transform>
  &lt;/position>
  &lt;content url="D:/_Pics/!youtube/assets/cards/position-teal.png"/>
 &lt;/item>
 &lt;startviewport rect="0,0,1280,720"/>
 &lt;endviewport rect="0,0,1280,720"/>
 &lt;background color="0,0,0,0"/>
&lt;/kdenlivetitle>
</property>
  <property name="kdenlive:folderid">-1</property>
  <property name="kdenlive:id">49</property>
  <property name="force_reload">0</property>
  <property name="global_feed">1</property>
  <property name="kdenlive:file_hash">a0efb64318dc409bff60efd584638414</property>
  <property name="meta.media.width">1280</property>
  <property name="meta.media.height">720</property>
 </producer>
 <producer id="producer42" in="00:00:00.000" out="00:01:03.300">
  <property name="length">1900</property>
  <property name="eof">pause</property>
  <property name="resource"/>
  <property name="progressive">1</property>
  <property name="aspect_ratio">1</property>
  <property name="seekable">1</property>
  <property name="mlt_service">kdenlivetitle</property>
  <property name="kdenlive:duration">150</property>
  <property name="kdenlive:clipname">Very wealthy...</property>
  <property name="xmldata">&lt;kdenlivetitle duration="150" LC_NUMERIC="C" width="1280" height="720" out="149">
 &lt;item type="QGraphicsTextItem" z-index="1">
  &lt;position x="206" y="160">
   &lt;transform>1,0,0,0,1,0,0,0,1&lt;/transform>
  &lt;/position>
  &lt;content line-spacing="0" shadow="0;#64000000;3;3;3" font-underline="0" box-height="420" font="Montserrat Black" letter-spacing="0" font-pixel-size="51" font-italic="0" typewriter="0;2;1;0;0" alignment="4" font-weight="50" box-width="867" font-color="255,255,255,255">Very wealthy people fund
libertarian projects all the time
Jack Dorsey seems to be
getting gold-pilled too.

(also mises.org is a non-profit)&lt;/content>
 &lt;/item>
 &lt;item type="QGraphicsPixmapItem" z-index="0">
  &lt;position x="160" y="0">
   &lt;transform>0.599917,0,0,0,0.599917,0,0,0,1&lt;/transform>
  &lt;/position>
  &lt;content url="D:/_Pics/!youtube/assets/cards/response-red.png"/>
 &lt;/item>
 &lt;startviewport rect="0,0,1280,720"/>
 &lt;endviewport rect="0,0,1280,720"/>
 &lt;background color="0,0,0,0"/>
&lt;/kdenlivetitle>
</property>
  <property name="kdenlive:folderid">-1</property>
  <property name="kdenlive:id">50</property>
  <property name="force_reload">0</property>
  <property name="global_feed">1</property>
  <property name="kdenlive:file_hash">e0ce02d836d8d4d5c4aacd19648f7e20</property>
  <property name="meta.media.width">1280</property>
  <property name="meta.media.height">720</property>
 </producer>
 <producer id="producer43" in="00:00:00.000" out="00:01:03.300">
  <property name="length">1900</property>
  <property name="eof">pause</property>
  <property name="resource"/>
  <property name="progressive">1</property>
  <property name="aspect_ratio">1</property>
  <property name="seekable">1</property>
  <property name="mlt_service">kdenlivetitle</property>
  <property name="kdenlive:duration">150</property>
  <property name="kdenlive:clipname">Jack Dorsey ...</property>
  <property name="xmldata">&lt;kdenlivetitle duration="150" LC_NUMERIC="C" width="1280" height="720" out="149">
 &lt;item type="QGraphicsTextItem" z-index="1">
  &lt;position x="229" y="160">
   &lt;transform>1,0,0,0,1,0,0,0,1&lt;/transform>
  &lt;/position>
  &lt;content line-spacing="0" shadow="0;#64000000;3;3;3" font-underline="0" box-height="280" font="Montserrat Black" letter-spacing="0" font-pixel-size="51" font-italic="0" typewriter="0;2;1;0;0" alignment="4" font-weight="50" box-width="822" font-color="255,255,255,255">Jack Dorsey would never
become an ancap because he
receives so many benefits in
this statist world&lt;/content>
 &lt;/item>
 &lt;item type="QGraphicsPixmapItem" z-index="0">
  &lt;position x="160" y="0">
   &lt;transform>0.599917,0,0,0,0.599917,0,0,0,1&lt;/transform>
  &lt;/position>
  &lt;content url="D:/_Pics/!youtube/assets/cards/response-red.png"/>
 &lt;/item>
 &lt;startviewport rect="0,0,1280,720"/>
 &lt;endviewport rect="0,0,1280,720"/>
 &lt;background color="0,0,0,0"/>
&lt;/kdenlivetitle>
</property>
  <property name="kdenlive:folderid">-1</property>
  <property name="kdenlive:id">51</property>
  <property name="force_reload">0</property>
  <property name="global_feed">1</property>
  <property name="kdenlive:file_hash">e49e9aa045dec5a22f172c8952a862c2</property>
  <property name="meta.media.width">1280</property>
  <property name="meta.media.height">720</property>
 </producer>
 <producer id="producer44" in="00:00:00.000" out="00:01:03.300">
  <property name="length">1900</property>
  <property name="eof">pause</property>
  <property name="resource"/>
  <property name="progressive">1</property>
  <property name="aspect_ratio">1</property>
  <property name="seekable">1</property>
  <property name="mlt_service">kdenlivetitle</property>
  <property name="kdenlive:duration">150</property>
  <property name="kdenlive:clipname">Not everyone...</property>
  <property name="xmldata">&lt;kdenlivetitle duration="150" LC_NUMERIC="C" width="1280" height="720" out="149">
 &lt;item type="QGraphicsTextItem" z-index="1">
  &lt;position x="235" y="160">
   &lt;transform>1,0,0,0,1,0,0,0,1&lt;/transform>
  &lt;/position>
  &lt;content line-spacing="0" shadow="0;#64000000;3;3;3" font-underline="0" box-height="350" font="Montserrat Black" letter-spacing="0" font-pixel-size="51" font-italic="0" typewriter="0;2;1;0;0" alignment="4" font-weight="50" box-width="810" font-color="255,255,255,255">Not everyone thinks in terms
of what would benefit their
wallet only, some people
care about the betterment of
society&lt;/content>
 &lt;/item>
 &lt;item type="QGraphicsPixmapItem" z-index="0">
  &lt;position x="160" y="0">
   &lt;transform>0.599917,0,0,0,0.599917,0,0,0,1&lt;/transform>
  &lt;/position>
  &lt;content url="D:/_Pics/!youtube/assets/cards/response-red.png"/>
 &lt;/item>
 &lt;startviewport rect="0,0,1280,720"/>
 &lt;endviewport rect="0,0,1280,720"/>
 &lt;background color="0,0,0,0"/>
&lt;/kdenlivetitle>
</property>
  <property name="kdenlive:folderid">-1</property>
  <property name="kdenlive:id">52</property>
  <property name="force_reload">0</property>
  <property name="global_feed">1</property>
  <property name="kdenlive:file_hash">c07463a22122036a4de1ac1f090fa708</property>
  <property name="meta.media.width">1280</property>
  <property name="meta.media.height">720</property>
 </producer>
 <producer id="producer45" in="00:00:00.000" out="00:01:03.300">
  <property name="length">1900</property>
  <property name="eof">pause</property>
  <property name="resource"/>
  <property name="progressive">1</property>
  <property name="aspect_ratio">1</property>
  <property name="seekable">1</property>
  <property name="mlt_service">kdenlivetitle</property>
  <property name="kdenlive:duration">150</property>
  <property name="kdenlive:clipname">People only ...</property>
  <property name="xmldata">&lt;kdenlivetitle duration="150" LC_NUMERIC="C" width="1280" height="720" out="149">
 &lt;item type="QGraphicsTextItem" z-index="1">
  &lt;position x="225" y="160">
   &lt;transform>1,0,0,0,1,0,0,0,1&lt;/transform>
  &lt;/position>
  &lt;content line-spacing="0" shadow="0;#64000000;3;3;3" font-underline="0" box-height="70" font="Montserrat Black" letter-spacing="0" font-pixel-size="51" font-italic="0" typewriter="0;2;1;0;0" alignment="4" font-weight="50" box-width="830" font-color="255,255,255,255">People only care about power&lt;/content>
 &lt;/item>
 &lt;item type="QGraphicsPixmapItem" z-index="0">
  &lt;position x="160" y="0">
   &lt;transform>0.599917,0,0,0,0.599917,0,0,0,1&lt;/transform>
  &lt;/position>
  &lt;content url="D:/_Pics/!youtube/assets/cards/response-red.png"/>
 &lt;/item>
 &lt;startviewport rect="0,0,1280,720"/>
 &lt;endviewport rect="0,0,1280,720"/>
 &lt;background color="0,0,0,0"/>
&lt;/kdenlivetitle>
</property>
  <property name="kdenlive:folderid">-1</property>
  <property name="kdenlive:id">53</property>
  <property name="force_reload">0</property>
  <property name="global_feed">1</property>
  <property name="kdenlive:file_hash">d9c1414620e8466adea2fdcfc9fc1563</property>
  <property name="meta.media.width">1280</property>
  <property name="meta.media.height">720</property>
 </producer>
 <producer id="producer46" in="00:00:00.000" out="00:01:03.300">
  <property name="length">1900</property>
  <property name="eof">pause</property>
  <property name="resource"/>
  <property name="progressive">1</property>
  <property name="aspect_ratio">1</property>
  <property name="seekable">1</property>
  <property name="mlt_service">kdenlivetitle</property>
  <property name="kdenlive:duration">150</property>
  <property name="kdenlive:clipname">Evil people ...</property>
  <property name="xmldata">&lt;kdenlivetitle duration="150" LC_NUMERIC="C" width="1280" height="720" out="149">
 &lt;item type="QGraphicsTextItem" z-index="1">
  &lt;position x="253" y="160">
   &lt;transform>1,0,0,0,1,0,0,0,1&lt;/transform>
  &lt;/position>
  &lt;content line-spacing="0" shadow="0;#64000000;3;3;3" font-underline="0" box-height="350" font="Montserrat Black" letter-spacing="0" font-pixel-size="51" font-italic="0" typewriter="0;2;1;0;0" alignment="4" font-weight="50" box-width="773" font-color="255,255,255,255">Evil people (Hegelians) only
care about power, plenty of
people are not evil, and do
care about what is just over
what benefits them&lt;/content>
 &lt;/item>
 &lt;item type="QGraphicsPixmapItem" z-index="0">
  &lt;position x="160" y="0">
   &lt;transform>0.599917,0,0,0,0.599917,0,0,0,1&lt;/transform>
  &lt;/position>
  &lt;content url="D:/_Pics/!youtube/assets/cards/response-red.png"/>
 &lt;/item>
 &lt;startviewport rect="0,0,1280,720"/>
 &lt;endviewport rect="0,0,1280,720"/>
 &lt;background color="0,0,0,0"/>
&lt;/kdenlivetitle>
</property>
  <property name="kdenlive:folderid">-1</property>
  <property name="kdenlive:id">54</property>
  <property name="force_reload">0</property>
  <property name="global_feed">1</property>
  <property name="kdenlive:file_hash">c961a466cb1c2b428ec4609f7b5f915d</property>
  <property name="meta.media.width">1280</property>
  <property name="meta.media.height">720</property>
 </producer>
 <producer id="producer47" in="00:00:00.000" out="00:02:03.033">
  <property name="length">3692</property>
  <property name="eof">pause</property>
  <property name="resource"/>
  <property name="progressive">1</property>
  <property name="aspect_ratio">1</property>
  <property name="seekable">1</property>
  <property name="mlt_service">kdenlivetitle</property>
  <property name="kdenlive:duration">150</property>
  <property name="kdenlive:clipname">Is is litera...</property>
  <property name="xmldata">&lt;kdenlivetitle duration="150" LC_NUMERIC="C" width="1280" height="720" out="149">
 &lt;item type="QGraphicsTextItem" z-index="1">
  &lt;position x="266" y="180">
   &lt;transform>1,0,0,0,1,0,0,0,1&lt;/transform>
  &lt;/position>
  &lt;content line-spacing="0" shadow="0;#64000000;3;3;3" font-underline="0" box-height="210" font="Montserrat Black" letter-spacing="0" font-pixel-size="51" font-italic="0" typewriter="0;2;1;0;0" alignment="4" font-weight="50" box-width="747" font-color="255,255,255,255">Is is literally impossible for
Jack Dorsey to become an
ancap&lt;/content>
 &lt;/item>
 &lt;item type="QGraphicsPixmapItem" z-index="0">
  &lt;position x="160" y="0">
   &lt;transform>0.599917,0,0,0,0.599917,0,0,0,1&lt;/transform>
  &lt;/position>
  &lt;content url="D:/_Pics/!youtube/assets/cards/question-purple.png"/>
 &lt;/item>
 &lt;startviewport rect="0,0,1280,720"/>
 &lt;endviewport rect="0,0,1280,720"/>
 &lt;background color="0,0,0,0"/>
&lt;/kdenlivetitle>
</property>
  <property name="kdenlive:folderid">-1</property>
  <property name="kdenlive:id">55</property>
  <property name="force_reload">0</property>
  <property name="global_feed">1</property>
  <property name="kdenlive:file_hash">7fa73bcdbf96069c335e6bd76ea5a04c</property>
  <property name="meta.media.width">1280</property>
  <property name="meta.media.height">720</property>
 </producer>
 <producer id="producer48" in="00:00:00.000" out="00:01:03.300">
  <property name="length">1900</property>
  <property name="eof">pause</property>
  <property name="resource"/>
  <property name="progressive">1</property>
  <property name="aspect_ratio">1</property>
  <property name="seekable">1</property>
  <property name="mlt_service">kdenlivetitle</property>
  <property name="kdenlive:duration">150</property>
  <property name="kdenlive:clipname">There is no ...</property>
  <property name="xmldata">&lt;kdenlivetitle duration="150" LC_NUMERIC="C" width="1280" height="720" out="149">
 &lt;item type="QGraphicsTextItem" z-index="1">
  &lt;position x="229" y="160">
   &lt;transform>1,0,0,0,1,0,0,0,1&lt;/transform>
  &lt;/position>
  &lt;content line-spacing="0" shadow="0;#64000000;3;3;3" font-underline="0" box-height="280" font="Montserrat Black" letter-spacing="0" font-pixel-size="51" font-italic="0" typewriter="0;2;1;0;0" alignment="4" font-weight="50" box-width="822" font-color="255,255,255,255">There is no tangible benefit
to him becoming an ancap
(restating his thesis rather
than answering the question)&lt;/content>
 &lt;/item>
 &lt;item type="QGraphicsPixmapItem" z-index="0">
  &lt;position x="160" y="0">
   &lt;transform>0.599917,0,0,0,0.599917,0,0,0,1&lt;/transform>
  &lt;/position>
  &lt;content url="D:/_Pics/!youtube/assets/cards/response-red.png"/>
 &lt;/item>
 &lt;startviewport rect="0,0,1280,720"/>
 &lt;endviewport rect="0,0,1280,720"/>
 &lt;background color="0,0,0,0"/>
&lt;/kdenlivetitle>
</property>
  <property name="kdenlive:folderid">-1</property>
  <property name="kdenlive:id">56</property>
  <property name="force_reload">0</property>
  <property name="global_feed">1</property>
  <property name="kdenlive:file_hash">1f4a6cbff74c2e5367721f972716dccc</property>
  <property name="meta.media.width">1280</property>
  <property name="meta.media.height">720</property>
 </producer>
 <producer id="producer49" in="00:00:00.000" out="00:01:03.300">
  <property name="length">1900</property>
  <property name="eof">pause</property>
  <property name="resource"/>
  <property name="progressive">1</property>
  <property name="aspect_ratio">1</property>
  <property name="seekable">1</property>
  <property name="mlt_service">kdenlivetitle</property>
  <property name="kdenlive:duration">150</property>
  <property name="kdenlive:clipname">Most people ...</property>
  <property name="xmldata">&lt;kdenlivetitle duration="150" LC_NUMERIC="C" width="1280" height="720" out="149">
 &lt;item type="QGraphicsTextItem" z-index="1">
  &lt;position x="250" y="160">
   &lt;transform>1,0,0,0,1,0,0,0,1&lt;/transform>
  &lt;/position>
  &lt;content line-spacing="0" shadow="0;#64000000;3;3;3" font-underline="0" box-height="280" font="Montserrat Black" letter-spacing="0" font-pixel-size="51" font-italic="0" typewriter="0;2;1;0;0" alignment="4" font-weight="50" box-width="780" font-color="255,255,255,255">Most people are not able to
choose what they believe in
based on what would make
them the most money&lt;/content>
 &lt;/item>
 &lt;item type="QGraphicsPixmapItem" z-index="0">
  &lt;position x="160" y="0">
   &lt;transform>0.599917,0,0,0,0.599917,0,0,0,1&lt;/transform>
  &lt;/position>
  &lt;content url="D:/_Pics/!youtube/assets/cards/response-red.png"/>
 &lt;/item>
 &lt;startviewport rect="0,0,1280,720"/>
 &lt;endviewport rect="0,0,1280,720"/>
 &lt;background color="0,0,0,0"/>
&lt;/kdenlivetitle>
</property>
  <property name="kdenlive:folderid">-1</property>
  <property name="kdenlive:id">57</property>
  <property name="force_reload">0</property>
  <property name="global_feed">1</property>
  <property name="kdenlive:file_hash">33599c896b96c1d34cfb25d276c617d3</property>
  <property name="meta.media.width">1280</property>
  <property name="meta.media.height">720</property>
 </producer>
 <producer id="producer50" in="00:00:00.000" out="00:01:05.633">
  <property name="length">1970</property>
  <property name="eof">pause</property>
  <property name="resource"/>
  <property name="progressive">1</property>
  <property name="aspect_ratio">1</property>
  <property name="seekable">1</property>
  <property name="mlt_service">kdenlivetitle</property>
  <property name="kdenlive:duration">150</property>
  <property name="kdenlive:clipname">I'm not sayi...</property>
  <property name="xmldata">&lt;kdenlivetitle duration="150" LC_NUMERIC="C" width="1280" height="720" out="149">
 &lt;item type="QGraphicsTextItem" z-index="1">
  &lt;position x="218" y="160">
   &lt;transform>1,0,0,0,1,0,0,0,1&lt;/transform>
  &lt;/position>
  &lt;content line-spacing="0" shadow="0;#64000000;3;3;3" font-underline="0" box-height="490" font="Montserrat Black" letter-spacing="0" font-pixel-size="51" font-italic="0" typewriter="0;2;1;0;0" alignment="4" font-weight="50" box-width="844" font-color="255,255,255,255">I'm not saying that
(he is though, becoming an
ancap requires believing
in anarcho-capitalism and he
is saying that Jack Dorsey
will choose to not take up this
belief)&lt;/content>
 &lt;/item>
 &lt;item type="QGraphicsPixmapItem" z-index="0">
  &lt;position x="160" y="0">
   &lt;transform>0.599917,0,0,0,0.599917,0,0,0,1&lt;/transform>
  &lt;/position>
  &lt;content url="D:/_Pics/!youtube/assets/cards/response-red.png"/>
 &lt;/item>
 &lt;startviewport rect="0,0,1280,720"/>
 &lt;endviewport rect="0,0,1280,720"/>
 &lt;background color="0,0,0,0"/>
&lt;/kdenlivetitle>
</property>
  <property name="kdenlive:folderid">-1</property>
  <property name="kdenlive:id">58</property>
  <property name="force_reload">0</property>
  <property name="global_feed">1</property>
  <property name="kdenlive:file_hash">d0cae1b3d8b6f40a0dd096abc7095034</property>
  <property name="meta.media.width">1280</property>
  <property name="meta.media.height">720</property>
 </producer>
 <producer id="producer51" in="00:00:00.000" out="00:01:05.800">
  <property name="length">1975</property>
  <property name="eof">pause</property>
  <property name="resource"/>
  <property name="progressive">1</property>
  <property name="aspect_ratio">1</property>
  <property name="seekable">1</property>
  <property name="mlt_service">kdenlivetitle</property>
  <property name="kdenlive:duration">150</property>
  <property name="kdenlive:clipname">If you could...</property>
  <property name="xmldata">&lt;kdenlivetitle duration="150" LC_NUMERIC="C" width="1280" height="720" out="149">
 &lt;item type="QGraphicsTextItem" z-index="1">
  &lt;position x="232" y="180">
   &lt;transform>1,0,0,0,1,0,0,0,1&lt;/transform>
  &lt;/position>
  &lt;content line-spacing="0" shadow="0;#64000000;3;3;3" font-underline="0" box-height="280" font="Montserrat Black" letter-spacing="0" font-pixel-size="51" font-italic="0" typewriter="0;2;1;0;0" alignment="4" font-weight="50" box-width="815" font-color="255,255,255,255">If you could pay $10 and as
a result no paedophile would
ever be born again would
you take that deal&lt;/content>
 &lt;/item>
 &lt;item type="QGraphicsPixmapItem" z-index="0">
  &lt;position x="160" y="0">
   &lt;transform>0.599917,0,0,0,0.599917,0,0,0,1&lt;/transform>
  &lt;/position>
  &lt;content url="D:/_Pics/!youtube/assets/cards/question-purple.png"/>
 &lt;/item>
 &lt;startviewport rect="0,0,1280,720"/>
 &lt;endviewport rect="0,0,1280,720"/>
 &lt;background color="0,0,0,0"/>
&lt;/kdenlivetitle>
</property>
  <property name="kdenlive:folderid">-1</property>
  <property name="kdenlive:id">59</property>
  <property name="force_reload">0</property>
  <property name="global_feed">1</property>
  <property name="kdenlive:file_hash">e76ba41ebb44773f740a137468fe17d2</property>
  <property name="meta.media.width">1280</property>
  <property name="meta.media.height">720</property>
 </producer>
 <producer id="producer52" in="00:00:00.000" out="00:01:05.800">
  <property name="length">1975</property>
  <property name="eof">pause</property>
  <property name="resource"/>
  <property name="progressive">1</property>
  <property name="aspect_ratio">1</property>
  <property name="seekable">1</property>
  <property name="mlt_service">kdenlivetitle</property>
  <property name="kdenlive:duration">150</property>
  <property name="kdenlive:clipname">Why is monar...</property>
  <property name="xmldata">&lt;kdenlivetitle duration="150" LC_NUMERIC="C" width="1280" height="720" out="149">
 &lt;item type="QGraphicsTextItem" z-index="1">
  &lt;position x="240" y="180">
   &lt;transform>1,0,0,0,1,0,0,0,1&lt;/transform>
  &lt;/position>
  &lt;content line-spacing="0" shadow="0;#64000000;3;3;3" font-underline="0" box-height="140" font="Montserrat Black" letter-spacing="0" font-pixel-size="51" font-italic="0" typewriter="0;2;1;0;0" alignment="4" font-weight="50" box-width="800" font-color="255,255,255,255">Why is monarchism superior
to democratism&lt;/content>
 &lt;/item>
 &lt;item type="QGraphicsPixmapItem" z-index="0">
  &lt;position x="160" y="0">
   &lt;transform>0.599917,0,0,0,0.599917,0,0,0,1&lt;/transform>
  &lt;/position>
  &lt;content url="D:/_Pics/!youtube/assets/cards/question-purple.png"/>
 &lt;/item>
 &lt;startviewport rect="0,0,1280,720"/>
 &lt;endviewport rect="0,0,1280,720"/>
 &lt;background color="0,0,0,0"/>
&lt;/kdenlivetitle>
</property>
  <property name="kdenlive:folderid">-1</property>
  <property name="kdenlive:id">60</property>
  <property name="force_reload">0</property>
  <property name="global_feed">1</property>
  <property name="kdenlive:file_hash">36d27564791cc8766e89c32b5195cda1</property>
  <property name="meta.media.width">1280</property>
  <property name="meta.media.height">720</property>
 </producer>
 <producer id="producer53" in="00:00:00.000" out="00:01:03.300">
  <property name="length">1900</property>
  <property name="eof">pause</property>
  <property name="resource"/>
  <property name="progressive">1</property>
  <property name="aspect_ratio">1</property>
  <property name="seekable">1</property>
  <property name="mlt_service">kdenlivetitle</property>
  <property name="kdenlive:duration">150</property>
  <property name="kdenlive:clipname">Democracy is...</property>
  <property name="xmldata">&lt;kdenlivetitle duration="150" LC_NUMERIC="C" width="1280" height="720" out="149">
 &lt;item type="QGraphicsTextItem" z-index="1">
  &lt;position x="206" y="160">
   &lt;transform>1,0,0,0,1,0,0,0,1&lt;/transform>
  &lt;/position>
  &lt;content line-spacing="0" shadow="0;#64000000;3;3;3" font-underline="0" box-height="420" font="Montserrat Black" letter-spacing="0" font-pixel-size="51" font-italic="0" typewriter="0;2;1;0;0" alignment="4" font-weight="50" box-width="837" font-color="255,255,255,255">Democracy is a failed system,
it creates an oligarchical class
that gains control of every
aspect of power
(I'll take "a description of the
state" for 500)&lt;/content>
 &lt;/item>
 &lt;item type="QGraphicsPixmapItem" z-index="0">
  &lt;position x="160" y="0">
   &lt;transform>0.599917,0,0,0,0.599917,0,0,0,1&lt;/transform>
  &lt;/position>
  &lt;content url="D:/_Pics/!youtube/assets/cards/response-red.png"/>
 &lt;/item>
 &lt;startviewport rect="0,0,1280,720"/>
 &lt;endviewport rect="0,0,1280,720"/>
 &lt;background color="0,0,0,0"/>
&lt;/kdenlivetitle>
</property>
  <property name="kdenlive:folderid">-1</property>
  <property name="kdenlive:id">61</property>
  <property name="force_reload">0</property>
  <property name="global_feed">1</property>
  <property name="kdenlive:file_hash">7652248c1d94aa74789e8e583d99a5f4</property>
  <property name="meta.media.width">1280</property>
  <property name="meta.media.height">720</property>
 </producer>
 <producer id="producer54" in="00:00:00.000" out="00:00:04.967">
  <property name="length">150</property>
  <property name="eof">pause</property>
  <property name="resource"/>
  <property name="progressive">1</property>
  <property name="aspect_ratio">1</property>
  <property name="seekable">1</property>
  <property name="mlt_service">kdenlivetitle</property>
  <property name="kdenlive:duration">150</property>
  <property name="kdenlive:clipname">(then fuckin...</property>
  <property name="xmldata">&lt;kdenlivetitle duration="150" LC_NUMERIC="C" width="1280" height="720" out="149">
 &lt;item type="QGraphicsTextItem" z-index="0">
  &lt;position x="442" y="331">
   &lt;transform>1,0,0,0,1,0,0,0,1&lt;/transform>
  &lt;/position>
  &lt;content line-spacing="0" shadow="0;#64000000;3;3;3" font-underline="0" box-height="58" font-outline-color="0,0,0,255" font="Montserrat Black" letter-spacing="0" font-pixel-size="42" font-italic="0" typewriter="0;2;1;0;0" alignment="4" font-weight="50" font-outline="2" box-width="396" font-color="255,255,255,255">(then fucking do)&lt;/content>
 &lt;/item>
 &lt;startviewport rect="0,0,1280,720"/>
 &lt;endviewport rect="0,0,1280,720"/>
 &lt;background color="0,0,0,0"/>
&lt;/kdenlivetitle>
</property>
  <property name="kdenlive:folderid">-1</property>
  <property name="kdenlive:id">62</property>
  <property name="force_reload">0</property>
  <property name="global_feed">1</property>
  <property name="kdenlive:file_hash">a9d39f44f663bae0453cd07949197c73</property>
  <property name="meta.media.width">1280</property>
  <property name="meta.media.height">720</property>
 </producer>
 <producer id="producer55" in="00:00:00.000" out="00:02:03.033">
  <property name="length">3692</property>
  <property name="eof">pause</property>
  <property name="resource"/>
  <property name="progressive">1</property>
  <property name="aspect_ratio">1</property>
  <property name="seekable">1</property>
  <property name="mlt_service">kdenlivetitle</property>
  <property name="kdenlive:duration">150</property>
  <property name="kdenlive:clipname">What is the ...</property>
  <property name="xmldata">&lt;kdenlivetitle duration="150" LC_NUMERIC="C" width="1280" height="720" out="149">
 &lt;item type="QGraphicsTextItem" z-index="1">
  &lt;position x="224" y="180">
   &lt;transform>1,0,0,0,1,0,0,0,1&lt;/transform>
  &lt;/position>
  &lt;content line-spacing="0" shadow="0;#64000000;3;3;3" font-underline="0" box-height="140" font="Montserrat Black" letter-spacing="0" font-pixel-size="51" font-italic="0" typewriter="0;2;1;0;0" alignment="4" font-weight="50" box-width="832" font-color="255,255,255,255">What is the problem with this
oligarchical class&lt;/content>
 &lt;/item>
 &lt;item type="QGraphicsPixmapItem" z-index="0">
  &lt;position x="160" y="0">
   &lt;transform>0.599917,0,0,0,0.599917,0,0,0,1&lt;/transform>
  &lt;/position>
  &lt;content url="D:/_Pics/!youtube/assets/cards/question-purple.png"/>
 &lt;/item>
 &lt;startviewport rect="0,0,1280,720"/>
 &lt;endviewport rect="0,0,1280,720"/>
 &lt;background color="0,0,0,0"/>
&lt;/kdenlivetitle>
</property>
  <property name="kdenlive:folderid">-1</property>
  <property name="kdenlive:id">63</property>
  <property name="force_reload">0</property>
  <property name="global_feed">1</property>
  <property name="kdenlive:file_hash">1fc02d6b7886d878f0ed9e778d66c0dc</property>
  <property name="meta.media.width">1280</property>
  <property name="meta.media.height">720</property>
 </producer>
 <producer id="producer56" in="00:00:00.000" out="00:01:03.300">
  <property name="length">1900</property>
  <property name="eof">pause</property>
  <property name="resource"/>
  <property name="progressive">1</property>
  <property name="aspect_ratio">1</property>
  <property name="seekable">1</property>
  <property name="mlt_service">kdenlivetitle</property>
  <property name="kdenlive:duration">150</property>
  <property name="kdenlive:clipname">They pretend...</property>
  <property name="xmldata">&lt;kdenlivetitle duration="150" LC_NUMERIC="C" width="1280" height="720" out="149">
 &lt;item type="QGraphicsTextItem" z-index="1">
  &lt;position x="203" y="160">
   &lt;transform>1,0,0,0,1,0,0,0,1&lt;/transform>
  &lt;/position>
  &lt;content line-spacing="0" shadow="0;#64000000;3;3;3" font-underline="0" box-height="210" font="Montserrat Black" letter-spacing="0" font-pixel-size="51" font-italic="0" typewriter="0;2;1;0;0" alignment="4" font-weight="50" box-width="874" font-color="255,255,255,255">They pretend that they don't
have power when they actually
do&lt;/content>
 &lt;/item>
 &lt;item type="QGraphicsPixmapItem" z-index="0">
  &lt;position x="160" y="0">
   &lt;transform>0.599917,0,0,0,0.599917,0,0,0,1&lt;/transform>
  &lt;/position>
  &lt;content url="D:/_Pics/!youtube/assets/cards/response-red.png"/>
 &lt;/item>
 &lt;startviewport rect="0,0,1280,720"/>
 &lt;endviewport rect="0,0,1280,720"/>
 &lt;background color="0,0,0,0"/>
&lt;/kdenlivetitle>
</property>
  <property name="kdenlive:folderid">-1</property>
  <property name="kdenlive:id">64</property>
  <property name="force_reload">0</property>
  <property name="global_feed">1</property>
  <property name="kdenlive:file_hash">cb8896efc965bf741b4ab8e7b0ca620e</property>
  <property name="meta.media.width">1280</property>
  <property name="meta.media.height">720</property>
 </producer>
 <producer id="producer57" in="00:00:00.000" out="00:01:03.300">
  <property name="length">1900</property>
  <property name="eof">pause</property>
  <property name="resource"/>
  <property name="progressive">1</property>
  <property name="aspect_ratio">1</property>
  <property name="seekable">1</property>
  <property name="mlt_service">kdenlivetitle</property>
  <property name="kdenlive:duration">150</property>
  <property name="kdenlive:clipname">Every presid...</property>
  <property name="xmldata">&lt;kdenlivetitle duration="150" LC_NUMERIC="C" width="1280" height="720" out="149">
 &lt;item type="QGraphicsTextItem" z-index="1">
  &lt;position x="227" y="160">
   &lt;transform>1,0,0,0,1,0,0,0,1&lt;/transform>
  &lt;/position>
  &lt;content line-spacing="0" shadow="0;#64000000;3;3;3" font-underline="0" box-height="210" font="Montserrat Black" letter-spacing="0" font-pixel-size="51" font-italic="0" typewriter="0;2;1;0;0" alignment="4" font-weight="50" box-width="825" font-color="255,255,255,255">Every president does act as if
they have power, signing
executive orders and the like.&lt;/content>
 &lt;/item>
 &lt;item type="QGraphicsPixmapItem" z-index="0">
  &lt;position x="160" y="0">
   &lt;transform>0.599917,0,0,0,0.599917,0,0,0,1&lt;/transform>
  &lt;/position>
  &lt;content url="D:/_Pics/!youtube/assets/cards/response-red.png"/>
 &lt;/item>
 &lt;startviewport rect="0,0,1280,720"/>
 &lt;endviewport rect="0,0,1280,720"/>
 &lt;background color="0,0,0,0"/>
&lt;/kdenlivetitle>
</property>
  <property name="kdenlive:folderid">-1</property>
  <property name="kdenlive:id">65</property>
  <property name="force_reload">0</property>
  <property name="global_feed">1</property>
  <property name="kdenlive:file_hash">9b064790c919e501678bc6fd13a9c40b</property>
  <property name="meta.media.width">1280</property>
  <property name="meta.media.height">720</property>
 </producer>
 <producer id="producer58" in="00:00:00.000" out="00:02:03.033">
  <property name="length">3692</property>
  <property name="eof">pause</property>
  <property name="resource"/>
  <property name="progressive">1</property>
  <property name="aspect_ratio">1</property>
  <property name="seekable">1</property>
  <property name="mlt_service">kdenlivetitle</property>
  <property name="kdenlive:duration">150</property>
  <property name="kdenlive:clipname">Is your only...</property>
  <property name="xmldata">&lt;kdenlivetitle duration="150" LC_NUMERIC="C" width="1280" height="720" out="149">
 &lt;item type="QGraphicsTextItem" z-index="1">
  &lt;position x="254" y="180">
   &lt;transform>1,0,0,0,1,0,0,0,1&lt;/transform>
  &lt;/position>
  &lt;content line-spacing="0" shadow="0;#64000000;3;3;3" font-underline="0" box-height="420" font="Montserrat Black" letter-spacing="0" font-pixel-size="51" font-italic="0" typewriter="0;2;1;0;0" alignment="4" font-weight="50" box-width="771" font-color="255,255,255,255">Is your only problem with
democracy the framing of
"power to the people," have
you no qualms with the
economics or the ethics of
democracy&lt;/content>
 &lt;/item>
 &lt;item type="QGraphicsPixmapItem" z-index="0">
  &lt;position x="160" y="0">
   &lt;transform>0.599917,0,0,0,0.599917,0,0,0,1&lt;/transform>
  &lt;/position>
  &lt;content url="D:/_Pics/!youtube/assets/cards/question-purple.png"/>
 &lt;/item>
 &lt;startviewport rect="0,0,1280,720"/>
 &lt;endviewport rect="0,0,1280,720"/>
 &lt;background color="0,0,0,0"/>
&lt;/kdenlivetitle>
</property>
  <property name="kdenlive:folderid">-1</property>
  <property name="kdenlive:id">66</property>
  <property name="force_reload">0</property>
  <property name="global_feed">1</property>
  <property name="kdenlive:file_hash">672fe4bb3ff2600ed0ccdb54cbba2be8</property>
  <property name="meta.media.width">1280</property>
  <property name="meta.media.height">720</property>
 </producer>
 <producer id="producer59" in="00:00:00.000" out="00:01:03.300">
  <property name="length">1900</property>
  <property name="eof">pause</property>
  <property name="resource"/>
  <property name="progressive">1</property>
  <property name="aspect_ratio">1</property>
  <property name="seekable">1</property>
  <property name="mlt_service">kdenlivetitle</property>
  <property name="kdenlive:duration">150</property>
  <property name="kdenlive:clipname">There are ma...</property>
  <property name="xmldata">&lt;kdenlivetitle duration="150" LC_NUMERIC="C" width="1280" height="720" out="149">
 &lt;item type="QGraphicsTextItem" z-index="1">
  &lt;position x="258" y="160">
   &lt;transform>1,0,0,0,1,0,0,0,1&lt;/transform>
  &lt;/position>
  &lt;content line-spacing="0" shadow="0;#64000000;3;3;3" font-underline="0" box-height="350" font="Montserrat Black" letter-spacing="0" font-pixel-size="51" font-italic="0" typewriter="0;2;1;0;0" alignment="4" font-weight="50" box-width="764" font-color="255,255,255,255">There are many issues with
democracy, Hoppe is
correct when he says that
democracy is a soft form of
communism&lt;/content>
 &lt;/item>
 &lt;item type="QGraphicsPixmapItem" z-index="0">
  &lt;position x="160" y="0">
   &lt;transform>0.599917,0,0,0,0.599917,0,0,0,1&lt;/transform>
  &lt;/position>
  &lt;content url="D:/_Pics/!youtube/assets/cards/response-red.png"/>
 &lt;/item>
 &lt;startviewport rect="0,0,1280,720"/>
 &lt;endviewport rect="0,0,1280,720"/>
 &lt;background color="0,0,0,0"/>
&lt;/kdenlivetitle>
</property>
  <property name="kdenlive:folderid">-1</property>
  <property name="kdenlive:id">67</property>
  <property name="force_reload">0</property>
  <property name="global_feed">1</property>
  <property name="kdenlive:file_hash">3a65f9c1e5f402997e35e8adbd37355e</property>
  <property name="meta.media.width">1280</property>
  <property name="meta.media.height">720</property>
 </producer>
 <producer id="producer60" in="00:00:00.000" out="00:01:05.800">
  <property name="length">1975</property>
  <property name="eof">pause</property>
  <property name="resource"/>
  <property name="progressive">1</property>
  <property name="aspect_ratio">1</property>
  <property name="seekable">1</property>
  <property name="mlt_service">kdenlivetitle</property>
  <property name="kdenlive:duration">150</property>
  <property name="kdenlive:clipname">Do you agree...</property>
  <property name="xmldata">&lt;kdenlivetitle duration="150" LC_NUMERIC="C" width="1280" height="720" out="149">
 &lt;item type="QGraphicsTextItem" z-index="1">
  &lt;position x="266" y="180">
   &lt;transform>1,0,0,0,1,0,0,0,1&lt;/transform>
  &lt;/position>
  &lt;content line-spacing="0" shadow="0;#64000000;3;3;3" font-underline="0" box-height="210" font="Montserrat Black" letter-spacing="0" font-pixel-size="51" font-italic="0" typewriter="0;2;1;0;0" alignment="4" font-weight="50" box-width="747" font-color="255,255,255,255">Do you agree with Hoppe's
argument against
democracy&lt;/content>
 &lt;/item>
 &lt;item type="QGraphicsPixmapItem" z-index="0">
  &lt;position x="160" y="0">
   &lt;transform>0.599917,0,0,0,0.599917,0,0,0,1&lt;/transform>
  &lt;/position>
  &lt;content url="D:/_Pics/!youtube/assets/cards/question-purple.png"/>
 &lt;/item>
 &lt;startviewport rect="0,0,1280,720"/>
 &lt;endviewport rect="0,0,1280,720"/>
 &lt;background color="0,0,0,0"/>
&lt;/kdenlivetitle>
</property>
  <property name="kdenlive:folderid">-1</property>
  <property name="kdenlive:id">68</property>
  <property name="force_reload">0</property>
  <property name="global_feed">1</property>
  <property name="kdenlive:file_hash">1503b21131d320dc556a61baa8f358a8</property>
  <property name="meta.media.width">1280</property>
  <property name="meta.media.height">720</property>
 </producer>
 <producer id="producer61" in="00:00:00.000" out="00:01:03.300">
  <property name="length">1900</property>
  <property name="eof">pause</property>
  <property name="resource"/>
  <property name="progressive">1</property>
  <property name="aspect_ratio">1</property>
  <property name="seekable">1</property>
  <property name="mlt_service">kdenlivetitle</property>
  <property name="kdenlive:duration">150</property>
  <property name="kdenlive:clipname">I do agree w...</property>
  <property name="xmldata">&lt;kdenlivetitle duration="150" LC_NUMERIC="C" width="1280" height="720" out="149">
 &lt;item type="QGraphicsTextItem" z-index="1">
  &lt;position x="229" y="160">
   &lt;transform>1,0,0,0,1,0,0,0,1&lt;/transform>
  &lt;/position>
  &lt;content line-spacing="0" shadow="0;#64000000;3;3;3" font-underline="0" box-height="140" font="Montserrat Black" letter-spacing="0" font-pixel-size="51" font-italic="0" typewriter="0;2;1;0;0" alignment="4" font-weight="50" box-width="821" font-color="255,255,255,255">I do agree with Hoppe's
argument against democracy&lt;/content>
 &lt;/item>
 &lt;item type="QGraphicsPixmapItem" z-index="0">
  &lt;position x="160" y="0">
   &lt;transform>0.599917,0,0,0,0.599917,0,0,0,1&lt;/transform>
  &lt;/position>
  &lt;content url="D:/_Pics/!youtube/assets/cards/response-red.png"/>
 &lt;/item>
 &lt;startviewport rect="0,0,1280,720"/>
 &lt;endviewport rect="0,0,1280,720"/>
 &lt;background color="0,0,0,0"/>
&lt;/kdenlivetitle>
</property>
  <property name="kdenlive:folderid">-1</property>
  <property name="kdenlive:id">69</property>
  <property name="force_reload">0</property>
  <property name="global_feed">1</property>
  <property name="kdenlive:file_hash">3085be84db99325d9e8dc273bf610fb7</property>
  <property name="meta.media.width">1280</property>
  <property name="meta.media.height">720</property>
 </producer>
 <producer id="producer62" in="00:00:00.000" out="00:01:03.300">
  <property name="length">1900</property>
  <property name="eof">pause</property>
  <property name="resource"/>
  <property name="progressive">1</property>
  <property name="aspect_ratio">1</property>
  <property name="seekable">1</property>
  <property name="mlt_service">kdenlivetitle</property>
  <property name="kdenlive:duration">150</property>
  <property name="kdenlive:clipname">Agreement wi...</property>
  <property name="xmldata">&lt;kdenlivetitle duration="150" LC_NUMERIC="C" width="1280" height="720" out="149">
 &lt;item type="QGraphicsTextItem" z-index="1">
  &lt;position x="225" y="160">
   &lt;transform>1,0,0,0,1,0,0,0,1&lt;/transform>
  &lt;/position>
  &lt;content line-spacing="0" shadow="0;#64000000;3;3;3" font-underline="0" box-height="490" font="Montserrat Black" letter-spacing="0" font-pixel-size="51" font-italic="0" typewriter="0;2;1;0;0" alignment="4" font-weight="50" box-width="830" font-color="255,255,255,255">Agreement with Hoppe's
argument against democracy
entails an agreement with his
argument against monarchy
as it is the same argument
(video coming soon, check
the card top right)&lt;/content>
 &lt;/item>
 &lt;item type="QGraphicsPixmapItem" z-index="0">
  &lt;position x="160" y="0">
   &lt;transform>0.599917,0,0,0,0.599917,0,0,0,1&lt;/transform>
  &lt;/position>
  &lt;content url="D:/_Pics/!youtube/assets/cards/response-red.png"/>
 &lt;/item>
 &lt;startviewport rect="0,0,1280,720"/>
 &lt;endviewport rect="0,0,1280,720"/>
 &lt;background color="0,0,0,0"/>
&lt;/kdenlivetitle>
</property>
  <property name="kdenlive:folderid">-1</property>
  <property name="kdenlive:id">70</property>
  <property name="force_reload">0</property>
  <property name="global_feed">1</property>
  <property name="kdenlive:file_hash">7ed9dd7ee28c163e3291cf8a33bcb7ca</property>
  <property name="meta.media.width">1280</property>
  <property name="meta.media.height">720</property>
 </producer>
 <producer id="producer63" in="00:00:00.000" out="00:01:10.567">
  <property name="length">2118</property>
  <property name="eof">pause</property>
  <property name="resource"/>
  <property name="progressive">1</property>
  <property name="aspect_ratio">1</property>
  <property name="seekable">1</property>
  <property name="mlt_service">kdenlivetitle</property>
  <property name="kdenlive:duration">150</property>
  <property name="kdenlive:clipname">Hoppe is not...</property>
  <property name="xmldata">&lt;kdenlivetitle duration="150" LC_NUMERIC="C" width="1280" height="720" out="149">
 &lt;item type="QGraphicsTextItem" z-index="1">
  &lt;position x="283" y="160">
   &lt;transform>1,0,0,0,1,0,0,0,1&lt;/transform>
  &lt;/position>
  &lt;content line-spacing="0" shadow="0;#64000000;3;3;3" font-underline="0" box-height="70" font="Montserrat Black" letter-spacing="0" font-pixel-size="51" font-italic="0" typewriter="0;2;1;0;0" alignment="4" font-weight="50" box-width="713" font-color="255,255,255,255">Hoppe is not an anarchist&lt;/content>
 &lt;/item>
 &lt;item type="QGraphicsPixmapItem" z-index="0">
  &lt;position x="160" y="0">
   &lt;transform>0.599917,0,0,0,0.599917,0,0,0,1&lt;/transform>
  &lt;/position>
  &lt;content url="D:/_Pics/!youtube/assets/cards/position-teal.png"/>
 &lt;/item>
 &lt;startviewport rect="0,0,1280,720"/>
 &lt;endviewport rect="0,0,1280,720"/>
 &lt;background color="0,0,0,0"/>
&lt;/kdenlivetitle>
</property>
  <property name="kdenlive:folderid">-1</property>
  <property name="kdenlive:id">71</property>
  <property name="force_reload">0</property>
  <property name="global_feed">1</property>
  <property name="kdenlive:file_hash">41ff1e149c883d5907d4ff80dbf51f70</property>
  <property name="meta.media.width">1280</property>
  <property name="meta.media.height">720</property>
 </producer>
 <producer id="producer64" in="00:00:00.000" out="00:01:03.300">
  <property name="length">1900</property>
  <property name="eof">pause</property>
  <property name="resource"/>
  <property name="progressive">1</property>
  <property name="aspect_ratio">1</property>
  <property name="seekable">1</property>
  <property name="mlt_service">kdenlivetitle</property>
  <property name="kdenlive:duration">150</property>
  <property name="kdenlive:clipname">Hoppe absolu...</property>
  <property name="xmldata">&lt;kdenlivetitle duration="150" LC_NUMERIC="C" width="1280" height="720" out="149">
 &lt;item type="QGraphicsTextItem" z-index="1">
  &lt;position x="324" y="160">
   &lt;transform>1,0,0,0,1,0,0,0,1&lt;/transform>
  &lt;/position>
  &lt;content line-spacing="0" shadow="0;#64000000;3;3;3" font-underline="0" box-height="140" font="Montserrat Black" letter-spacing="0" font-pixel-size="51" font-italic="0" typewriter="0;2;1;0;0" alignment="4" font-weight="50" box-width="632" font-color="255,255,255,255">Hoppe absolutely is an
anarchist&lt;/content>
 &lt;/item>
 &lt;item type="QGraphicsPixmapItem" z-index="0">
  &lt;position x="160" y="0">
   &lt;transform>0.599917,0,0,0,0.599917,0,0,0,1&lt;/transform>
  &lt;/position>
  &lt;content url="D:/_Pics/!youtube/assets/cards/response-red.png"/>
 &lt;/item>
 &lt;startviewport rect="0,0,1280,720"/>
 &lt;endviewport rect="0,0,1280,720"/>
 &lt;background color="0,0,0,0"/>
&lt;/kdenlivetitle>
</property>
  <property name="kdenlive:folderid">-1</property>
  <property name="kdenlive:id">72</property>
  <property name="force_reload">0</property>
  <property name="global_feed">1</property>
  <property name="kdenlive:file_hash">71b68530e5d0d85a868a303bf5424631</property>
  <property name="meta.media.width">1280</property>
  <property name="meta.media.height">720</property>
 </producer>
 <producer id="producer65" in="00:00:00.000" out="00:00:04.967">
  <property name="length">00:00:05.000</property>
  <property name="eof">pause</property>
  <property name="resource">econ-and-ethics-of-pp.jpg</property>
  <property name="ttl">25</property>
  <property name="aspect_ratio">1</property>
  <property name="progressive">1</property>
  <property name="seekable">1</property>
  <property name="meta.media.width">386</property>
  <property name="meta.media.height">500</property>
  <property name="mlt_service">qimage</property>
  <property name="kdenlive:clipname"/>
  <property name="kdenlive:duration">00:00:05.000</property>
  <property name="kdenlive:folderid">-1</property>
  <property name="kdenlive:id">73</property>
  <property name="kdenlive:file_size">60690</property>
  <property name="kdenlive:file_hash">7beba4ffb637f08489e7defbb45f39e7</property>
 </producer>
 <producer id="producer66" in="00:00:00.000" out="00:00:04.967">
  <property name="length">00:00:05.000</property>
  <property name="eof">pause</property>
  <property name="resource">D:/_Pics/!youtube/assets/people-pngs/Oswald Mosley.png</property>
  <property name="ttl">25</property>
  <property name="aspect_ratio">1</property>
  <property name="progressive">1</property>
  <property name="seekable">1</property>
  <property name="meta.media.width">220</property>
  <property name="meta.media.height">300</property>
  <property name="mlt_service">qimage</property>
  <property name="kdenlive:clipname"/>
  <property name="kdenlive:duration">00:00:05.000</property>
  <property name="kdenlive:folderid">-1</property>
  <property name="kdenlive:id">74</property>
  <property name="kdenlive:file_size">46500</property>
  <property name="kdenlive:file_hash">f658ae6c77917045e309fcc49679cfff</property>
 </producer>
 <playlist id="main_bin">
  <property name="kdenlive:docproperties.activeTrack">3</property>
  <property name="kdenlive:docproperties.audioChannels">2</property>
  <property name="kdenlive:docproperties.audioTarget">-1</property>
  <property name="kdenlive:docproperties.disablepreview">0</property>
  <property name="kdenlive:docproperties.documentid">1632669820799</property>
  <property name="kdenlive:docproperties.enableTimelineZone">0</property>
  <property name="kdenlive:docproperties.enableexternalproxy">0</property>
  <property name="kdenlive:docproperties.enableproxy">1</property>
  <property name="kdenlive:docproperties.externalproxyparams">../Sub;;S03.MP4;../Clip;;.MXF</property>
  <property name="kdenlive:docproperties.generateimageproxy">0</property>
  <property name="kdenlive:docproperties.generateproxy">0</property>
  <property name="kdenlive:docproperties.groups">[
    {
        "children": [
            {
                "data": "3:3889",
                "leaf": "clip",
                "type": "Leaf"
            },
            {
                "data": "2:3889",
                "leaf": "clip",
                "type": "Leaf"
            }
        ],
        "type": "Normal"
    },
    {
        "children": [
            {
                "data": "3:3783",
                "leaf": "clip",
                "type": "Leaf"
            },
            {
                "data": "2:3783",
                "leaf": "clip",
                "type": "Leaf"
            }
        ],
        "type": "Normal"
    },
    {
        "children": [
            {
                "data": "2:2785",
                "leaf": "clip",
                "type": "Leaf"
            },
            {
                "data": "3:2785",
                "leaf": "clip",
                "type": "Leaf"
            }
        ],
        "type": "Normal"
    },
    {
        "children": [
            {
                "data": "2:4350",
                "leaf": "clip",
                "type": "Leaf"
            },
            {
                "data": "3:4350",
                "leaf": "clip",
                "type": "Leaf"
            }
        ],
        "type": "Normal"
    },
    {
        "children": [
            {
                "data": "2:2243",
                "leaf": "clip",
                "type": "Leaf"
            },
            {
                "children": [
                    {
                        "data": "2:0",
                        "leaf": "clip",
                        "type": "Leaf"
                    },
                    {
                        "data": "3:0",
                        "leaf": "clip",
                        "type": "Leaf"
                    },
                    {
                        "data": "3:1233",
                        "leaf": "clip",
                        "type": "Leaf"
                    },
                    {
                        "data": "1:1225",
                        "leaf": "clip",
                        "type": "Leaf"
                    }
                ],
                "type": "Normal"
            },
            {
                "data": "3:2243",
                "leaf": "clip",
                "type": "Leaf"
            }
        ],
        "type": "Normal"
    },
    {
        "children": [
            {
                "data": "2:6351",
                "leaf": "clip",
                "type": "Leaf"
            },
            {
                "data": "3:6351",
                "leaf": "clip",
                "type": "Leaf"
            }
        ],
        "type": "Normal"
    },
    {
        "children": [
            {
                "data": "2:20551",
                "leaf": "clip",
                "type": "Leaf"
            },
            {
                "data": "3:20551",
                "leaf": "clip",
                "type": "Leaf"
            }
        ],
        "type": "Normal"
    },
    {
        "children": [
            {
                "data": "2:53366",
                "leaf": "clip",
                "type": "Leaf"
            },
            {
                "data": "5:53366",
                "leaf": "clip",
                "type": "Leaf"
            },
            {
                "data": "3:53366",
                "leaf": "clip",
                "type": "Leaf"
            }
        ],
        "type": "Selection"
    },
    {
        "children": [
            {
                "data": "3:5248",
                "leaf": "clip",
                "type": "Leaf"
            },
            {
                "data": "2:5248",
                "leaf": "clip",
                "type": "Leaf"
            }
        ],
        "type": "Normal"
    }
]
</property>
  <property name="kdenlive:docproperties.kdenliveversion">21.04.3</property>
  <property name="kdenlive:docproperties.position">53803</property>
  <property name="kdenlive:docproperties.previewextension"/>
  <property name="kdenlive:docproperties.previewparameters"/>
  <property name="kdenlive:docproperties.profile">atsc_720p_30</property>
  <property name="kdenlive:docproperties.proxyextension"/>
  <property name="kdenlive:docproperties.proxyimageminsize">2000</property>
  <property name="kdenlive:docproperties.proxyimagesize">800</property>
  <property name="kdenlive:docproperties.proxyminsize">1000</property>
  <property name="kdenlive:docproperties.proxyparams"/>
  <property name="kdenlive:docproperties.renderurl">debate.mp4</property>
  <property name="kdenlive:docproperties.scrollPos">13852</property>
  <property name="kdenlive:docproperties.seekOffset">30000</property>
  <property name="kdenlive:docproperties.version">1</property>
  <property name="kdenlive:docproperties.verticalzoom">1</property>
  <property name="kdenlive:docproperties.videoTarget">3</property>
  <property name="kdenlive:docproperties.zonein">0</property>
  <property name="kdenlive:docproperties.zoneout">13655</property>
  <property name="kdenlive:docproperties.zoom">10</property>
  <property name="kdenlive:expandedFolders"/>
  <property name="kdenlive:documentnotes"/>
  <property name="kdenlive:docproperties.renderaudioquality">192</property>
  <property name="kdenlive:docproperties.rendercategory">Generic (HD for web, mobile devices...)</property>
  <property name="kdenlive:docproperties.renderendguide">-1</property>
  <property name="kdenlive:docproperties.renderexportaudio">0</property>
  <property name="kdenlive:docproperties.renderfield">0</property>
  <property name="kdenlive:docproperties.renderguide">0</property>
  <property name="kdenlive:docproperties.renderplay">0</property>
  <property name="kdenlive:docproperties.renderprofile">MP4-H264/AAC</property>
  <property name="kdenlive:docproperties.renderquality">23</property>
  <property name="kdenlive:docproperties.renderratio">1</property>
  <property name="kdenlive:docproperties.renderrescale">0</property>
  <property name="kdenlive:docproperties.renderrescaleheight">360</property>
  <property name="kdenlive:docproperties.renderrescalewidth">640</property>
  <property name="kdenlive:docproperties.renderscanning">0</property>
  <property name="kdenlive:docproperties.renderspeed">2</property>
  <property name="kdenlive:docproperties.renderstartguide">-1</property>
  <property name="kdenlive:docproperties.rendertcoverlay">0</property>
  <property name="kdenlive:docproperties.rendertctype">0</property>
  <property name="kdenlive:docproperties.rendertwopass">0</property>
  <property name="kdenlive:docproperties.renderzone">1</property>
  <property name="xml_retain">1</property>
  <entry producer="producer0" in="00:00:00.000" out="00:48:23.433"/>
  <entry producer="producer1" in="00:00:00.000" out="00:00:01.867"/>
  <entry producer="producer2" in="00:00:00.000" out="00:00:04.967"/>
  <entry producer="producer3" in="00:00:00.000" out="00:48:23.433"/>
  <entry producer="producer4" in="00:00:00.000" out="00:00:04.967"/>
  <entry producer="producer5" in="00:00:00.000" out="00:00:04.967"/>
  <entry producer="producer6" in="00:00:00.000" out="00:00:06.133"/>
  <entry producer="producer7" in="00:00:00.000" out="00:00:11.367"/>
  <entry producer="producer8" in="00:00:00.000" out="00:00:06.000"/>
  <entry producer="producer9" in="00:00:00.000" out="00:00:05.100"/>
  <entry producer="producer10" in="00:00:00.000" out="00:31:18.967"/>
  <entry producer="producer11" in="00:00:00.000" out="00:00:04.967"/>
  <entry producer="producer12" in="00:00:00.000" out="00:00:04.967"/>
  <entry producer="producer13" in="00:00:00.000" out="00:00:04.967"/>
  <entry producer="producer14" in="00:00:00.000" out="00:00:04.967"/>
  <entry producer="producer15" in="00:00:00.000" out="00:00:04.967"/>
  <entry producer="producer16" in="00:00:00.000" out="00:00:04.967"/>
  <entry producer="producer17" in="00:00:00.000" out="00:00:04.967"/>
  <entry producer="producer18" in="00:00:00.000" out="00:01:05.800"/>
  <entry producer="producer19" in="00:00:00.000" out="00:01:03.300"/>
  <entry producer="producer20" in="00:00:00.000" out="00:01:05.800"/>
  <entry producer="producer21" in="00:00:00.000" out="00:01:03.300"/>
  <entry producer="producer22" in="00:00:00.000" out="00:01:05.800"/>
  <entry producer="producer23" in="00:00:00.000" out="00:01:03.300"/>
  <entry producer="producer24" in="00:00:00.000" out="00:01:05.800"/>
  <entry producer="producer25" in="00:00:00.000" out="00:01:03.300"/>
  <entry producer="producer26" in="00:00:00.000" out="00:01:05.800"/>
  <entry producer="producer27" in="00:00:00.000" out="00:01:03.300"/>
  <entry producer="producer28" in="00:00:00.000" out="00:01:03.300"/>
  <entry producer="producer29" in="00:00:00.000" out="00:01:05.800"/>
  <entry producer="producer30" in="00:00:00.000" out="00:01:03.300"/>
  <entry producer="producer31" in="00:00:00.000" out="00:01:05.800"/>
  <entry producer="producer32" in="00:00:00.000" out="00:01:10.567"/>
  <entry producer="producer33" in="00:00:00.000" out="00:01:05.800"/>
  <entry producer="producer34" in="00:00:00.000" out="00:01:03.300"/>
  <entry producer="producer35" in="00:00:00.000" out="00:01:05.800"/>
  <entry producer="producer36" in="00:00:00.000" out="00:00:04.967"/>
  <entry producer="producer37" in="00:00:00.000" out="00:01:03.300"/>
  <entry producer="producer38" in="00:00:00.000" out="00:01:03.300"/>
  <entry producer="producer39" in="00:00:00.000" out="00:01:03.300"/>
  <entry producer="producer40" in="00:00:00.000" out="00:01:03.300"/>
  <entry producer="producer41" in="00:00:00.000" out="00:01:38.000"/>
  <entry producer="producer42" in="00:00:00.000" out="00:01:03.300"/>
  <entry producer="producer43" in="00:00:00.000" out="00:01:03.300"/>
  <entry producer="producer44" in="00:00:00.000" out="00:01:03.300"/>
  <entry producer="producer45" in="00:00:00.000" out="00:01:03.300"/>
  <entry producer="producer46" in="00:00:00.000" out="00:01:03.300"/>
  <entry producer="producer47" in="00:00:00.000" out="00:02:03.033"/>
  <entry producer="producer48" in="00:00:00.000" out="00:01:03.300"/>
  <entry producer="producer49" in="00:00:00.000" out="00:01:03.300"/>
  <entry producer="producer50" in="00:00:00.000" out="00:01:03.300"/>
  <entry producer="producer51" in="00:00:00.000" out="00:01:05.800"/>
  <entry producer="producer52" in="00:00:00.000" out="00:01:05.800"/>
  <entry producer="producer53" in="00:00:00.000" out="00:01:03.300"/>
  <entry producer="producer54" in="00:00:00.000" out="00:00:04.967"/>
  <entry producer="producer55" in="00:00:00.000" out="00:02:03.033"/>
  <entry producer="producer56" in="00:00:00.000" out="00:01:03.300"/>
  <entry producer="producer57" in="00:00:00.000" out="00:01:03.300"/>
  <entry producer="producer58" in="00:00:00.000" out="00:02:03.033"/>
  <entry producer="producer59" in="00:00:00.000" out="00:01:03.300"/>
  <entry producer="producer60" in="00:00:00.000" out="00:01:05.800"/>
  <entry producer="producer61" in="00:00:00.000" out="00:01:03.300"/>
  <entry producer="producer62" in="00:00:00.000" out="00:01:03.300"/>
  <entry producer="producer63" in="00:00:00.000" out="00:01:10.567"/>
  <entry producer="producer64" in="00:00:00.000" out="00:01:03.300"/>
  <entry producer="producer65" in="00:00:00.000" out="00:00:04.967"/>
  <entry producer="producer66" in="00:00:00.000" out="00:00:04.967"/>
 </playlist>
 <producer id="black_track" in="00:00:00.000" out="00:47:41.567">
  <property name="length">2147483647</property>
  <property name="eof">continue</property>
  <property name="resource">black</property>
  <property name="aspect_ratio">1</property>
  <property name="mlt_service">color</property>
  <property name="mlt_image_format">rgb24a</property>
  <property name="set.test_audio">0</property>
 </producer>
 <producer id="producer67" in="00:00:00.000" out="00:00:01.867">
  <property name="length">57</property>
  <property name="eof">pause</property>
  <property name="resource">E:/vids_large/!yt buisiness/.sound fx/Swoosh 1-SoundBible.com-231145780.wav</property>
  <property name="meta.media.nb_streams">1</property>
  <property name="meta.media.0.stream.type">audio</property>
  <property name="meta.media.0.codec.sample_fmt">s16</property>
  <property name="meta.media.0.codec.sample_rate">44100</property>
  <property name="meta.media.0.codec.channels">2</property>
  <property name="meta.media.0.codec.name">pcm_s16le</property>
  <property name="meta.media.0.codec.long_name">PCM signed 16-bit little-endian</property>
  <property name="meta.media.0.codec.bit_rate">1411200</property>
  <property name="seekable">1</property>
  <property name="audio_index">0</property>
  <property name="video_index">-1</property>
  <property name="mute_on_pause">0</property>
  <property name="mlt_service">avformat-novalidate</property>
  <property name="kdenlive:clipname"/>
  <property name="kdenlive:folderid">-1</property>
  <property name="kdenlive:id">3</property>
  <property name="kdenlive:file_size">332756</property>
  <property name="kdenlive:file_hash">9c7835f66129a3817da47133062e22c4</property>
  <property name="global_feed">1</property>
  <property name="kdenlive:audio_max">3</property>
  <property name="xml">was here</property>
  <property name="set.test_audio">0</property>
  <property name="set.test_image">1</property>
 </producer>
 <playlist id="playlist0">
  <blank length="00:16:47.267"/>
  <entry producer="producer67" in="00:00:00.000" out="00:00:01.867">
   <property name="kdenlive:id">3</property>
  </entry>
  <blank length="00:01:52.767"/>
  <entry producer="producer67" in="00:00:00.000" out="00:00:01.867">
   <property name="kdenlive:id">3</property>
  </entry>
  <blank length="00:00:55.400"/>
  <entry producer="producer67" in="00:00:00.000" out="00:00:01.867">
   <property name="kdenlive:id">3</property>
  </entry>
  <blank length="00:04:45.533"/>
  <entry producer="producer67" in="00:00:00.000" out="00:00:01.867">
   <property name="kdenlive:id">3</property>
  </entry>
  <blank length="00:02:03.933"/>
  <entry producer="producer67" in="00:00:00.000" out="00:00:01.867">
   <property name="kdenlive:id">3</property>
  </entry>
  <blank length="00:00:15.500"/>
  <entry producer="producer67" in="00:00:00.000" out="00:00:01.867">
   <property name="kdenlive:id">3</property>
  </entry>
  <blank length="00:02:05.900"/>
  <entry producer="producer67" in="00:00:00.000" out="00:00:01.867">
   <property name="kdenlive:id">3</property>
  </entry>
 </playlist>
 <playlist id="playlist1"/>
 <tractor id="tractor0" in="00:00:00.000" out="00:28:59.567">
  <property name="kdenlive:audio_track">1</property>
  <property name="kdenlive:trackheight">67</property>
  <property name="kdenlive:timeline_active">1</property>
  <track hide="video" producer="playlist0"/>
  <track hide="video" producer="playlist1"/>
  <filter id="filter0">
   <property name="window">75</property>
   <property name="max_gain">20dB</property>
   <property name="mlt_service">volume</property>
   <property name="internal_added">237</property>
   <property name="disable">1</property>
  </filter>
  <filter id="filter1">
   <property name="channel">-1</property>
   <property name="mlt_service">panner</property>
   <property name="internal_added">237</property>
   <property name="start">0.5</property>
   <property name="disable">1</property>
  </filter>
  <filter id="filter2">
   <property name="iec_scale">0</property>
   <property name="mlt_service">audiolevel</property>
   <property name="disable">1</property>
  </filter>
 </tractor>
 <producer id="producer68" in="00:00:00.000" out="00:48:23.433">
  <property name="length">87104</property>
  <property name="eof">pause</property>
  <property name="resource">DEBATE! Ancap with LiquidZulu &amp; The Loyalist.mp4</property>
  <property name="audio_index">1</property>
  <property name="video_index">0</property>
  <property name="mute_on_pause">0</property>
  <property name="mlt_service">avformat-novalidate</property>
  <property name="seekable">1</property>
  <property name="aspect_ratio">1</property>
  <property name="kdenlive:clipname"/>
  <property name="kdenlive:folderid">-1</property>
  <property name="kdenlive:id">2</property>
  <property name="kdenlive:file_size">388872559</property>
  <property name="kdenlive:file_hash">05445012ea9d769bafaaf1093ad30a5c</property>
  <property name="global_feed">1</property>
  <property name="kdenlive:audio_max">1</property>
  <property name="xml">was here</property>
  <property name="meta.media.nb_streams">2</property>
  <property name="meta.media.0.stream.type">video</property>
  <property name="meta.media.0.stream.frame_rate">30</property>
  <property name="meta.media.0.stream.sample_aspect_ratio">0</property>
  <property name="meta.media.0.codec.width">1280</property>
  <property name="meta.media.0.codec.height">720</property>
  <property name="meta.media.0.codec.rotate">0</property>
  <property name="meta.media.0.codec.frame_rate">30</property>
  <property name="meta.media.0.codec.pix_fmt">yuv420p</property>
  <property name="meta.media.0.codec.sample_aspect_ratio">1</property>
  <property name="meta.media.0.codec.colorspace">709</property>
  <property name="meta.media.0.codec.color_trc">1</property>
  <property name="meta.media.0.codec.name">h264</property>
  <property name="meta.media.0.codec.long_name">H.264 / AVC / MPEG-4 AVC / MPEG-4 part 10</property>
  <property name="meta.media.0.codec.bit_rate">940201</property>
  <property name="meta.attr.0.stream.creation_time.markup">2021-09-25T16:40:52.000000Z</property>
  <property name="meta.attr.0.stream.handler_name.markup">ISO Media file produced by Google Inc. Created on: 09/25/2021.</property>
  <property name="meta.attr.0.stream.vendor_id.markup">[0][0][0][0]</property>
  <property name="meta.media.1.stream.type">audio</property>
  <property name="meta.media.1.codec.sample_fmt">fltp</property>
  <property name="meta.media.1.codec.sample_rate">44100</property>
  <property name="meta.media.1.codec.channels">2</property>
  <property name="meta.media.1.codec.name">aac</property>
  <property name="meta.media.1.codec.long_name">AAC (Advanced Audio Coding)</property>
  <property name="meta.media.1.codec.bit_rate">128000</property>
  <property name="meta.attr.1.stream.creation_time.markup">2021-09-25T16:40:52.000000Z</property>
  <property name="meta.attr.1.stream.language.markup">eng</property>
  <property name="meta.attr.1.stream.handler_name.markup">ISO Media file produced by Google Inc. Created on: 09/25/2021.</property>
  <property name="meta.attr.1.stream.vendor_id.markup">[0][0][0][0]</property>
  <property name="meta.attr.major_brand.markup">mp42</property>
  <property name="meta.attr.minor_version.markup">0</property>
  <property name="meta.attr.compatible_brands.markup">isommp42</property>
  <property name="meta.attr.creation_time.markup">2021-09-25T16:40:52.000000Z</property>
  <property name="meta.media.sample_aspect_num">1</property>
  <property name="meta.media.sample_aspect_den">1</property>
  <property name="meta.media.frame_rate_num">30</property>
  <property name="meta.media.frame_rate_den">1</property>
  <property name="meta.media.colorspace">709</property>
  <property name="meta.media.color_trc">1</property>
  <property name="meta.media.width">1280</property>
  <property name="meta.media.height">720</property>
  <property name="meta.media.color_range">mpeg</property>
  <property name="meta.media.top_field_first">0</property>
  <property name="meta.media.progressive">1</property>
  <property name="set.test_audio">0</property>
  <property name="set.test_image">1</property>
 </producer>
 <producer id="producer69" in="00:00:00.000" out="00:00:01.867">
  <property name="length">57</property>
  <property name="eof">pause</property>
  <property name="resource">E:/vids_large/!yt buisiness/.sound fx/Swoosh 1-SoundBible.com-231145780.wav</property>
  <property name="audio_index">0</property>
  <property name="video_index">-1</property>
  <property name="mute_on_pause">0</property>
  <property name="mlt_service">avformat-novalidate</property>
  <property name="meta.media.nb_streams">1</property>
  <property name="meta.media.0.stream.type">audio</property>
  <property name="meta.media.0.codec.sample_fmt">s16</property>
  <property name="meta.media.0.codec.sample_rate">44100</property>
  <property name="meta.media.0.codec.channels">2</property>
  <property name="meta.media.0.codec.name">pcm_s16le</property>
  <property name="meta.media.0.codec.long_name">PCM signed 16-bit little-endian</property>
  <property name="meta.media.0.codec.bit_rate">1411200</property>
  <property name="seekable">1</property>
  <property name="kdenlive:clipname"/>
  <property name="kdenlive:folderid">-1</property>
  <property name="kdenlive:id">3</property>
  <property name="kdenlive:file_size">332756</property>
  <property name="kdenlive:file_hash">9c7835f66129a3817da47133062e22c4</property>
  <property name="global_feed">1</property>
  <property name="xml">was here</property>
  <property name="set.test_audio">0</property>
  <property name="set.test_image">1</property>
 </producer>
 <playlist id="playlist2">
  <property name="kdenlive:audio_track">1</property>
  <blank length="00:00:40.833"/>
  <entry producer="producer68" in="00:05:52.767" out="00:06:26.667">
   <property name="kdenlive:id">2</property>
  </entry>
  <blank length="00:06:19.700"/>
  <entry producer="producer69" in="00:00:00.000" out="00:00:01.867">
   <property name="kdenlive:id">3</property>
  </entry>
  <blank length="00:02:51.500"/>
  <entry producer="producer69" in="00:00:00.000" out="00:00:01.867">
   <property name="kdenlive:id">3</property>
  </entry>
  <blank length="00:06:17.067"/>
  <entry producer="producer68" in="00:24:54.367" out="00:24:54.933">
   <property name="kdenlive:id">2</property>
  </entry>
  <blank length="00:01:53.067"/>
  <entry producer="producer68" in="00:27:37.867" out="00:27:39.767">
   <property name="kdenlive:id">2</property>
  </entry>
  <blank length="00:00:56.333"/>
  <entry producer="producer68" in="00:28:58.233" out="00:28:59.033">
   <property name="kdenlive:id">2</property>
  </entry>
  <blank length="00:04:45.867"/>
  <entry producer="producer68" in="00:35:26.167" out="00:35:27.467">
   <property name="kdenlive:id">2</property>
  </entry>
  <blank length="00:02:04.933"/>
  <entry producer="producer68" in="00:38:49.700" out="00:38:50.800">
   <property name="kdenlive:id">2</property>
  </entry>
  <blank length="00:00:14.200"/>
  <entry producer="producer68" in="00:40:26.967" out="00:40:30.133">
   <property name="kdenlive:id">2</property>
   <property name="kdenlive:activeeffect">0</property>
   <filter id="filter3">
    <property name="window">75</property>
    <property name="max_gain">20dB</property>
    <property name="level">00:40:26.967=0;00:40:29.833=0;00:40:30.000=5.55556;00:40:30.033=13.7214;00:40:30.133=10</property>
    <property name="mlt_service">volume</property>
    <property name="kdenlive_id">volume</property>
    <property name="kdenlive:collapsed">0</property>
   </filter>
  </entry>
  <blank length="00:02:06.400"/>
  <entry producer="producer68" in="00:44:15.833" out="00:44:17.200">
   <property name="kdenlive:id">2</property>
   <filter id="filter4">
    <property name="window">75</property>
    <property name="max_gain">20dB</property>
    <property name="level">00:44:15.833=0</property>
    <property name="mlt_service">volume</property>
    <property name="kdenlive_id">volume</property>
    <property name="kdenlive:collapsed">0</property>
   </filter>
  </entry>
 </playlist>
 <playlist id="playlist3"/>
 <tractor id="tractor1" in="00:00:00.000" out="00:28:58.033">
  <property name="kdenlive:audio_track">1</property>
  <property name="kdenlive:trackheight">67</property>
  <property name="kdenlive:timeline_active">1</property>
  <property name="kdenlive:collapsed">0</property>
  <property name="kdenlive:thumbs_format"/>
  <property name="kdenlive:audio_rec"/>
  <track hide="video" producer="playlist2"/>
  <track hide="video" producer="playlist3"/>
  <filter id="filter5">
   <property name="window">75</property>
   <property name="max_gain">20dB</property>
   <property name="mlt_service">volume</property>
   <property name="internal_added">237</property>
   <property name="disable">1</property>
  </filter>
  <filter id="filter6">
   <property name="channel">-1</property>
   <property name="mlt_service">panner</property>
   <property name="internal_added">237</property>
   <property name="start">0.5</property>
   <property name="disable">1</property>
  </filter>
  <filter id="filter7">
   <property name="iec_scale">0</property>
   <property name="mlt_service">audiolevel</property>
   <property name="disable">1</property>
  </filter>
 </tractor>
 <producer id="producer70" in="00:00:00.000" out="00:48:23.433">
  <property name="length">87104</property>
  <property name="eof">pause</property>
  <property name="resource">DEBATE! Ancap with LiquidZulu &amp; The Loyalist.mp4</property>
  <property name="audio_index">1</property>
  <property name="video_index">0</property>
  <property name="mute_on_pause">0</property>
  <property name="mlt_service">avformat-novalidate</property>
  <property name="seekable">1</property>
  <property name="aspect_ratio">1</property>
  <property name="kdenlive:clipname"/>
  <property name="kdenlive:folderid">-1</property>
  <property name="kdenlive:id">2</property>
  <property name="kdenlive:file_size">388872559</property>
  <property name="kdenlive:file_hash">05445012ea9d769bafaaf1093ad30a5c</property>
  <property name="global_feed">1</property>
  <property name="kdenlive:audio_max">1</property>
  <property name="xml">was here</property>
  <property name="meta.media.nb_streams">2</property>
  <property name="meta.media.0.stream.type">video</property>
  <property name="meta.media.0.stream.frame_rate">30</property>
  <property name="meta.media.0.stream.sample_aspect_ratio">0</property>
  <property name="meta.media.0.codec.width">1280</property>
  <property name="meta.media.0.codec.height">720</property>
  <property name="meta.media.0.codec.rotate">0</property>
  <property name="meta.media.0.codec.frame_rate">30</property>
  <property name="meta.media.0.codec.pix_fmt">yuv420p</property>
  <property name="meta.media.0.codec.sample_aspect_ratio">1</property>
  <property name="meta.media.0.codec.colorspace">709</property>
  <property name="meta.media.0.codec.color_trc">1</property>
  <property name="meta.media.0.codec.name">h264</property>
  <property name="meta.media.0.codec.long_name">H.264 / AVC / MPEG-4 AVC / MPEG-4 part 10</property>
  <property name="meta.media.0.codec.bit_rate">940201</property>
  <property name="meta.attr.0.stream.creation_time.markup">2021-09-25T16:40:52.000000Z</property>
  <property name="meta.attr.0.stream.handler_name.markup">ISO Media file produced by Google Inc. Created on: 09/25/2021.</property>
  <property name="meta.attr.0.stream.vendor_id.markup">[0][0][0][0]</property>
  <property name="meta.media.1.stream.type">audio</property>
  <property name="meta.media.1.codec.sample_fmt">fltp</property>
  <property name="meta.media.1.codec.sample_rate">44100</property>
  <property name="meta.media.1.codec.channels">2</property>
  <property name="meta.media.1.codec.name">aac</property>
  <property name="meta.media.1.codec.long_name">AAC (Advanced Audio Coding)</property>
  <property name="meta.media.1.codec.bit_rate">128000</property>
  <property name="meta.attr.1.stream.creation_time.markup">2021-09-25T16:40:52.000000Z</property>
  <property name="meta.attr.1.stream.language.markup">eng</property>
  <property name="meta.attr.1.stream.handler_name.markup">ISO Media file produced by Google Inc. Created on: 09/25/2021.</property>
  <property name="meta.attr.1.stream.vendor_id.markup">[0][0][0][0]</property>
  <property name="meta.attr.major_brand.markup">mp42</property>
  <property name="meta.attr.minor_version.markup">0</property>
  <property name="meta.attr.compatible_brands.markup">isommp42</property>
  <property name="meta.attr.creation_time.markup">2021-09-25T16:40:52.000000Z</property>
  <property name="meta.media.sample_aspect_num">1</property>
  <property name="meta.media.sample_aspect_den">1</property>
  <property name="meta.media.frame_rate_num">30</property>
  <property name="meta.media.frame_rate_den">1</property>
  <property name="meta.media.colorspace">709</property>
  <property name="meta.media.color_trc">1</property>
  <property name="meta.media.width">1280</property>
  <property name="meta.media.height">720</property>
  <property name="meta.media.color_range">mpeg</property>
  <property name="meta.media.top_field_first">0</property>
  <property name="meta.media.progressive">1</property>
  <property name="set.test_audio">0</property>
  <property name="set.test_image">1</property>
 </producer>
 <playlist id="playlist4">
  <property name="kdenlive:audio_track">1</property>
  <entry producer="producer70" in="00:05:06.300" out="00:05:47.633">
   <property name="kdenlive:id">2</property>
  </entry>
  <blank length="00:00:33.400"/>
  <entry producer="producer70" in="00:06:28.300" out="00:06:46.333">
   <property name="kdenlive:id">2</property>
  </entry>
  <entry producer="producer70" in="00:06:48.233" out="00:07:21.467">
   <property name="kdenlive:id">2</property>
  </entry>
  <entry producer="producer70" in="00:07:22.800" out="00:07:26.300">
   <property name="kdenlive:id">2</property>
  </entry>
  <entry producer="producer70" in="00:07:33.233" out="00:07:48.567">
   <property name="kdenlive:id">2</property>
  </entry>
  <entry producer="producer70" in="00:07:49.900" out="00:08:19.800">
   <property name="kdenlive:id">2</property>
  </entry>
  <entry producer="producer70" in="00:08:24.233" out="00:09:00.967">
   <property name="kdenlive:id">2</property>
  </entry>
  <entry producer="producer70" in="00:09:03.533" out="00:09:20.633">
   <property name="kdenlive:id">2</property>
  </entry>
  <entry producer="producer70" in="00:09:24.733" out="00:13:10.333">
   <property name="kdenlive:id">2</property>
  </entry>
  <entry producer="producer70" in="00:15:31.467" out="00:16:17.200">
   <property name="kdenlive:id">2</property>
  </entry>
  <entry producer="producer70" in="00:16:20.000" out="00:18:27.600">
   <property name="kdenlive:id">2</property>
  </entry>
  <entry producer="producer70" in="00:18:27.767" out="00:19:24.900">
   <property name="kdenlive:id">2</property>
  </entry>
  <entry producer="producer70" in="00:19:27.200" out="00:23:35.700">
   <property name="kdenlive:id">2</property>
  </entry>
  <entry producer="producer70" in="00:23:41.100" out="00:24:54.333">
   <property name="kdenlive:id">2</property>
  </entry>
  <blank length="00:00:00.500"/>
  <entry producer="producer70" in="00:25:44.700" out="00:27:37.833">
   <property name="kdenlive:id">2</property>
  </entry>
  <blank length="00:00:01.500"/>
  <entry producer="producer70" in="00:28:01.467" out="00:28:58.200">
   <property name="kdenlive:id">2</property>
  </entry>
  <blank length="00:00:00.433"/>
  <entry producer="producer70" in="00:30:39.900" out="00:35:26.133">
   <property name="kdenlive:id">2</property>
  </entry>
  <blank length="00:00:01.133"/>
  <entry producer="producer70" in="00:36:44.567" out="00:38:49.667">
   <property name="kdenlive:id">2</property>
  </entry>
  <blank length="00:00:00.667"/>
  <entry producer="producer70" in="00:40:12.300" out="00:40:26.933">
   <property name="kdenlive:id">2</property>
  </entry>
  <blank length="00:00:02.967"/>
  <entry producer="producer70" in="00:42:09.200" out="00:44:15.800">
   <property name="kdenlive:id">2</property>
   <property name="kdenlive:activeeffect">0</property>
   <filter id="filter8">
    <property name="window">75</property>
    <property name="max_gain">20dB</property>
    <property name="level">00:42:09.200=-24.4367;00:42:09.367=-15.3346;00:42:09.433=0</property>
    <property name="mlt_service">volume</property>
    <property name="kdenlive_id">volume</property>
    <property name="kdenlive:collapsed">0</property>
   </filter>
  </entry>
  <blank length="00:00:00.967"/>
  <entry producer="producer70" in="00:46:05.000" out="00:46:46.200">
   <property name="kdenlive:id">2</property>
  </entry>
  <entry producer="producer70" in="00:47:00.767" out="00:48:23.433">
   <property name="kdenlive:id">2</property>
  </entry>
 </playlist>
 <playlist id="playlist5"/>
 <tractor id="tractor2" in="00:00:00.000" out="00:31:01.533">
  <property name="kdenlive:audio_track">1</property>
  <property name="kdenlive:trackheight">67</property>
  <property name="kdenlive:timeline_active">1</property>
  <property name="kdenlive:collapsed">0</property>
  <property name="kdenlive:thumbs_format"/>
  <property name="kdenlive:audio_rec"/>
  <track hide="video" producer="playlist4"/>
  <track hide="video" producer="playlist5"/>
  <filter id="filter9">
   <property name="window">75</property>
   <property name="max_gain">20dB</property>
   <property name="mlt_service">volume</property>
   <property name="internal_added">237</property>
   <property name="disable">1</property>
  </filter>
  <filter id="filter10">
   <property name="channel">-1</property>
   <property name="mlt_service">panner</property>
   <property name="internal_added">237</property>
   <property name="start">0.5</property>
   <property name="disable">1</property>
  </filter>
  <filter id="filter11">
   <property name="iec_scale">0</property>
   <property name="mlt_service">audiolevel</property>
   <property name="disable">1</property>
  </filter>
 </tractor>
 <producer id="producer71" in="00:00:00.000" out="00:48:23.433">
  <property name="length">87104</property>
  <property name="eof">pause</property>
  <property name="resource">DEBATE! Ancap with LiquidZulu &amp; The Loyalist.mp4</property>
  <property name="audio_index">1</property>
  <property name="video_index">0</property>
  <property name="mute_on_pause">0</property>
  <property name="mlt_service">avformat-novalidate</property>
  <property name="seekable">1</property>
  <property name="aspect_ratio">1</property>
  <property name="kdenlive:clipname"/>
  <property name="kdenlive:folderid">-1</property>
  <property name="kdenlive:id">2</property>
  <property name="kdenlive:file_size">388872559</property>
  <property name="kdenlive:file_hash">05445012ea9d769bafaaf1093ad30a5c</property>
  <property name="global_feed">1</property>
  <property name="kdenlive:audio_max">1</property>
  <property name="xml">was here</property>
  <property name="meta.media.nb_streams">2</property>
  <property name="meta.media.0.stream.type">video</property>
  <property name="meta.media.0.stream.frame_rate">30</property>
  <property name="meta.media.0.stream.sample_aspect_ratio">0</property>
  <property name="meta.media.0.codec.width">1280</property>
  <property name="meta.media.0.codec.height">720</property>
  <property name="meta.media.0.codec.rotate">0</property>
  <property name="meta.media.0.codec.frame_rate">30</property>
  <property name="meta.media.0.codec.pix_fmt">yuv420p</property>
  <property name="meta.media.0.codec.sample_aspect_ratio">1</property>
  <property name="meta.media.0.codec.colorspace">709</property>
  <property name="meta.media.0.codec.color_trc">1</property>
  <property name="meta.media.0.codec.name">h264</property>
  <property name="meta.media.0.codec.long_name">H.264 / AVC / MPEG-4 AVC / MPEG-4 part 10</property>
  <property name="meta.media.0.codec.bit_rate">940201</property>
  <property name="meta.attr.0.stream.creation_time.markup">2021-09-25T16:40:52.000000Z</property>
  <property name="meta.attr.0.stream.handler_name.markup">ISO Media file produced by Google Inc. Created on: 09/25/2021.</property>
  <property name="meta.attr.0.stream.vendor_id.markup">[0][0][0][0]</property>
  <property name="meta.media.1.stream.type">audio</property>
  <property name="meta.media.1.codec.sample_fmt">fltp</property>
  <property name="meta.media.1.codec.sample_rate">44100</property>
  <property name="meta.media.1.codec.channels">2</property>
  <property name="meta.media.1.codec.name">aac</property>
  <property name="meta.media.1.codec.long_name">AAC (Advanced Audio Coding)</property>
  <property name="meta.media.1.codec.bit_rate">128000</property>
  <property name="meta.attr.1.stream.creation_time.markup">2021-09-25T16:40:52.000000Z</property>
  <property name="meta.attr.1.stream.language.markup">eng</property>
  <property name="meta.attr.1.stream.handler_name.markup">ISO Media file produced by Google Inc. Created on: 09/25/2021.</property>
  <property name="meta.attr.1.stream.vendor_id.markup">[0][0][0][0]</property>
  <property name="meta.attr.major_brand.markup">mp42</property>
  <property name="meta.attr.minor_version.markup">0</property>
  <property name="meta.attr.compatible_brands.markup">isommp42</property>
  <property name="meta.attr.creation_time.markup">2021-09-25T16:40:52.000000Z</property>
  <property name="meta.media.sample_aspect_num">1</property>
  <property name="meta.media.sample_aspect_den">1</property>
  <property name="meta.media.frame_rate_num">30</property>
  <property name="meta.media.frame_rate_den">1</property>
  <property name="meta.media.colorspace">709</property>
  <property name="meta.media.color_trc">1</property>
  <property name="meta.media.width">1280</property>
  <property name="meta.media.height">720</property>
  <property name="meta.media.color_range">mpeg</property>
  <property name="meta.media.top_field_first">0</property>
  <property name="meta.media.progressive">1</property>
  <property name="set.test_audio">1</property>
  <property name="set.test_image">0</property>
 </producer>
 <playlist id="playlist6">
  <entry producer="producer71" in="00:05:06.300" out="00:05:47.367">
   <property name="kdenlive:id">2</property>
  </entry>
  <entry producer="producer71" in="00:05:53.033" out="00:06:26.667">
   <property name="kdenlive:id">2</property>
  </entry>
  <entry producer="producer71" in="00:06:28.300" out="00:06:46.333">
   <property name="kdenlive:id">2</property>
  </entry>
  <entry producer="producer71" in="00:06:48.233" out="00:07:21.467">
   <property name="kdenlive:id">2</property>
  </entry>
  <entry producer="producer71" in="00:07:22.800" out="00:07:26.300">
   <property name="kdenlive:id">2</property>
  </entry>
  <entry producer="producer71" in="00:07:33.233" out="00:07:48.567">
   <property name="kdenlive:id">2</property>
  </entry>
  <entry producer="producer71" in="00:07:49.900" out="00:08:19.800">
   <property name="kdenlive:id">2</property>
  </entry>
  <entry producer="producer71" in="00:08:24.233" out="00:09:00.967">
   <property name="kdenlive:id">2</property>
  </entry>
  <entry producer="producer71" in="00:09:03.533" out="00:09:20.633">
   <property name="kdenlive:id">2</property>
  </entry>
  <entry producer="producer71" in="00:09:24.733" out="00:13:10.467">
   <property name="kdenlive:id">2</property>
  </entry>
  <entry producer="producer71" in="00:13:10.500" out="00:13:11.033">
   <property name="kdenlive:id">2</property>
   <filter id="filter12">
    <property name="rotate_center">1</property>
    <property name="mlt_service">qtblend</property>
    <property name="kdenlive_id">qtblend</property>
    <property name="rect">00:13:10.500=0 0 1280 720 1.000000;00:13:11.033=634 356 12 7 1.000000</property>
    <property name="rotation">00:13:10.500=0;00:13:11.033=0</property>
    <property name="compositing">0</property>
    <property name="distort">0</property>
    <property name="kdenlive:collapsed">0</property>
   </filter>
  </entry>
  <entry producer="producer71" in="00:15:32.167" out="00:16:17.200">
   <property name="kdenlive:id">2</property>
  </entry>
  <entry producer="producer71" in="00:16:20.000" out="00:18:27.733">
   <property name="kdenlive:id">2</property>
  </entry>
  <entry producer="producer71" in="00:18:27.767" out="00:18:28.033">
   <property name="kdenlive:id">2</property>
   <filter id="filter13">
    <property name="rotate_center">1</property>
    <property name="mlt_service">qtblend</property>
    <property name="kdenlive_id">qtblend</property>
    <property name="rect">00:18:27.767=0 0 1280 720 1.000000;00:18:28.033=634 356 12 7 1.000000</property>
    <property name="rotation">00:18:27.767=0;00:18:28.033=0</property>
    <property name="compositing">0</property>
    <property name="distort">0</property>
    <property name="kdenlive:collapsed">0</property>
   </filter>
  </entry>
  <entry producer="producer71" in="00:18:28.200" out="00:19:24.900">
   <property name="kdenlive:id">2</property>
  </entry>
  <entry producer="producer71" in="00:19:27.200" out="00:23:35.700">
   <property name="kdenlive:id">2</property>
  </entry>
  <entry producer="producer71" in="00:23:41.100" out="00:24:54.933">
   <property name="kdenlive:id">2</property>
  </entry>
  <entry producer="producer71" in="00:24:54.967" out="00:24:55.300">
   <property name="kdenlive:id">2</property>
   <filter id="filter14">
    <property name="rotate_center">1</property>
    <property name="mlt_service">qtblend</property>
    <property name="kdenlive_id">qtblend</property>
    <property name="rect">00:24:54.967=0 0 1280 720 1.000000;00:24:55.300=634 356 12 7 1.000000</property>
    <property name="rotation">00:24:54.967=0;00:24:55.300=0</property>
    <property name="compositing">0</property>
    <property name="distort">0</property>
    <property name="kdenlive:collapsed">0</property>
   </filter>
  </entry>
  <entry producer="producer71" in="00:25:45.167" out="00:26:54.067">
   <property name="kdenlive:id">2</property>
  </entry>
  <entry producer="producer71" in="00:26:54.100" out="00:27:39.400">
   <property name="kdenlive:id">2</property>
  </entry>
  <entry producer="producer71" in="00:27:39.433" out="00:27:39.667">
   <property name="kdenlive:id">2</property>
   <filter id="filter15">
    <property name="rotate_center">1</property>
    <property name="mlt_service">qtblend</property>
    <property name="kdenlive_id">qtblend</property>
    <property name="rect">00:27:39.433=0 0 1280 720 1.000000;00:27:39.667=634 356 12 7 1.000000</property>
    <property name="rotation">00:27:39.433=0;00:27:39.667=0</property>
    <property name="compositing">0</property>
    <property name="distort">0</property>
    <property name="kdenlive:collapsed">0</property>
   </filter>
  </entry>
  <entry producer="producer71" in="00:28:01.800" out="00:28:58.833">
   <property name="kdenlive:id">2</property>
  </entry>
  <entry producer="producer71" in="00:28:58.867" out="00:28:59.033">
   <property name="kdenlive:id">2</property>
   <filter id="filter16">
    <property name="rotate_center">1</property>
    <property name="mlt_service">qtblend</property>
    <property name="kdenlive_id">qtblend</property>
    <property name="rect">00:28:58.867=0 0 1280 720 1.000000;00:28:59.033=634 356 12 7 1.000000</property>
    <property name="rotation">00:28:58.867=0;00:28:59.033=0</property>
    <property name="compositing">0</property>
    <property name="distort">0</property>
    <property name="kdenlive:collapsed">0</property>
   </filter>
  </entry>
  <entry producer="producer71" in="00:30:40.300" out="00:35:27.467">
   <property name="kdenlive:id">2</property>
  </entry>
  <entry producer="producer71" in="00:35:27.500" out="00:35:27.700">
   <property name="kdenlive:id">2</property>
   <filter id="filter17">
    <property name="rotate_center">1</property>
    <property name="mlt_service">qtblend</property>
    <property name="kdenlive_id">qtblend</property>
    <property name="rect">00:35:27.500=0 0 1280 720 1.000000;00:35:27.700=634 356 12 7 1.000000</property>
    <property name="rotation">00:35:27.500=0;00:35:27.700=0</property>
    <property name="compositing">0</property>
    <property name="distort">0</property>
    <property name="kdenlive:collapsed">0</property>
   </filter>
  </entry>
  <entry producer="producer71" in="00:36:45.000" out="00:38:50.567">
   <property name="kdenlive:id">2</property>
  </entry>
  <entry producer="producer71" in="00:38:50.600" out="00:38:50.800">
   <property name="kdenlive:id">2</property>
   <filter id="filter18">
    <property name="rotate_center">1</property>
    <property name="mlt_service">qtblend</property>
    <property name="kdenlive_id">qtblend</property>
    <property name="rect">00:38:50.600=0 0 1280 720 1.000000;00:38:50.800=634 356 12 7 1.000000</property>
    <property name="rotation">00:38:50.600=0;00:38:50.800=0</property>
    <property name="compositing">0</property>
    <property name="distort">0</property>
    <property name="kdenlive:collapsed">0</property>
   </filter>
  </entry>
  <entry producer="producer71" in="00:40:12.767" out="00:40:29.900">
   <property name="kdenlive:id">2</property>
  </entry>
  <entry producer="producer71" in="00:40:29.933" out="00:40:30.133">
   <property name="kdenlive:id">2</property>
   <filter id="filter19">
    <property name="rotate_center">1</property>
    <property name="mlt_service">qtblend</property>
    <property name="kdenlive_id">qtblend</property>
    <property name="rect">00:40:29.933=0 0 1280 720 1.000000;00:40:30.133=634 356 12 7 1.000000</property>
    <property name="rotation">00:40:29.933=0;00:40:30.133=0</property>
    <property name="compositing">0</property>
    <property name="distort">0</property>
    <property name="kdenlive:collapsed">0</property>
   </filter>
  </entry>
  <entry producer="producer71" in="00:42:09.433" out="00:44:16.967">
   <property name="kdenlive:id">2</property>
  </entry>
  <entry producer="producer71" in="00:44:17.000" out="00:44:17.200">
   <property name="kdenlive:id">2</property>
   <filter id="filter20">
    <property name="rotate_center">1</property>
    <property name="mlt_service">qtblend</property>
    <property name="kdenlive_id">qtblend</property>
    <property name="rect">00:44:17.000=0 0 1280 720 1.000000;00:44:17.200=634 356 12 7 1.000000</property>
    <property name="rotation">00:44:17.000=0;00:44:17.200=0</property>
    <property name="compositing">0</property>
    <property name="distort">0</property>
    <property name="kdenlive:collapsed">0</property>
   </filter>
  </entry>
  <entry producer="producer71" in="00:46:05.433" out="00:46:46.200">
   <property name="kdenlive:id">2</property>
  </entry>
  <entry producer="producer71" in="00:47:00.767" out="00:48:23.433">
   <property name="kdenlive:id">2</property>
  </entry>
 </playlist>
 <playlist id="playlist7"/>
 <tractor id="tractor3" in="00:00:00.000" out="00:31:01.533">
  <property name="kdenlive:trackheight">67</property>
  <property name="kdenlive:timeline_active">1</property>
  <property name="kdenlive:collapsed">0</property>
  <property name="kdenlive:thumbs_format"/>
  <property name="kdenlive:audio_rec"/>
  <track hide="audio" producer="playlist6"/>
  <track producer="playlist7"/>
 </tractor>
 <producer id="producer72" in="00:00:00.000" out="00:48:23.433">
  <property name="length">87104</property>
  <property name="eof">pause</property>
  <property name="resource">DEBATE! Ancap with LiquidZulu &amp; The Loyalist.mp4</property>
  <property name="audio_index">1</property>
  <property name="video_index">0</property>
  <property name="mute_on_pause">0</property>
  <property name="mlt_service">avformat-novalidate</property>
  <property name="seekable">1</property>
  <property name="aspect_ratio">1</property>
  <property name="kdenlive:clipname"/>
  <property name="kdenlive:folderid">-1</property>
  <property name="kdenlive:id">2</property>
  <property name="kdenlive:file_size">388872559</property>
  <property name="kdenlive:file_hash">05445012ea9d769bafaaf1093ad30a5c</property>
  <property name="global_feed">1</property>
  <property name="kdenlive:audio_max">1</property>
  <property name="xml">was here</property>
  <property name="meta.media.nb_streams">2</property>
  <property name="meta.media.0.stream.type">video</property>
  <property name="meta.media.0.stream.frame_rate">30</property>
  <property name="meta.media.0.stream.sample_aspect_ratio">0</property>
  <property name="meta.media.0.codec.width">1280</property>
  <property name="meta.media.0.codec.height">720</property>
  <property name="meta.media.0.codec.rotate">0</property>
  <property name="meta.media.0.codec.frame_rate">30</property>
  <property name="meta.media.0.codec.pix_fmt">yuv420p</property>
  <property name="meta.media.0.codec.sample_aspect_ratio">1</property>
  <property name="meta.media.0.codec.colorspace">709</property>
  <property name="meta.media.0.codec.color_trc">1</property>
  <property name="meta.media.0.codec.name">h264</property>
  <property name="meta.media.0.codec.long_name">H.264 / AVC / MPEG-4 AVC / MPEG-4 part 10</property>
  <property name="meta.media.0.codec.bit_rate">940201</property>
  <property name="meta.attr.0.stream.creation_time.markup">2021-09-25T16:40:52.000000Z</property>
  <property name="meta.attr.0.stream.handler_name.markup">ISO Media file produced by Google Inc. Created on: 09/25/2021.</property>
  <property name="meta.attr.0.stream.vendor_id.markup">[0][0][0][0]</property>
  <property name="meta.media.1.stream.type">audio</property>
  <property name="meta.media.1.codec.sample_fmt">fltp</property>
  <property name="meta.media.1.codec.sample_rate">44100</property>
  <property name="meta.media.1.codec.channels">2</property>
  <property name="meta.media.1.codec.name">aac</property>
  <property name="meta.media.1.codec.long_name">AAC (Advanced Audio Coding)</property>
  <property name="meta.media.1.codec.bit_rate">128000</property>
  <property name="meta.attr.1.stream.creation_time.markup">2021-09-25T16:40:52.000000Z</property>
  <property name="meta.attr.1.stream.language.markup">eng</property>
  <property name="meta.attr.1.stream.handler_name.markup">ISO Media file produced by Google Inc. Created on: 09/25/2021.</property>
  <property name="meta.attr.1.stream.vendor_id.markup">[0][0][0][0]</property>
  <property name="meta.attr.major_brand.markup">mp42</property>
  <property name="meta.attr.minor_version.markup">0</property>
  <property name="meta.attr.compatible_brands.markup">isommp42</property>
  <property name="meta.attr.creation_time.markup">2021-09-25T16:40:52.000000Z</property>
  <property name="meta.media.sample_aspect_num">1</property>
  <property name="meta.media.sample_aspect_den">1</property>
  <property name="meta.media.frame_rate_num">30</property>
  <property name="meta.media.frame_rate_den">1</property>
  <property name="meta.media.colorspace">709</property>
  <property name="meta.media.color_trc">1</property>
  <property name="meta.media.width">1280</property>
  <property name="meta.media.height">720</property>
  <property name="meta.media.color_range">mpeg</property>
  <property name="meta.media.top_field_first">0</property>
  <property name="meta.media.progressive">1</property>
  <property name="set.test_audio">1</property>
  <property name="set.test_image">0</property>
 </producer>
 <playlist id="playlist8">
  <blank length="00:07:34.600"/>
  <entry producer="producer10" in="00:00:00.000" out="00:00:00.000">
   <property name="kdenlive:id">12</property>
   <filter id="filter21">
    <property name="rotate_center">1</property>
    <property name="mlt_service">qtblend</property>
    <property name="kdenlive_id">qtblend</property>
    <property name="rect">00:00:00.000=153 444 347 187 1.000000</property>
    <property name="rotation">00:00:00.000=0</property>
    <property name="compositing">0</property>
    <property name="distort">0</property>
    <property name="kdenlive:collapsed">0</property>
   </filter>
  </entry>
  <blank length="00:02:53.367"/>
  <entry producer="producer10" in="00:00:00.000" out="00:00:00.067">
   <property name="kdenlive:id">12</property>
   <filter id="filter22">
    <property name="rotate_center">1</property>
    <property name="mlt_service">qtblend</property>
    <property name="kdenlive_id">qtblend</property>
    <property name="rect">00:00:00.000=153 444 347 187 1.000000;00:00:00.067=272 424 267 138 1.000000</property>
    <property name="rotation">00:00:00.000=0;00:00:00.067=0</property>
    <property name="compositing">0</property>
    <property name="distort">0</property>
    <property name="kdenlive:collapsed">0</property>
   </filter>
  </entry>
  <blank length="00:01:59.700"/>
  <entry producer="producer10" in="00:00:00.000" out="00:00:03.933">
   <property name="kdenlive:id">12</property>
   <filter id="filter23">
    <property name="rotate_center">1</property>
    <property name="mlt_service">qtblend</property>
    <property name="kdenlive_id">qtblend</property>
    <property name="rect">00:00:00.000=153 444 347 187 1.000000</property>
    <property name="rotation">00:00:00.000=0</property>
    <property name="compositing">0</property>
    <property name="distort">0</property>
    <property name="kdenlive:collapsed">0</property>
   </filter>
  </entry>
  <blank length="00:00:17.467"/>
  <entry producer="producer10" in="00:00:00.000" out="00:00:11.067">
   <property name="kdenlive:id">12</property>
   <filter id="filter24">
    <property name="rotate_center">1</property>
    <property name="mlt_service">qtblend</property>
    <property name="kdenlive_id">qtblend</property>
    <property name="rect">00:00:00.000=153 444 347 187 1.000000</property>
    <property name="rotation">00:00:00.000=0</property>
    <property name="compositing">0</property>
    <property name="distort">0</property>
    <property name="kdenlive:collapsed">0</property>
   </filter>
  </entry>
  <blank length="00:03:47.100"/>
  <entry producer="producer10" in="00:00:00.000" out="00:00:00.100">
   <property name="kdenlive:id">12</property>
   <filter id="filter25">
    <property name="rotate_center">1</property>
    <property name="mlt_service">qtblend</property>
    <property name="kdenlive_id">qtblend</property>
    <property name="rect">00:00:00.000=153 444 347 187 1.000000;00:00:00.067=239 426 296 151 1.000000</property>
    <property name="rotation">00:00:00.000=0;00:00:00.067=0</property>
    <property name="compositing">0</property>
    <property name="distort">0</property>
    <property name="kdenlive:collapsed">0</property>
   </filter>
  </entry>
  <blank length="00:01:07.433"/>
  <entry producer="producer72" in="00:26:52.367" out="00:26:54.067">
   <property name="kdenlive:id">2</property>
   <property name="kdenlive:activeeffect">1</property>
   <filter id="filter26">
    <property name="mode">alpha</property>
    <property name="alpha_operation">min</property>
    <property name="invert">0</property>
    <property name="feather">0</property>
    <property name="feather_passes">1</property>
    <property name="mlt_service">rotoscoping</property>
    <property name="kdenlive_id">rotoscoping</property>
    <property name="spline">{
    "48371": [
        [
            [
                0.5110032362459547,
                0.6
            ],
            [
                0.511326860841424,
                0.514367816091954
            ],
            [
                0.6045307443365695,
                0.5132183908045977
            ]
        ],
        [
            [
                0.8841423948220065,
                0.5097701149425288
            ],
            [
                0.977346278317152,
                0.5086206896551724
            ],
            [
                0.9776699029126213,
                0.5954022988505747
            ]
        ],
        [
            [
                0.9786407766990293,
                0.8557471264367816
            ],
            [
                0.9789644012944985,
                0.942528735632184
            ],
            [
                0.8851132686084142,
                0.942528735632184
            ]
        ],
        [
            [
                0.6035598705501618,
                0.942528735632184
            ],
            [
                0.5097087378640777,
                0.942528735632184
            ],
            [
                0.5100323624595469,
                0.8568965517241379
            ]
        ]
    ],
    "48416": [
        [
            [
                0.5110032362459547,
                0.6
            ],
            [
                0.511326860841424,
                0.514367816091954
            ],
            [
                0.6045307443365695,
                0.5132183908045977
            ]
        ],
        [
            [
                0.8841423948220065,
                0.5097701149425288
            ],
            [
                0.977346278317152,
                0.5086206896551724
            ],
            [
                0.9776699029126213,
                0.5954022988505747
            ]
        ],
        [
            [
                0.9786407766990293,
                0.8557471264367816
            ],
            [
                0.9789644012944985,
                0.942528735632184
            ],
            [
                0.8851132686084142,
                0.942528735632184
            ]
        ],
        [
            [
                0.6035598705501618,
                0.942528735632184
            ],
            [
                0.5097087378640777,
                0.942528735632184
            ],
            [
                0.5100323624595469,
                0.8568965517241379
            ]
        ]
    ]
}
</property>
    <property name="kdenlive:collapsed">0</property>
   </filter>
   <filter id="filter27">
    <property name="rotate_center">1</property>
    <property name="mlt_service">qtblend</property>
    <property name="kdenlive_id">qtblend</property>
    <property name="rect">00:26:52.367=0 0 1280 720 1.000000;00:26:53.900=-369 -203 1660 934 1.000000;00:26:54.067=0 0 1280 720 1.000000</property>
    <property name="rotation">00:26:52.367=0;00:26:53.900=0;00:26:54.067=0</property>
    <property name="compositing">0</property>
    <property name="distort">0</property>
    <property name="kdenlive:collapsed">0</property>
   </filter>
  </entry>
  <blank length="00:00:45.333"/>
  <entry producer="producer10" in="00:00:00.000" out="00:00:00.100">
   <property name="kdenlive:id">12</property>
   <filter id="filter28">
    <property name="rotate_center">1</property>
    <property name="mlt_service">qtblend</property>
    <property name="kdenlive_id">qtblend</property>
    <property name="rect">00:00:00.000=153 444 347 187 1.000000;00:00:00.100=288 409 334 147 1.000000</property>
    <property name="rotation">00:00:00.000=0;00:00:00.100=0</property>
    <property name="compositing">0</property>
    <property name="distort">0</property>
    <property name="kdenlive:collapsed">0</property>
   </filter>
  </entry>
  <blank length="00:00:57.200"/>
  <entry producer="producer10" in="00:00:00.000" out="00:00:00.067">
   <property name="kdenlive:id">12</property>
   <filter id="filter29">
    <property name="rotate_center">1</property>
    <property name="mlt_service">qtblend</property>
    <property name="kdenlive_id">qtblend</property>
    <property name="rect">00:00:00.000=153 444 347 187 1.000000;00:00:00.067=279 412 342 119 1.000000</property>
    <property name="rotation">00:00:00.000=0;00:00:00.067=0</property>
    <property name="compositing">0</property>
    <property name="distort">0</property>
    <property name="kdenlive:collapsed">0</property>
   </filter>
  </entry>
  <blank length="00:04:47.300"/>
  <entry producer="producer10" in="00:00:00.000" out="00:00:00.067">
   <property name="kdenlive:id">12</property>
   <filter id="filter30">
    <property name="rotate_center">1</property>
    <property name="mlt_service">qtblend</property>
    <property name="kdenlive_id">qtblend</property>
    <property name="rect">00:00:00.000=835 417 166 121 1.000000;00:00:00.067=760 392 123 90 1.000000</property>
    <property name="rotation">00:00:00.000=0;00:00:00.067=0</property>
    <property name="compositing">0</property>
    <property name="distort">0</property>
    <property name="kdenlive:collapsed">0</property>
   </filter>
  </entry>
  <blank length="00:02:05.733"/>
  <entry producer="producer10" in="00:00:00.000" out="00:00:00.100">
   <property name="kdenlive:id">12</property>
   <filter id="filter31">
    <property name="rotate_center">1</property>
    <property name="mlt_service">qtblend</property>
    <property name="kdenlive_id">qtblend</property>
    <property name="rect">00:00:00.000=738 387 100 71 1.000000</property>
    <property name="rotation">00:00:00.000=0</property>
    <property name="compositing">0</property>
    <property name="distort">0</property>
    <property name="kdenlive:collapsed">0</property>
   </filter>
  </entry>
  <blank length="00:00:17.267"/>
  <entry producer="producer10" in="00:00:00.000" out="00:00:00.067">
   <property name="kdenlive:id">12</property>
   <filter id="filter32">
    <property name="rotate_center">1</property>
    <property name="mlt_service">qtblend</property>
    <property name="kdenlive_id">qtblend</property>
    <property name="rect">00:00:00.000=835 417 166 121 1.000000;00:00:00.067=765 394 123 91 1.000000</property>
    <property name="rotation">00:00:00.000=0;00:00:00.067=0</property>
    <property name="compositing">0</property>
    <property name="distort">0</property>
    <property name="kdenlive:collapsed">0</property>
   </filter>
  </entry>
  <blank length="00:02:07.700"/>
  <entry producer="producer10" in="00:00:00.000" out="00:00:00.100">
   <property name="kdenlive:id">12</property>
   <filter id="filter33">
    <property name="rotate_center">1</property>
    <property name="mlt_service">qtblend</property>
    <property name="kdenlive_id">qtblend</property>
    <property name="rect">00:00:00.000=835 417 166 121 1.000000;00:00:00.100=730 386 107 65 1.000000</property>
    <property name="rotation">00:00:00.000=0;00:00:00.100=0</property>
    <property name="compositing">0</property>
    <property name="distort">0</property>
    <property name="kdenlive:collapsed">0</property>
   </filter>
  </entry>
 </playlist>
 <playlist id="playlist9"/>
 <tractor id="tractor4" in="00:00:00.000" out="00:28:57.933">
  <property name="kdenlive:trackheight">67</property>
  <property name="kdenlive:timeline_active">1</property>
  <property name="kdenlive:collapsed">0</property>
  <property name="kdenlive:thumbs_format"/>
  <property name="kdenlive:audio_rec"/>
  <track hide="audio" producer="playlist8"/>
  <track producer="playlist9"/>
 </tractor>
 <producer id="producer73" in="00:00:00.000" out="00:48:23.433">
  <property name="length">87104</property>
  <property name="eof">pause</property>
  <property name="resource">DEBATE! Ancap with LiquidZulu &amp; The Loyalist.mp4</property>
  <property name="audio_index">1</property>
  <property name="video_index">0</property>
  <property name="mute_on_pause">0</property>
  <property name="mlt_service">avformat-novalidate</property>
  <property name="seekable">1</property>
  <property name="aspect_ratio">1</property>
  <property name="kdenlive:clipname"/>
  <property name="kdenlive:folderid">-1</property>
  <property name="kdenlive:id">2</property>
  <property name="kdenlive:file_size">388872559</property>
  <property name="kdenlive:file_hash">05445012ea9d769bafaaf1093ad30a5c</property>
  <property name="global_feed">1</property>
  <property name="kdenlive:audio_max">1</property>
  <property name="xml">was here</property>
  <property name="meta.media.nb_streams">2</property>
  <property name="meta.media.0.stream.type">video</property>
  <property name="meta.media.0.stream.frame_rate">30</property>
  <property name="meta.media.0.stream.sample_aspect_ratio">0</property>
  <property name="meta.media.0.codec.width">1280</property>
  <property name="meta.media.0.codec.height">720</property>
  <property name="meta.media.0.codec.rotate">0</property>
  <property name="meta.media.0.codec.frame_rate">30</property>
  <property name="meta.media.0.codec.pix_fmt">yuv420p</property>
  <property name="meta.media.0.codec.sample_aspect_ratio">1</property>
  <property name="meta.media.0.codec.colorspace">709</property>
  <property name="meta.media.0.codec.color_trc">1</property>
  <property name="meta.media.0.codec.name">h264</property>
  <property name="meta.media.0.codec.long_name">H.264 / AVC / MPEG-4 AVC / MPEG-4 part 10</property>
  <property name="meta.media.0.codec.bit_rate">940201</property>
  <property name="meta.attr.0.stream.creation_time.markup">2021-09-25T16:40:52.000000Z</property>
  <property name="meta.attr.0.stream.handler_name.markup">ISO Media file produced by Google Inc. Created on: 09/25/2021.</property>
  <property name="meta.attr.0.stream.vendor_id.markup">[0][0][0][0]</property>
  <property name="meta.media.1.stream.type">audio</property>
  <property name="meta.media.1.codec.sample_fmt">fltp</property>
  <property name="meta.media.1.codec.sample_rate">44100</property>
  <property name="meta.media.1.codec.channels">2</property>
  <property name="meta.media.1.codec.name">aac</property>
  <property name="meta.media.1.codec.long_name">AAC (Advanced Audio Coding)</property>
  <property name="meta.media.1.codec.bit_rate">128000</property>
  <property name="meta.attr.1.stream.creation_time.markup">2021-09-25T16:40:52.000000Z</property>
  <property name="meta.attr.1.stream.language.markup">eng</property>
  <property name="meta.attr.1.stream.handler_name.markup">ISO Media file produced by Google Inc. Created on: 09/25/2021.</property>
  <property name="meta.attr.1.stream.vendor_id.markup">[0][0][0][0]</property>
  <property name="meta.attr.major_brand.markup">mp42</property>
  <property name="meta.attr.minor_version.markup">0</property>
  <property name="meta.attr.compatible_brands.markup">isommp42</property>
  <property name="meta.attr.creation_time.markup">2021-09-25T16:40:52.000000Z</property>
  <property name="meta.media.sample_aspect_num">1</property>
  <property name="meta.media.sample_aspect_den">1</property>
  <property name="meta.media.frame_rate_num">30</property>
  <property name="meta.media.frame_rate_den">1</property>
  <property name="meta.media.colorspace">709</property>
  <property name="meta.media.color_trc">1</property>
  <property name="meta.media.width">1280</property>
  <property name="meta.media.height">720</property>
  <property name="meta.media.color_range">mpeg</property>
  <property name="meta.media.top_field_first">0</property>
  <property name="meta.media.progressive">1</property>
  <property name="set.test_audio">1</property>
  <property name="set.test_image">0</property>
 </producer>
 <playlist id="playlist10">
  <entry producer="producer10" in="00:00:00.000" out="00:07:34.567">
   <property name="kdenlive:id">12</property>
   <filter id="filter34">
    <property name="rotate_center">1</property>
    <property name="mlt_service">qtblend</property>
    <property name="kdenlive_id">qtblend</property>
    <property name="rect">00:00:00.000=153 444 347 187 1.000000</property>
    <property name="rotation">00:00:00.000=0</property>
    <property name="compositing">0</property>
    <property name="distort">0</property>
    <property name="kdenlive:collapsed">0</property>
   </filter>
  </entry>
  <entry producer="producer73" in="00:15:31.600" out="00:15:32.133">
   <property name="kdenlive:id">2</property>
   <filter id="filter35">
    <property name="rotate_center">1</property>
    <property name="mlt_service">qtblend</property>
    <property name="kdenlive_id">qtblend</property>
    <property name="rect">00:15:31.600=0 454 1280 720 1.000000;00:15:31.800=0 0 1280 720 0.984127</property>
    <property name="rotation">00:15:31.600=0;00:15:31.800=0</property>
    <property name="compositing">0</property>
    <property name="distort">0</property>
    <property name="kdenlive:collapsed">0</property>
   </filter>
  </entry>
  <entry producer="producer10" in="00:00:00.000" out="00:02:52.800">
   <property name="kdenlive:id">12</property>
   <filter id="filter36">
    <property name="rotate_center">1</property>
    <property name="mlt_service">qtblend</property>
    <property name="kdenlive_id">qtblend</property>
    <property name="rect">00:00:00.000=153 444 347 187 1.000000</property>
    <property name="rotation">00:00:00.000=0</property>
    <property name="compositing">0</property>
    <property name="distort">0</property>
    <property name="kdenlive:collapsed">0</property>
   </filter>
  </entry>
  <entry producer="producer73" in="00:18:27.767" out="00:18:28.033">
   <property name="kdenlive:id">2</property>
   <filter id="filter37">
    <property name="rotate_center">1</property>
    <property name="mlt_service">qtblend</property>
    <property name="kdenlive_id">qtblend</property>
    <property name="rect">00:18:27.767=0 738 1280 720 1.000000;00:18:27.967=0 0 1280 720 1.000000</property>
    <property name="rotation">00:18:27.767=0;00:18:27.967=0</property>
    <property name="compositing">0</property>
    <property name="distort">0</property>
    <property name="kdenlive:collapsed">0</property>
   </filter>
  </entry>
  <entry producer="producer10" in="00:00:00.000" out="00:01:59.467">
   <property name="kdenlive:id">12</property>
   <filter id="filter38">
    <property name="rotate_center">1</property>
    <property name="mlt_service">qtblend</property>
    <property name="kdenlive_id">qtblend</property>
    <property name="rect">00:00:00.000=153 444 347 187 1.000000</property>
    <property name="rotation">00:00:00.000=0</property>
    <property name="compositing">0</property>
    <property name="distort">0</property>
   </filter>
  </entry>
  <entry producer="producer2" in="00:00:00.000" out="00:00:03.933">
   <property name="kdenlive:id">4</property>
   <filter id="filter39">
    <property name="rotate_center">1</property>
    <property name="mlt_service">qtblend</property>
    <property name="kdenlive_id">qtblend</property>
    <property name="rect">00:00:00.000=634 843 12 7 1.000000;00:00:00.133=0 0 1280 720 1.000000;00:00:03.733=-290 -1174 3375 1899 1.000000;00:00:03.800=-509 -1297 3813 2145 1.000000;00:00:03.933=634 355 12 7 1.000000</property>
    <property name="rotation">00:00:00.000=0;00:00:00.133=0;00:00:03.733=0;00:00:03.800=0;00:00:03.933=0</property>
    <property name="compositing">0</property>
    <property name="distort">0</property>
    <property name="kdenlive:collapsed">0</property>
   </filter>
   <filter id="filter40">
    <property name="mode">alpha</property>
    <property name="alpha_operation">min</property>
    <property name="invert">0</property>
    <property name="feather">0</property>
    <property name="feather_passes">1</property>
    <property name="mlt_service">rotoscoping</property>
    <property name="kdenlive_id">rotoscoping</property>
    <property name="spline">{&#xd;
    "000": [&#xd;
        [&#xd;
            [&#xd;
                0.28365180467091294,&#xd;
                1.0005671077504725&#xd;
            ],&#xd;
            [&#xd;
                0.13906581740976645,&#xd;
                1.0009451795841209&#xd;
            ],&#xd;
            [&#xd;
                0.13927813163481953,&#xd;
                0.8013232514177692&#xd;
            ]&#xd;
        ],&#xd;
        [&#xd;
            [&#xd;
                0.13991507430997877,&#xd;
                0.20245746691871455&#xd;
            ],&#xd;
            [&#xd;
                0.14012738853503184,&#xd;
                0.0028355387523629487&#xd;
            ],&#xd;
            [&#xd;
                0.28450106157112526,&#xd;
                0.0028355387523629487&#xd;
            ]&#xd;
        ],&#xd;
        [&#xd;
            [&#xd;
                0.7176220806794055,&#xd;
                0.0028355387523629487&#xd;
            ],&#xd;
            [&#xd;
                0.8619957537154989,&#xd;
                0.0028355387523629487&#xd;
            ],&#xd;
            [&#xd;
                0.8619957537154989,&#xd;
                0.20207939508506614&#xd;
            ]&#xd;
        ],&#xd;
        [&#xd;
            [&#xd;
                0.8619957537154989,&#xd;
                0.7998109640831756&#xd;
            ],&#xd;
            [&#xd;
                0.8619957537154989,&#xd;
                0.9990548204158789&#xd;
            ],&#xd;
            [&#xd;
                0.7174097664543524,&#xd;
                0.9994328922495274&#xd;
            ]&#xd;
        ]&#xd;
    ],&#xd;
    "004": [&#xd;
        [&#xd;
            [&#xd;
                0.28365180467091294,&#xd;
                1.0005671077504725&#xd;
            ],&#xd;
            [&#xd;
                0.13906581740976645,&#xd;
                1.0009451795841209&#xd;
            ],&#xd;
            [&#xd;
                0.13927813163481953,&#xd;
                0.8013232514177692&#xd;
            ]&#xd;
        ],&#xd;
        [&#xd;
            [&#xd;
                0.13991507430997877,&#xd;
                0.20245746691871455&#xd;
            ],&#xd;
            [&#xd;
                0.14012738853503184,&#xd;
                0.0028355387523629487&#xd;
            ],&#xd;
            [&#xd;
                0.28450106157112526,&#xd;
                0.0028355387523629487&#xd;
            ]&#xd;
        ],&#xd;
        [&#xd;
            [&#xd;
                0.7176220806794055,&#xd;
                0.0028355387523629487&#xd;
            ],&#xd;
            [&#xd;
                0.8619957537154989,&#xd;
                0.0028355387523629487&#xd;
            ],&#xd;
            [&#xd;
                0.8619957537154989,&#xd;
                0.20207939508506614&#xd;
            ]&#xd;
        ],&#xd;
        [&#xd;
            [&#xd;
                0.8619957537154989,&#xd;
                0.7998109640831756&#xd;
            ],&#xd;
            [&#xd;
                0.8619957537154989,&#xd;
                0.9990548204158789&#xd;
            ],&#xd;
            [&#xd;
                0.7174097664543524,&#xd;
                0.9994328922495274&#xd;
            ]&#xd;
        ]&#xd;
    ]&#xd;
}&#xd;
</property>
    <property name="kdenlive:collapsed">0</property>
   </filter>
  </entry>
  <entry producer="producer10" in="00:00:00.000" out="00:00:17.433">
   <property name="kdenlive:id">12</property>
   <filter id="filter41">
    <property name="rotate_center">1</property>
    <property name="mlt_service">qtblend</property>
    <property name="kdenlive_id">qtblend</property>
    <property name="rect">00:00:00.000=153 444 347 187 1.000000</property>
    <property name="rotation">00:00:00.000=0</property>
    <property name="compositing">0</property>
    <property name="distort">0</property>
    <property name="kdenlive:collapsed">0</property>
   </filter>
  </entry>
  <blank length="00:00:00.100"/>
  <entry producer="producer6" in="00:00:00.000" out="00:00:06.133">
   <property name="kdenlive:id">8</property>
   <filter id="filter42">
    <property name="rotate_center">1</property>
    <property name="mlt_service">qtblend</property>
    <property name="kdenlive_id">qtblend</property>
    <property name="rect">00:00:00.000=0 721 1280 720 1.000000;00:00:00.133=0 0 1280 720 1.000000;00:00:02.000=0 0 1280 720 1.000000</property>
    <property name="rotation">00:00:00.000=0;00:00:00.133=0;00:00:02.000=0</property>
    <property name="compositing">0</property>
    <property name="distort">0</property>
    <property name="kdenlive:collapsed">0</property>
   </filter>
  </entry>
  <entry producer="producer5" in="00:00:00.000" out="00:00:01.267">
   <property name="kdenlive:id">7</property>
   <filter id="filter43">
    <property name="rotate_center">1</property>
    <property name="mlt_service">qtblend</property>
    <property name="kdenlive_id">qtblend</property>
    <property name="rect">00:00:00.000=-9568 -5382 20415 11483 1.000000;00:00:00.100=0 0 1280 720 1.000000;00:00:01.033=0 0 1280 720 1.000000;00:00:01.200=0 -518 1280 720 1.000000;00:00:01.267=0 -702 1280 720 1.000000</property>
    <property name="rotation">00:00:00.000=0;00:00:00.100=0;00:00:01.033=0;00:00:01.200=0;00:00:01.267=0</property>
    <property name="compositing">0</property>
    <property name="distort">0</property>
    <property name="kdenlive:collapsed">0</property>
   </filter>
  </entry>
  <blank length="00:00:03.533"/>
  <entry producer="producer10" in="00:00:00.000" out="00:03:47.067">
   <property name="kdenlive:id">12</property>
   <filter id="filter44">
    <property name="rotate_center">1</property>
    <property name="mlt_service">qtblend</property>
    <property name="kdenlive_id">qtblend</property>
    <property name="rect">00:00:00.000=153 444 347 187 1.000000</property>
    <property name="rotation">00:00:00.000=0</property>
    <property name="compositing">0</property>
    <property name="distort">0</property>
    <property name="kdenlive:collapsed">0</property>
   </filter>
  </entry>
  <entry producer="producer73" in="00:25:44.433" out="00:25:44.767">
   <property name="kdenlive:id">2</property>
   <filter id="filter45">
    <property name="rotate_center">1</property>
    <property name="mlt_service">qtblend</property>
    <property name="kdenlive_id">qtblend</property>
    <property name="rect">00:25:44.433=0 721 1280 720 1.000000;00:25:44.633=0 0 1280 720 1.000000</property>
    <property name="rotation">00:25:44.433=0;00:25:44.633=0</property>
    <property name="compositing">0</property>
    <property name="distort">0</property>
    <property name="kdenlive:collapsed">0</property>
   </filter>
  </entry>
  <entry producer="producer10" in="00:00:00.000" out="00:01:54.233">
   <property name="kdenlive:id">12</property>
   <filter id="filter46">
    <property name="rotate_center">1</property>
    <property name="mlt_service">qtblend</property>
    <property name="kdenlive_id">qtblend</property>
    <property name="rect">00:00:00.000=153 444 347 187 1.000000</property>
    <property name="rotation">00:00:00.000=0</property>
    <property name="compositing">0</property>
    <property name="distort">0</property>
   </filter>
  </entry>
  <entry producer="producer73" in="00:28:01.100" out="00:28:01.333">
   <property name="kdenlive:id">2</property>
   <filter id="filter47">
    <property name="rotate_center">1</property>
    <property name="mlt_service">qtblend</property>
    <property name="kdenlive_id">qtblend</property>
    <property name="rect">00:28:01.100=0 729 1280 720 1.000000;00:28:01.333=0 0 1280 720 1.000000</property>
    <property name="rotation">00:28:01.100=0;00:28:01.333=0</property>
    <property name="compositing">0</property>
    <property name="distort">0</property>
    <property name="kdenlive:collapsed">0</property>
   </filter>
  </entry>
  <entry producer="producer10" in="00:00:00.000" out="00:00:57.033">
   <property name="kdenlive:id">12</property>
   <filter id="filter48">
    <property name="rotate_center">1</property>
    <property name="mlt_service">qtblend</property>
    <property name="kdenlive_id">qtblend</property>
    <property name="rect">00:00:00.000=153 444 347 187 1.000000</property>
    <property name="rotation">00:00:00.000=0</property>
    <property name="compositing">0</property>
    <property name="distort">0</property>
   </filter>
  </entry>
  <entry producer="producer73" in="00:30:39.700" out="00:30:39.867">
   <property name="kdenlive:id">2</property>
   <filter id="filter49">
    <property name="rotate_center">1</property>
    <property name="mlt_service">qtblend</property>
    <property name="kdenlive_id">qtblend</property>
    <property name="rect">00:30:39.700=0 747 1280 720 1.000000;00:30:39.867=0 0 1280 720 1.000000</property>
    <property name="rotation">00:30:39.700=0;00:30:39.867=0</property>
    <property name="compositing">0</property>
    <property name="distort">0</property>
    <property name="kdenlive:collapsed">0</property>
   </filter>
  </entry>
  <entry producer="producer10" in="00:00:00.000" out="00:02:41.300">
   <property name="kdenlive:id">12</property>
   <filter id="filter50">
    <property name="rotate_center">1</property>
    <property name="mlt_service">qtblend</property>
    <property name="kdenlive_id">qtblend</property>
    <property name="rect">00:00:00.000=153 444 346 186 1.000000;00:02:41.300=158 444 330 185 1.000000</property>
    <property name="rotation">00:00:00.000=0;00:02:41.300=0</property>
    <property name="compositing">0</property>
    <property name="distort">0</property>
    <property name="kdenlive:collapsed">0</property>
   </filter>
  </entry>
  <entry producer="producer10" in="00:00:00.000" out="00:00:00.267">
   <property name="kdenlive:id">12</property>
   <filter id="filter51">
    <property name="rotate_center">1</property>
    <property name="mlt_service">qtblend</property>
    <property name="kdenlive_id">qtblend</property>
    <property name="rect">00:00:00.000=157 444 330 185 1.000000;00:00:00.033=298 424 330 185 1.000000;00:00:00.067=470 431 268 160 1.000000;00:00:00.100=595 418 249 150 1.000000;00:00:00.133=683 420 238 136 1.000000;00:00:00.167=739 420 232 128 1.000000;00:00:00.200=768 418 236 126 1.000000;00:00:00.233=791 418 238 127 1.000000;00:00:00.267=793 413 240 128 1.000000</property>
    <property name="rotation">00:00:00.000=0;00:00:00.033=0;00:00:00.067=0;00:00:00.100=0;00:00:00.133=0;00:00:00.167=0;00:00:00.200=0;00:00:00.233=0;00:00:00.267=0</property>
    <property name="compositing">0</property>
    <property name="distort">0</property>
    <property name="kdenlive:collapsed">0</property>
   </filter>
  </entry>
  <entry producer="producer10" in="00:00:00.000" out="00:02:05.533">
   <property name="kdenlive:id">12</property>
   <filter id="filter52">
    <property name="rotate_center">1</property>
    <property name="mlt_service">qtblend</property>
    <property name="kdenlive_id">qtblend</property>
    <property name="rect">00:00:00.000=835 417 166 121 1.000000</property>
    <property name="rotation">00:00:00.000=0</property>
    <property name="compositing">0</property>
    <property name="distort">0</property>
    <property name="kdenlive:collapsed">0</property>
   </filter>
  </entry>
  <entry producer="producer73" in="00:36:44.333" out="00:36:44.533">
   <property name="kdenlive:id">2</property>
   <filter id="filter53">
    <property name="rotate_center">1</property>
    <property name="mlt_service">qtblend</property>
    <property name="kdenlive_id">qtblend</property>
    <property name="rect">00:36:44.333=0 750 1280 720 1.000000;00:36:44.533=0 0 1280 720 1.000000</property>
    <property name="rotation">00:36:44.333=0;00:36:44.533=0</property>
    <property name="compositing">0</property>
    <property name="distort">0</property>
    <property name="kdenlive:collapsed">0</property>
   </filter>
  </entry>
  <entry producer="producer10" in="00:00:00.000" out="00:02:05.567">
   <property name="kdenlive:id">12</property>
   <filter id="filter54">
    <property name="rotate_center">1</property>
    <property name="mlt_service">qtblend</property>
    <property name="kdenlive_id">qtblend</property>
    <property name="rect">00:00:00.000=835 417 166 121 1.000000</property>
    <property name="rotation">00:00:00.000=0</property>
    <property name="compositing">0</property>
    <property name="distort">0</property>
   </filter>
  </entry>
  <entry producer="producer73" in="00:40:12.067" out="00:40:12.267">
   <property name="kdenlive:id">2</property>
   <filter id="filter55">
    <property name="rotate_center">1</property>
    <property name="mlt_service">qtblend</property>
    <property name="kdenlive_id">qtblend</property>
    <property name="rect">00:40:12.067=0 803 1280 720 1.000000;00:40:12.267=0 0 1280 720 1.000000</property>
    <property name="rotation">00:40:12.067=0;00:40:12.267=0</property>
    <property name="compositing">0</property>
    <property name="distort">0</property>
    <property name="kdenlive:collapsed">0</property>
   </filter>
  </entry>
  <entry producer="producer10" in="00:00:00.000" out="00:00:17.133">
   <property name="kdenlive:id">12</property>
   <filter id="filter56">
    <property name="rotate_center">1</property>
    <property name="mlt_service">qtblend</property>
    <property name="kdenlive_id">qtblend</property>
    <property name="rect">00:00:00.000=835 417 166 121 1.000000</property>
    <property name="rotation">00:00:00.000=0</property>
    <property name="compositing">0</property>
    <property name="distort">0</property>
   </filter>
  </entry>
  <entry producer="producer73" in="00:42:08.967" out="00:42:09.167">
   <property name="kdenlive:id">2</property>
   <filter id="filter57">
    <property name="rotate_center">1</property>
    <property name="mlt_service">qtblend</property>
    <property name="kdenlive_id">qtblend</property>
    <property name="rect">00:42:08.967=0 759 1280 720 1.000000;00:42:09.167=0 0 1280 720 1.000000</property>
    <property name="rotation">00:42:08.967=0;00:42:09.167=0</property>
    <property name="compositing">0</property>
    <property name="distort">0</property>
    <property name="kdenlive:collapsed">0</property>
   </filter>
  </entry>
  <entry producer="producer10" in="00:00:00.000" out="00:02:07.533">
   <property name="kdenlive:id">12</property>
   <filter id="filter58">
    <property name="rotate_center">1</property>
    <property name="mlt_service">qtblend</property>
    <property name="kdenlive_id">qtblend</property>
    <property name="rect">00:00:00.000=835 417 166 121 1.000000</property>
    <property name="rotation">00:00:00.000=0</property>
    <property name="compositing">0</property>
    <property name="distort">0</property>
   </filter>
  </entry>
  <entry producer="producer73" in="00:46:04.767" out="00:46:04.967">
   <property name="kdenlive:id">2</property>
   <filter id="filter59">
    <property name="rotate_center">1</property>
    <property name="mlt_service">qtblend</property>
    <property name="kdenlive_id">qtblend</property>
    <property name="rect">00:46:04.767=0 814 1280 720 1.000000;00:46:04.967=0 0 1280 720 1.000000</property>
    <property name="rotation">00:46:04.767=0;00:46:04.967=0</property>
    <property name="compositing">0</property>
    <property name="distort">0</property>
    <property name="kdenlive:collapsed">0</property>
   </filter>
  </entry>
  <entry producer="producer10" in="00:00:00.000" out="00:00:40.767">
   <property name="kdenlive:id">12</property>
   <filter id="filter60">
    <property name="rotate_center">1</property>
    <property name="mlt_service">qtblend</property>
    <property name="kdenlive_id">qtblend</property>
    <property name="rect">00:00:00.000=835 417 166 121 1.000000</property>
    <property name="rotation">00:00:00.000=0</property>
    <property name="compositing">0</property>
    <property name="distort">0</property>
   </filter>
  </entry>
  <entry producer="producer10" in="00:00:00.000" out="00:01:19.900">
   <property name="kdenlive:id">12</property>
   <filter id="filter61">
    <property name="rotate_center">1</property>
    <property name="mlt_service">qtblend</property>
    <property name="kdenlive_id">qtblend</property>
    <property name="rect">00:00:00.000=835 417 166 121 1.000000</property>
    <property name="rotation">00:00:00.000=0</property>
    <property name="compositing">0</property>
    <property name="distort">0</property>
   </filter>
  </entry>
 </playlist>
 <playlist id="playlist11"/>
 <tractor id="tractor5" in="00:00:00.000" out="00:30:58.767">
  <property name="kdenlive:trackheight">67</property>
  <property name="kdenlive:timeline_active">1</property>
  <property name="kdenlive:collapsed">0</property>
  <property name="kdenlive:thumbs_format"/>
  <property name="kdenlive:audio_rec"/>
  <track hide="audio" producer="playlist10"/>
  <track producer="playlist11"/>
 </tractor>
 <playlist id="playlist12">
  <blank length="00:00:00.233"/>
  <entry producer="producer14" in="00:00:00.000" out="00:00:53.433">
   <property name="kdenlive:id">22</property>
   <property name="kdenlive:activeeffect">0</property>
   <filter id="filter62">
    <property name="rotate_center">1</property>
    <property name="mlt_service">qtblend</property>
    <property name="kdenlive_id">qtblend</property>
    <property name="rect">00:00:00.000=-576 23 640 360 1.000000;00:00:00.200=18 23 640 360 1.000000</property>
    <property name="rotation">00:00:00.000=0;00:00:00.200=0</property>
    <property name="compositing">0</property>
    <property name="distort">0</property>
    <property name="kdenlive:collapsed">0</property>
   </filter>
  </entry>
  <entry producer="producer14" in="00:00:00.000" out="00:00:00.400">
   <property name="kdenlive:id">22</property>
   <filter id="filter63">
    <property name="rotate_center">1</property>
    <property name="mlt_service">qtblend</property>
    <property name="kdenlive_id">qtblend</property>
    <property name="rect">00:00:00.000=18 23 640 360 1.000000;00:00:00.400=332 199 12 7 1.000000</property>
    <property name="rotation">00:00:00.000=0;00:00:00.400=0</property>
    <property name="compositing">0</property>
    <property name="distort">0</property>
    <property name="kdenlive:collapsed">0</property>
   </filter>
  </entry>
  <entry producer="producer17" in="00:00:00.000" out="00:00:49.233">
   <property name="kdenlive:id">25</property>
   <filter id="filter64">
    <property name="rotate_center">1</property>
    <property name="mlt_service">qtblend</property>
    <property name="kdenlive_id">qtblend</property>
    <property name="rect">00:00:00.000=18 23 640 360 1.000000</property>
    <property name="rotation">00:00:00.000=0</property>
    <property name="compositing">0</property>
    <property name="distort">0</property>
    <property name="kdenlive:collapsed">0</property>
   </filter>
  </entry>
  <entry producer="producer17" in="00:00:00.000" out="00:00:00.200">
   <property name="kdenlive:id">25</property>
   <filter id="filter65">
    <property name="rotate_center">1</property>
    <property name="mlt_service">qtblend</property>
    <property name="kdenlive_id">qtblend</property>
    <property name="rect">00:00:00.000=18 23 640 360 1.000000;00:00:00.200=332 199 12 7 1.000000</property>
    <property name="rotation">00:00:00.000=0;00:00:00.200=0</property>
    <property name="compositing">0</property>
    <property name="distort">0</property>
    <property name="kdenlive:collapsed">0</property>
   </filter>
  </entry>
  <entry producer="producer19" in="00:00:00.000" out="00:00:25.767">
   <property name="kdenlive:id">27</property>
   <filter id="filter66">
    <property name="rotate_center">1</property>
    <property name="mlt_service">qtblend</property>
    <property name="kdenlive_id">qtblend</property>
    <property name="rect">00:00:00.000=18 23 640 360 1.000000</property>
    <property name="rotation">00:00:00.000=0</property>
    <property name="compositing">0</property>
    <property name="distort">0</property>
    <property name="kdenlive:collapsed">0</property>
   </filter>
  </entry>
  <entry producer="producer19" in="00:00:00.000" out="00:00:00.400">
   <property name="kdenlive:id">27</property>
   <filter id="filter67">
    <property name="rotate_center">1</property>
    <property name="mlt_service">qtblend</property>
    <property name="kdenlive_id">qtblend</property>
    <property name="rect">00:00:00.000=18 23 640 360 1.000000;00:00:00.400=332 199 12 7 1.000000</property>
    <property name="rotation">00:00:00.000=0;00:00:00.400=0</property>
    <property name="compositing">0</property>
    <property name="distort">0</property>
    <property name="kdenlive:collapsed">0</property>
   </filter>
  </entry>
  <entry producer="producer21" in="00:00:00.000" out="00:00:36.300">
   <property name="kdenlive:id">29</property>
   <filter id="filter68">
    <property name="rotate_center">1</property>
    <property name="mlt_service">qtblend</property>
    <property name="kdenlive_id">qtblend</property>
    <property name="rect">00:00:00.000=18 23 640 360 1.000000</property>
    <property name="rotation">00:00:00.000=0</property>
    <property name="compositing">0</property>
    <property name="distort">0</property>
    <property name="kdenlive:collapsed">0</property>
   </filter>
  </entry>
  <entry producer="producer21" in="00:00:00.000" out="00:00:00.267">
   <property name="kdenlive:id">29</property>
   <filter id="filter69">
    <property name="rotate_center">1</property>
    <property name="mlt_service">qtblend</property>
    <property name="kdenlive_id">qtblend</property>
    <property name="rect">00:00:00.000=18 23 640 360 1.000000;00:00:00.267=332 199 12 7 1.000000</property>
    <property name="rotation">00:00:00.000=0;00:00:00.267=0</property>
    <property name="compositing">0</property>
    <property name="distort">0</property>
    <property name="kdenlive:collapsed">0</property>
   </filter>
  </entry>
  <entry producer="producer23" in="00:00:00.000" out="00:00:08.167">
   <property name="kdenlive:id">31</property>
   <filter id="filter70">
    <property name="rotate_center">1</property>
    <property name="mlt_service">qtblend</property>
    <property name="kdenlive_id">qtblend</property>
    <property name="rect">00:00:00.000=18 23 640 360 1.000000</property>
    <property name="rotation">00:00:00.000=0</property>
    <property name="compositing">0</property>
    <property name="distort">0</property>
    <property name="kdenlive:collapsed">0</property>
   </filter>
  </entry>
  <entry producer="producer23" in="00:00:00.000" out="00:00:00.200">
   <property name="kdenlive:id">31</property>
   <filter id="filter71">
    <property name="rotate_center">1</property>
    <property name="mlt_service">qtblend</property>
    <property name="kdenlive_id">qtblend</property>
    <property name="rect">00:00:00.000=18 23 640 360 1.000000;00:00:00.200=332 199 12 7 1.000000</property>
    <property name="rotation">00:00:00.000=0;00:00:00.200=0</property>
    <property name="compositing">0</property>
    <property name="distort">0</property>
    <property name="kdenlive:collapsed">0</property>
   </filter>
  </entry>
  <entry producer="producer25" in="00:00:00.000" out="00:00:28.033">
   <property name="kdenlive:id">33</property>
   <filter id="filter72">
    <property name="rotate_center">1</property>
    <property name="mlt_service">qtblend</property>
    <property name="kdenlive_id">qtblend</property>
    <property name="rect">00:00:00.000=18 23 640 360 1.000000</property>
    <property name="rotation">00:00:00.000=0</property>
    <property name="compositing">0</property>
    <property name="distort">0</property>
    <property name="kdenlive:collapsed">0</property>
   </filter>
  </entry>
  <entry producer="producer25" in="00:00:00.000" out="00:00:00.267">
   <property name="kdenlive:id">33</property>
   <filter id="filter73">
    <property name="rotate_center">1</property>
    <property name="mlt_service">qtblend</property>
    <property name="kdenlive_id">qtblend</property>
    <property name="rect">00:00:00.000=18 23 640 360 1.000000;00:00:00.267=332 199 12 7 1.000000</property>
    <property name="rotation">00:00:00.000=0;00:00:00.267=0</property>
    <property name="compositing">0</property>
    <property name="distort">0</property>
    <property name="kdenlive:collapsed">0</property>
   </filter>
  </entry>
  <entry producer="producer27" in="00:00:00.000" out="00:00:19.667">
   <property name="kdenlive:id">35</property>
   <filter id="filter74">
    <property name="rotate_center">1</property>
    <property name="mlt_service">qtblend</property>
    <property name="kdenlive_id">qtblend</property>
    <property name="rect">00:00:00.000=18 23 640 360 1.000000</property>
    <property name="rotation">00:00:00.000=0</property>
    <property name="compositing">0</property>
    <property name="distort">0</property>
    <property name="kdenlive:collapsed">0</property>
   </filter>
  </entry>
  <entry producer="producer28" in="00:00:00.000" out="00:00:08.367">
   <property name="kdenlive:id">36</property>
   <filter id="filter75">
    <property name="rotate_center">1</property>
    <property name="mlt_service">qtblend</property>
    <property name="kdenlive_id">qtblend</property>
    <property name="rect">00:00:00.000=18 23 640 360 1.000000</property>
    <property name="rotation">00:00:00.000=0</property>
    <property name="compositing">0</property>
    <property name="distort">0</property>
    <property name="kdenlive:collapsed">0</property>
   </filter>
  </entry>
  <entry producer="producer28" in="00:00:00.000" out="00:00:00.200">
   <property name="kdenlive:id">36</property>
   <filter id="filter76">
    <property name="rotate_center">1</property>
    <property name="mlt_service">qtblend</property>
    <property name="kdenlive_id">qtblend</property>
    <property name="rect">00:00:00.000=18 23 640 360 1.000000;00:00:00.200=332 199 12 7 1.000000</property>
    <property name="rotation">00:00:00.000=0;00:00:00.200=0</property>
    <property name="compositing">0</property>
    <property name="distort">0</property>
    <property name="kdenlive:collapsed">0</property>
   </filter>
  </entry>
  <entry producer="producer30" in="00:00:00.000" out="00:00:23.467">
   <property name="kdenlive:id">38</property>
   <filter id="filter77">
    <property name="rotate_center">1</property>
    <property name="mlt_service">qtblend</property>
    <property name="kdenlive_id">qtblend</property>
    <property name="rect">00:00:00.000=18 23 640 360 1.000000</property>
    <property name="rotation">00:00:00.000=0</property>
    <property name="compositing">0</property>
    <property name="distort">0</property>
    <property name="kdenlive:collapsed">0</property>
   </filter>
  </entry>
  <entry producer="producer30" in="00:00:00.000" out="00:00:00.200">
   <property name="kdenlive:id">38</property>
   <filter id="filter78">
    <property name="rotate_center">1</property>
    <property name="mlt_service">qtblend</property>
    <property name="kdenlive_id">qtblend</property>
    <property name="rect">00:00:00.000=18 23 640 360 1.000000;00:00:00.200=332 199 12 7 1.000000</property>
    <property name="rotation">00:00:00.000=0;00:00:00.200=0</property>
    <property name="compositing">0</property>
    <property name="distort">0</property>
    <property name="kdenlive:collapsed">0</property>
   </filter>
  </entry>
  <entry producer="producer32" in="00:00:00.000" out="00:01:11.500">
   <property name="kdenlive:id">40</property>
   <filter id="filter79">
    <property name="rotate_center">1</property>
    <property name="mlt_service">qtblend</property>
    <property name="kdenlive_id">qtblend</property>
    <property name="rect">00:00:00.000=18 23 640 360 1.000000;00:00:38.000=18 23 640 360 1.000000;00:00:38.133=18 14 640 360 1.000000;00:00:38.267=18 23 640 360 1.000000</property>
    <property name="rotation">00:00:00.000=0;00:00:38.000=0;00:00:38.133=0;00:00:38.267=0</property>
    <property name="compositing">0</property>
    <property name="distort">0</property>
    <property name="kdenlive:collapsed">0</property>
   </filter>
  </entry>
  <entry producer="producer32" in="00:00:00.000" out="00:00:00.500">
   <property name="kdenlive:id">40</property>
   <filter id="filter80">
    <property name="rotate_center">1</property>
    <property name="mlt_service">qtblend</property>
    <property name="kdenlive_id">qtblend</property>
    <property name="rect">00:00:00.000=18 23 640 360 1.000000;00:00:00.500=332 199 12 7 1.000000</property>
    <property name="rotation">00:00:00.000=0;00:00:00.500=0</property>
    <property name="compositing">0</property>
    <property name="distort">0</property>
    <property name="kdenlive:collapsed">0</property>
   </filter>
  </entry>
  <entry producer="producer34" in="00:00:00.000" out="00:01:40.933">
   <property name="kdenlive:id">42</property>
   <filter id="filter81">
    <property name="rotate_center">1</property>
    <property name="mlt_service">qtblend</property>
    <property name="kdenlive_id">qtblend</property>
    <property name="rect">00:00:00.000=18 23 640 360 1.000000;00:01:40.933=18 23 640 360 1.000000</property>
    <property name="rotation">00:00:00.000=0;00:01:40.933=0</property>
    <property name="compositing">0</property>
    <property name="distort">0</property>
    <property name="kdenlive:collapsed">0</property>
   </filter>
  </entry>
  <entry producer="producer34" in="00:00:00.000" out="00:00:00.267">
   <property name="kdenlive:id">42</property>
   <filter id="filter82">
    <property name="rotate_center">1</property>
    <property name="mlt_service">qtblend</property>
    <property name="kdenlive_id">qtblend</property>
    <property name="rect">00:00:00.000=16 22 640 360 1.000000;00:00:00.267=332 199 12 7 1.000000</property>
    <property name="rotation">00:00:00.000=0;00:00:00.267=0</property>
    <property name="compositing">0</property>
    <property name="distort">0</property>
    <property name="kdenlive:collapsed">0</property>
   </filter>
  </entry>
  <entry producer="producer37" in="00:00:00.000" out="00:00:13.033">
   <property name="kdenlive:id">45</property>
   <filter id="filter83">
    <property name="rotate_center">1</property>
    <property name="mlt_service">qtblend</property>
    <property name="kdenlive_id">qtblend</property>
    <property name="rect">00:00:00.000=18 23 640 360 1.000000;00:00:13.033=18 23 640 360 1.000000</property>
    <property name="rotation">00:00:00.000=0;00:00:13.033=0</property>
    <property name="compositing">0</property>
    <property name="distort">0</property>
    <property name="kdenlive:collapsed">0</property>
   </filter>
  </entry>
  <entry producer="producer37" in="00:00:00.000" out="00:00:00.333">
   <property name="kdenlive:id">45</property>
   <filter id="filter84">
    <property name="rotate_center">1</property>
    <property name="mlt_service">qtblend</property>
    <property name="kdenlive_id">qtblend</property>
    <property name="rect">00:00:00.000=18 23 640 360 1.000000;00:00:00.333=332 199 12 7 1.000000</property>
    <property name="rotation">00:00:00.000=0;00:00:00.333=0</property>
    <property name="compositing">0</property>
    <property name="distort">0</property>
    <property name="kdenlive:collapsed">0</property>
   </filter>
  </entry>
  <entry producer="producer39" in="00:00:00.000" out="00:00:11.900">
   <property name="kdenlive:id">47</property>
   <filter id="filter85">
    <property name="rotate_center">1</property>
    <property name="mlt_service">qtblend</property>
    <property name="kdenlive_id">qtblend</property>
    <property name="rect">00:00:00.000=18 23 640 360 1.000000;00:00:11.667=18 23 640 360 1.000000;00:00:11.900=-576 23 640 360 1.000000</property>
    <property name="rotation">00:00:00.000=0;00:00:11.667=0;00:00:11.900=0</property>
    <property name="compositing">0</property>
    <property name="distort">0</property>
    <property name="kdenlive:collapsed">0</property>
   </filter>
  </entry>
  <blank length="00:00:00.567"/>
  <entry producer="producer10" in="00:00:00.000" out="00:00:00.500">
   <property name="kdenlive:id">12</property>
   <filter id="filter86">
    <property name="rotate_center">1</property>
    <property name="mlt_service">qtblend</property>
    <property name="kdenlive_id">qtblend</property>
    <property name="rect">00:00:00.000=153 768 347 187 1.000000;00:00:00.067=153 671 347 187 1.000000;00:00:00.167=153 444 347 187 1.000000</property>
    <property name="rotation">00:00:00.000=0;00:00:00.067=0;00:00:00.167=0</property>
    <property name="compositing">0</property>
    <property name="distort">0</property>
    <property name="kdenlive:collapsed">0</property>
   </filter>
  </entry>
  <entry producer="producer41" in="00:00:00.000" out="00:00:24.733">
   <property name="kdenlive:id">49</property>
   <filter id="filter87">
    <property name="rotate_center">1</property>
    <property name="mlt_service">qtblend</property>
    <property name="kdenlive_id">qtblend</property>
    <property name="rect">00:00:00.000=18 23 640 360 1.000000;00:00:24.733=18 23 640 360 1.000000</property>
    <property name="rotation">00:00:00.000=0;00:00:24.733=0</property>
    <property name="compositing">0</property>
    <property name="distort">0</property>
    <property name="kdenlive:collapsed">0</property>
   </filter>
  </entry>
  <entry producer="producer41" in="00:00:00.000" out="00:00:00.467">
   <property name="kdenlive:id">49</property>
   <filter id="filter88">
    <property name="rotate_center">1</property>
    <property name="mlt_service">qtblend</property>
    <property name="kdenlive_id">qtblend</property>
    <property name="rect">00:00:00.000=18 23 640 360 1.000000;00:00:00.467=332 199 12 7 1.000000</property>
    <property name="rotation">00:00:00.000=0;00:00:00.467=0</property>
    <property name="compositing">0</property>
    <property name="distort">0</property>
    <property name="kdenlive:collapsed">0</property>
   </filter>
  </entry>
  <entry producer="producer43" in="00:00:00.000" out="00:00:19.533">
   <property name="kdenlive:id">51</property>
   <filter id="filter89">
    <property name="rotate_center">1</property>
    <property name="mlt_service">qtblend</property>
    <property name="kdenlive_id">qtblend</property>
    <property name="rect">00:00:00.000=18 23 640 360 1.000000;00:00:19.533=18 23 640 360 1.000000</property>
    <property name="rotation">00:00:00.000=0;00:00:19.533=0</property>
    <property name="compositing">0</property>
    <property name="distort">0</property>
    <property name="kdenlive:collapsed">0</property>
   </filter>
  </entry>
  <entry producer="producer43" in="00:00:00.000" out="00:00:00.200">
   <property name="kdenlive:id">51</property>
   <filter id="filter90">
    <property name="rotate_center">1</property>
    <property name="mlt_service">qtblend</property>
    <property name="kdenlive_id">qtblend</property>
    <property name="rect">00:00:00.000=18 23 640 360 1.000000;00:00:00.200=332 199 12 7 1.000000</property>
    <property name="rotation">00:00:00.000=0;00:00:00.200=0</property>
    <property name="compositing">0</property>
    <property name="distort">0</property>
    <property name="kdenlive:collapsed">0</property>
   </filter>
  </entry>
  <entry producer="producer45" in="00:00:00.000" out="00:00:29.767">
   <property name="kdenlive:id">53</property>
   <filter id="filter91">
    <property name="rotate_center">1</property>
    <property name="mlt_service">qtblend</property>
    <property name="kdenlive_id">qtblend</property>
    <property name="rect">00:00:00.000=18 23 640 360 1.000000;00:00:29.767=18 23 640 360 1.000000</property>
    <property name="rotation">00:00:00.000=0;00:00:29.767=0</property>
    <property name="compositing">0</property>
    <property name="distort">0</property>
    <property name="kdenlive:collapsed">0</property>
   </filter>
  </entry>
  <entry producer="producer45" in="00:00:00.000" out="00:00:00.333">
   <property name="kdenlive:id">53</property>
   <filter id="filter92">
    <property name="rotate_center">1</property>
    <property name="mlt_service">qtblend</property>
    <property name="kdenlive_id">qtblend</property>
    <property name="rect">00:00:00.000=18 23 640 360 1.000000;00:00:00.333=332 199 12 7 1.000000</property>
    <property name="rotation">00:00:00.000=0;00:00:00.333=0</property>
    <property name="compositing">0</property>
    <property name="distort">0</property>
    <property name="kdenlive:collapsed">0</property>
   </filter>
  </entry>
  <entry producer="producer48" in="00:00:00.000" out="00:00:20.000">
   <property name="kdenlive:id">56</property>
   <filter id="filter93">
    <property name="rotate_center">1</property>
    <property name="mlt_service">qtblend</property>
    <property name="kdenlive_id">qtblend</property>
    <property name="rect">00:00:00.000=18 23 640 360 1.000000;00:00:20.000=18 23 640 360 1.000000</property>
    <property name="rotation">00:00:00.000=0;00:00:20.000=0</property>
    <property name="compositing">0</property>
    <property name="distort">0</property>
    <property name="kdenlive:collapsed">0</property>
   </filter>
  </entry>
  <entry producer="producer48" in="00:00:00.000" out="00:00:00.300">
   <property name="kdenlive:id">56</property>
   <filter id="filter94">
    <property name="rotate_center">1</property>
    <property name="mlt_service">qtblend</property>
    <property name="kdenlive_id">qtblend</property>
    <property name="rect">00:00:00.000=18 23 640 360 1.000000;00:00:00.300=332 199 12 7 1.000000</property>
    <property name="rotation">00:00:00.000=0;00:00:00.300=0</property>
    <property name="compositing">0</property>
    <property name="distort">0</property>
    <property name="kdenlive:collapsed">0</property>
   </filter>
  </entry>
  <entry producer="producer50" in="00:00:00.000" out="00:01:05.633">
   <property name="kdenlive:id">58</property>
   <filter id="filter95">
    <property name="rotate_center">1</property>
    <property name="mlt_service">qtblend</property>
    <property name="kdenlive_id">qtblend</property>
    <property name="rect">00:00:00.000=18 23 640 360 1.000000;00:01:05.633=18 23 640 360 1.000000</property>
    <property name="rotation">00:00:00.000=0;00:01:05.633=0</property>
    <property name="compositing">0</property>
    <property name="distort">0</property>
    <property name="kdenlive:collapsed">0</property>
   </filter>
   <filter id="filter96" in="00:00:54.800" out="00:01:05.633">
    <property name="start">1</property>
    <property name="mlt_service">brightness</property>
    <property name="kdenlive_id">fade_to_black</property>
    <property name="end">0</property>
    <property name="alpha">-1</property>
    <property name="kdenlive:collapsed">0</property>
   </filter>
  </entry>
  <blank length="00:00:11.700"/>
  <entry producer="producer10" in="00:00:00.000" out="00:00:00.133">
   <property name="kdenlive:id">12</property>
   <filter id="filter97">
    <property name="rotate_center">1</property>
    <property name="mlt_service">qtblend</property>
    <property name="kdenlive_id">qtblend</property>
    <property name="rect">00:00:00.000=153 691 347 187 1.000000;00:00:00.067=153 444 347 187 1.000000</property>
    <property name="rotation">00:00:00.000=0;00:00:00.067=0</property>
    <property name="compositing">0</property>
    <property name="distort">0</property>
    <property name="kdenlive:collapsed">0</property>
   </filter>
  </entry>
  <blank length="00:00:04.900"/>
  <entry producer="producer54" in="00:00:00.000" out="00:00:01.300">
   <property name="kdenlive:id">62</property>
   <filter id="filter98">
    <property name="rotate_center">1</property>
    <property name="mlt_service">qtblend</property>
    <property name="kdenlive_id">qtblend</property>
    <property name="rect">00:00:00.000~=0 379 1280 720 1.000000;00:00:00.167=0 105 1280 720 1.000000;00:00:00.267=0 93 1280 720 1.000000;00:00:00.367=0 105 1280 720 1.000000;00:00:01.100=0 105 1280 720 1.000000;00:00:01.200=0 81 1280 720 1.000000;00:00:01.300=0 396 1280 720 1.000000</property>
    <property name="rotation">00:00:00.000~=0;00:00:00.167=0;00:00:00.267=0;00:00:00.367=0;00:00:01.100=0;00:00:01.200=0;00:00:01.300=0</property>
    <property name="compositing">0</property>
    <property name="distort">0</property>
    <property name="kdenlive:collapsed">0</property>
   </filter>
  </entry>
  <entry producer="producer53" in="00:00:00.000" out="00:00:00.200">
   <property name="kdenlive:id">61</property>
   <filter id="filter99">
    <property name="rotate_center">1</property>
    <property name="mlt_service">qtblend</property>
    <property name="kdenlive_id">qtblend</property>
    <property name="rect">00:00:00.000=-566 23 640 360 1.000000;00:00:00.200=18 23 640 360 1.000000</property>
    <property name="rotation">00:00:00.000=0;00:00:00.200=0</property>
    <property name="compositing">0</property>
    <property name="distort">0</property>
    <property name="kdenlive:collapsed">0</property>
   </filter>
  </entry>
  <entry producer="producer53" in="00:00:00.000" out="00:00:45.800">
   <property name="kdenlive:id">61</property>
   <filter id="filter100">
    <property name="rotate_center">1</property>
    <property name="mlt_service">qtblend</property>
    <property name="kdenlive_id">qtblend</property>
    <property name="rect">00:00:00.000=18 23 640 360 1.000000;00:00:45.800=18 23 640 360 1.000000</property>
    <property name="rotation">00:00:00.000=0;00:00:45.800=0</property>
    <property name="compositing">0</property>
    <property name="distort">0</property>
    <property name="kdenlive:collapsed">0</property>
   </filter>
  </entry>
  <entry producer="producer53" in="00:00:00.000" out="00:00:00.400">
   <property name="kdenlive:id">61</property>
   <filter id="filter101">
    <property name="rotate_center">1</property>
    <property name="mlt_service">qtblend</property>
    <property name="kdenlive_id">qtblend</property>
    <property name="rect">00:00:00.000=18 23 640 360 1.000000;00:00:00.400=332 199 12 7 1.000000</property>
    <property name="rotation">00:00:00.000=0;00:00:00.400=0</property>
    <property name="compositing">0</property>
    <property name="distort">0</property>
    <property name="kdenlive:collapsed">0</property>
   </filter>
  </entry>
  <entry producer="producer56" in="00:00:00.000" out="00:00:21.567">
   <property name="kdenlive:id">64</property>
   <filter id="filter102">
    <property name="rotate_center">1</property>
    <property name="mlt_service">qtblend</property>
    <property name="kdenlive_id">qtblend</property>
    <property name="rect">00:00:00.000=18 23 640 360 1.000000;00:00:21.567=18 23 640 360 1.000000</property>
    <property name="rotation">00:00:00.000=0;00:00:21.567=0</property>
    <property name="compositing">0</property>
    <property name="distort">0</property>
    <property name="kdenlive:collapsed">0</property>
   </filter>
  </entry>
  <entry producer="producer56" in="00:00:00.000" out="00:00:00.767">
   <property name="kdenlive:id">64</property>
   <filter id="filter103">
    <property name="rotate_center">1</property>
    <property name="mlt_service">qtblend</property>
    <property name="kdenlive_id">qtblend</property>
    <property name="rect">00:00:00.000=18 23 640 360 1.000000;00:00:00.767=332 199 12 7 1.000000</property>
    <property name="rotation">00:00:00.000=0;00:00:00.767=0</property>
    <property name="compositing">0</property>
    <property name="distort">0</property>
    <property name="kdenlive:collapsed">0</property>
   </filter>
  </entry>
  <entry producer="producer59" in="00:00:00.000" out="00:00:25.033">
   <property name="kdenlive:id">67</property>
   <filter id="filter104">
    <property name="rotate_center">1</property>
    <property name="mlt_service">qtblend</property>
    <property name="kdenlive_id">qtblend</property>
    <property name="rect">00:00:00.000=18 23 640 360 1.000000;00:00:25.033=18 23 640 360 1.000000</property>
    <property name="rotation">00:00:00.000=0;00:00:25.033=0</property>
    <property name="compositing">0</property>
    <property name="distort">0</property>
    <property name="kdenlive:collapsed">0</property>
   </filter>
  </entry>
  <entry producer="producer59" in="00:00:00.000" out="00:00:00.233">
   <property name="kdenlive:id">67</property>
   <filter id="filter105">
    <property name="rotate_center">1</property>
    <property name="mlt_service">qtblend</property>
    <property name="kdenlive_id">qtblend</property>
    <property name="rect">00:00:00.000=18 23 640 360 1.000000;00:00:00.233=332 199 12 7 1.000000</property>
    <property name="rotation">00:00:00.000=0;00:00:00.233=0</property>
    <property name="compositing">0</property>
    <property name="distort">0</property>
    <property name="kdenlive:collapsed">0</property>
   </filter>
  </entry>
  <entry producer="producer61" in="00:00:00.000" out="00:00:07.733">
   <property name="kdenlive:id">69</property>
   <filter id="filter106">
    <property name="rotate_center">1</property>
    <property name="mlt_service">qtblend</property>
    <property name="kdenlive_id">qtblend</property>
    <property name="rect">00:00:00.000=18 23 640 360 1.000000;00:00:07.733=18 23 640 360 1.000000</property>
    <property name="rotation">00:00:00.000=0;00:00:07.733=0</property>
    <property name="compositing">0</property>
    <property name="distort">0</property>
    <property name="kdenlive:collapsed">0</property>
   </filter>
  </entry>
  <entry producer="producer61" in="00:00:00.000" out="00:00:00.367">
   <property name="kdenlive:id">69</property>
   <filter id="filter107">
    <property name="rotate_center">1</property>
    <property name="mlt_service">qtblend</property>
    <property name="kdenlive_id">qtblend</property>
    <property name="rect">00:00:00.000=18 23 640 360 1.000000;00:00:00.367=332 198 12 7 1.000000</property>
    <property name="rotation">00:00:00.000=0;00:00:00.367=0</property>
    <property name="compositing">0</property>
    <property name="distort">0</property>
    <property name="kdenlive:collapsed">0</property>
   </filter>
  </entry>
  <entry producer="producer63" in="00:00:00.000" out="00:00:04.567">
   <property name="kdenlive:id">71</property>
   <filter id="filter108">
    <property name="rotate_center">1</property>
    <property name="mlt_service">qtblend</property>
    <property name="kdenlive_id">qtblend</property>
    <property name="rect">00:00:00.000=18 23 640 360 1.000000;00:00:07.733=18 23 640 360 1.000000</property>
    <property name="rotation">00:00:00.000=0;00:00:07.733=0</property>
    <property name="compositing">0</property>
    <property name="distort">0</property>
    <property name="kdenlive:collapsed">0</property>
   </filter>
   <filter id="filter109" in="00:00:01.567" out="00:00:04.567">
    <property name="start">1</property>
    <property name="mlt_service">brightness</property>
    <property name="kdenlive_id">fade_to_black</property>
    <property name="end">0</property>
    <property name="alpha">-1</property>
   </filter>
  </entry>
  <blank length="00:00:27.933"/>
  <entry producer="producer8" in="00:00:00.000" out="00:00:01.067">
   <property name="kdenlive:id">10</property>
  </entry>
  <entry producer="producer8" in="00:00:00.000" out="00:00:04.900">
   <property name="kdenlive:id">10</property>
  </entry>
  <blank length="00:00:01.000"/>
  <entry producer="producer4" in="00:00:00.000" out="00:00:03.400">
   <property name="kdenlive:id">6</property>
   <filter id="filter110">
    <property name="rotate_center">1</property>
    <property name="mlt_service">qtblend</property>
    <property name="kdenlive_id">qtblend</property>
    <property name="rect">00:00:00.000=0 558 1280 720 1.000000;00:00:00.200=0 0 1280 720 1.000000;00:00:03.100=0 0 1280 720 1.000000;00:00:03.200=-60 -34 1401 788 1.000000;00:00:03.400=633 354 12 7 1.000000</property>
    <property name="rotation">00:00:00.000=0;00:00:00.200=0;00:00:03.100=0;00:00:03.200=0;00:00:03.400=0</property>
    <property name="compositing">0</property>
    <property name="distort">0</property>
    <property name="kdenlive:collapsed">0</property>
   </filter>
  </entry>
  <blank length="00:00:03.400"/>
  <entry producer="producer65" in="00:00:00.000" out="00:00:04.833">
   <property name="kdenlive:id">73</property>
   <property name="kdenlive:activeeffect">0</property>
   <filter id="filter111">
    <property name="rotate_center">1</property>
    <property name="mlt_service">qtblend</property>
    <property name="kdenlive_id">qtblend</property>
    <property name="rect">00:00:00.000=224 720 832 468 1.000000;00:00:00.300=224 102 832 468 1.000000;00:00:00.367=224 129 832 468 1.000000;00:00:00.433=224 126 832 468 1.000000;00:00:04.600=224 126 832 468 1.000000;00:00:04.700=192 108 896 504 1.000000;00:00:04.833=633 356 12 7 1.000000</property>
    <property name="rotation">00:00:00.000=0;00:00:00.300=0;00:00:00.367=0;00:00:00.433=0;00:00:04.600=0;00:00:04.700=0;00:00:04.833=0</property>
    <property name="compositing">0</property>
    <property name="distort">0</property>
    <property name="kdenlive:collapsed">0</property>
   </filter>
  </entry>
  <blank length="00:03:39.367"/>
  <entry producer="producer10" in="00:00:00.000" out="00:00:00.200">
   <property name="kdenlive:id">12</property>
   <filter id="filter112">
    <property name="rotate_center">1</property>
    <property name="mlt_service">qtblend</property>
    <property name="kdenlive_id">qtblend</property>
    <property name="rect">00:00:00.000=153 685 347 187 1.000000;00:00:00.033=153 565 347 187 1.000000;00:00:00.067=153 444 347 187 1.000000</property>
    <property name="rotation">00:00:00.000=0;00:00:00.033=0;00:00:00.067=0</property>
    <property name="compositing">0</property>
    <property name="distort">0</property>
    <property name="kdenlive:collapsed">0</property>
   </filter>
  </entry>
  <blank length="00:00:03.700"/>
  <entry producer="producer66" in="00:00:00.000" out="00:00:02.933">
   <property name="kdenlive:id">74</property>
   <property name="kdenlive:activeeffect">0</property>
   <filter id="filter113">
    <property name="rotate_center">1</property>
    <property name="mlt_service">qtblend</property>
    <property name="kdenlive_id">qtblend</property>
    <property name="rect">00:00:00.000=885 34 1280 720 1.000000;00:00:00.167=388 79 1280 720 1.000000;00:00:00.267=392 75 1280 720 1.000000;00:00:00.367=388 79 1280 720 1.000000;00:00:02.733=388 79 1280 720 1.000000;00:00:02.800=388 69 1280 720 1.000000;00:00:02.933=388 735 1280 720 1.000000</property>
    <property name="rotation">00:00:00.000=0;00:00:00.167=-16;00:00:00.267=-11;00:00:00.367=-14;00:00:02.733=-14;00:00:02.800=-14;00:00:02.933=-14</property>
    <property name="compositing">0</property>
    <property name="distort">0</property>
    <property name="kdenlive:collapsed">0</property>
   </filter>
  </entry>
  <blank length="00:00:49.600"/>
  <entry producer="producer7" in="00:00:00.000" out="00:00:04.367">
   <property name="kdenlive:id">9</property>
   <filter id="filter114">
    <property name="rotate_center">1</property>
    <property name="mlt_service">qtblend</property>
    <property name="kdenlive_id">qtblend</property>
    <property name="rect">00:00:00.000=165 877 949 533 1.000000;00:00:00.300=64 36 1152 648 1.000000;00:00:04.133=34 19 1210 680 1.000000;00:00:04.200=-123 -69 1525 857 1.000000;00:00:04.367=630 354 12 7 1.000000</property>
    <property name="rotation">00:00:00.000=0;00:00:00.300=0;00:00:04.133=0;00:00:04.200=0;00:00:04.367=0</property>
    <property name="compositing">0</property>
    <property name="distort">0</property>
    <property name="kdenlive:collapsed">0</property>
   </filter>
  </entry>
  <blank length="00:00:53.767"/>
  <entry producer="producer10" in="00:00:00.000" out="00:00:00.067">
   <property name="kdenlive:id">12</property>
   <filter id="filter115">
    <property name="rotate_center">1</property>
    <property name="mlt_service">qtblend</property>
    <property name="kdenlive_id">qtblend</property>
    <property name="rect">00:00:00.000=153 653 347 187 1.000000;00:00:00.067=153 444 347 187 1.000000</property>
    <property name="rotation">00:00:00.000=0;00:00:00.067=0</property>
    <property name="compositing">0</property>
    <property name="distort">0</property>
    <property name="kdenlive:collapsed">0</property>
   </filter>
  </entry>
  <blank length="00:00:57.200"/>
  <entry producer="producer10" in="00:00:00.000" out="00:00:00.033">
   <property name="kdenlive:id">12</property>
   <filter id="filter116">
    <property name="rotate_center">1</property>
    <property name="mlt_service">qtblend</property>
    <property name="kdenlive_id">qtblend</property>
    <property name="rect">00:00:00.000=153 594 347 187 1.000000;00:00:00.033=153 444 347 187 1.000000</property>
    <property name="rotation">00:00:00.000=0;00:00:00.033=0</property>
    <property name="compositing">0</property>
    <property name="distort">0</property>
    <property name="kdenlive:collapsed">0</property>
   </filter>
  </entry>
  <blank length="00:04:47.333"/>
  <entry producer="producer10" in="00:00:00.000" out="00:00:00.067">
   <property name="kdenlive:id">12</property>
   <filter id="filter117">
    <property name="rotate_center">1</property>
    <property name="mlt_service">qtblend</property>
    <property name="kdenlive_id">qtblend</property>
    <property name="rect">00:00:00.000=835 667 166 121 1.000000;00:00:00.067=835 417 166 121 1.000000</property>
    <property name="rotation">00:00:00.000=0;00:00:00.067=0</property>
    <property name="compositing">0</property>
    <property name="distort">0</property>
    <property name="kdenlive:collapsed">0</property>
   </filter>
  </entry>
  <blank length="00:02:05.733"/>
  <entry producer="producer10" in="00:00:00.000" out="00:00:00.067">
   <property name="kdenlive:id">12</property>
   <filter id="filter118">
    <property name="rotate_center">1</property>
    <property name="mlt_service">qtblend</property>
    <property name="kdenlive_id">qtblend</property>
    <property name="rect">00:00:00.000=835 685 166 121 1.000000;00:00:00.067=835 417 166 121 1.000000</property>
    <property name="rotation">00:00:00.000=0;00:00:00.067=0</property>
    <property name="compositing">0</property>
    <property name="distort">0</property>
    <property name="kdenlive:collapsed">0</property>
   </filter>
  </entry>
  <blank length="00:00:17.300"/>
  <entry producer="producer10" in="00:00:00.000" out="00:00:00.067">
   <property name="kdenlive:id">12</property>
   <filter id="filter119">
    <property name="rotate_center">1</property>
    <property name="mlt_service">qtblend</property>
    <property name="kdenlive_id">qtblend</property>
    <property name="rect">00:00:00.000=835 671 166 121 1.000000;00:00:00.067=835 417 166 121 1.000000</property>
    <property name="rotation">00:00:00.000=0;00:00:00.067=0</property>
    <property name="compositing">0</property>
    <property name="distort">0</property>
    <property name="kdenlive:collapsed">0</property>
   </filter>
  </entry>
  <blank length="00:02:07.700"/>
  <entry producer="producer10" in="00:00:00.000" out="00:00:00.067">
   <property name="kdenlive:id">12</property>
   <filter id="filter120">
    <property name="rotate_center">1</property>
    <property name="mlt_service">qtblend</property>
    <property name="kdenlive_id">qtblend</property>
    <property name="rect">00:00:00.000=835 685 166 121 1.000000;00:00:00.067=835 417 166 121 1.000000</property>
    <property name="rotation">00:00:00.000=0;00:00:00.067=0</property>
    <property name="compositing">0</property>
    <property name="distort">0</property>
    <property name="kdenlive:collapsed">0</property>
   </filter>
  </entry>
 </playlist>
 <playlist id="playlist13"/>
 <tractor id="tractor6" in="00:00:00.000" out="00:28:58.033">
  <property name="kdenlive:trackheight">67</property>
  <property name="kdenlive:timeline_active">1</property>
  <property name="kdenlive:collapsed">0</property>
  <property name="kdenlive:thumbs_format"/>
  <property name="kdenlive:audio_rec"/>
  <track hide="audio" producer="playlist12"/>
  <track producer="playlist13"/>
 </tractor>
 <playlist id="playlist14">
  <blank length="00:00:40.967"/>
  <entry producer="producer16" in="00:00:00.000" out="00:00:48.733">
   <property name="kdenlive:id">24</property>
   <property name="kdenlive:activeeffect">0</property>
   <filter id="filter121">
    <property name="rotate_center">1</property>
    <property name="mlt_service">qtblend</property>
    <property name="kdenlive_id">qtblend</property>
    <property name="rect">00:00:00.000=1199 28 640 360 1.000000;00:00:00.333=619 28 640 360 1.000000</property>
    <property name="rotation">00:00:00.000=0;00:00:00.333=0</property>
    <property name="compositing">0</property>
    <property name="distort">0</property>
    <property name="kdenlive:collapsed">0</property>
   </filter>
  </entry>
  <entry producer="producer16" in="00:00:00.000" out="00:00:00.233">
   <property name="kdenlive:id">24</property>
   <filter id="filter122">
    <property name="rotate_center">1</property>
    <property name="mlt_service">qtblend</property>
    <property name="kdenlive_id">qtblend</property>
    <property name="rect">00:00:00.000=619 28 640 360 1.000000;00:00:00.233=933 204 12 7 1.000000</property>
    <property name="rotation">00:00:00.000=0;00:00:00.233=0</property>
    <property name="compositing">0</property>
    <property name="distort">0</property>
    <property name="kdenlive:collapsed">0</property>
   </filter>
  </entry>
  <entry producer="producer18" in="00:00:00.000" out="00:00:31.033">
   <property name="kdenlive:id">26</property>
   <filter id="filter123">
    <property name="rotate_center">1</property>
    <property name="mlt_service">qtblend</property>
    <property name="kdenlive_id">qtblend</property>
    <property name="rect">00:00:00.000=619 28 640 360 1.000000</property>
    <property name="rotation">00:00:00.000=0</property>
    <property name="compositing">0</property>
    <property name="distort">0</property>
    <property name="kdenlive:collapsed">0</property>
   </filter>
  </entry>
  <entry producer="producer18" in="00:00:00.000" out="00:00:00.167">
   <property name="kdenlive:id">26</property>
   <filter id="filter124">
    <property name="rotate_center">1</property>
    <property name="mlt_service">qtblend</property>
    <property name="kdenlive_id">qtblend</property>
    <property name="rect">00:00:00.000=619 28 640 360 1.000000;00:00:00.167=933 204 12 7 1.000000</property>
    <property name="rotation">00:00:00.000=0;00:00:00.167=0</property>
    <property name="compositing">0</property>
    <property name="distort">0</property>
    <property name="kdenlive:collapsed">0</property>
   </filter>
  </entry>
  <entry producer="producer20" in="00:00:00.000" out="00:00:26.167">
   <property name="kdenlive:id">28</property>
   <filter id="filter125">
    <property name="rotate_center">1</property>
    <property name="mlt_service">qtblend</property>
    <property name="kdenlive_id">qtblend</property>
    <property name="rect">00:00:00.000=619 28 640 360 1.000000</property>
    <property name="rotation">00:00:00.000=0</property>
    <property name="compositing">0</property>
    <property name="distort">0</property>
    <property name="kdenlive:collapsed">0</property>
   </filter>
  </entry>
  <entry producer="producer20" in="00:00:00.000" out="00:00:00.200">
   <property name="kdenlive:id">28</property>
   <filter id="filter126">
    <property name="rotate_center">1</property>
    <property name="mlt_service">qtblend</property>
    <property name="kdenlive_id">qtblend</property>
    <property name="rect">00:00:00.000=619 28 640 360 1.000000;00:00:00.200=933 204 12 7 1.000000</property>
    <property name="rotation">00:00:00.000=0;00:00:00.200=0</property>
    <property name="compositing">0</property>
    <property name="distort">0</property>
    <property name="kdenlive:collapsed">0</property>
   </filter>
  </entry>
  <entry producer="producer22" in="00:00:00.000" out="00:00:21.033">
   <property name="kdenlive:id">30</property>
   <filter id="filter127">
    <property name="rotate_center">1</property>
    <property name="mlt_service">qtblend</property>
    <property name="kdenlive_id">qtblend</property>
    <property name="rect">00:00:00.000=619 28 640 360 1.000000</property>
    <property name="rotation">00:00:00.000=0</property>
    <property name="compositing">0</property>
    <property name="distort">0</property>
    <property name="kdenlive:collapsed">0</property>
   </filter>
  </entry>
  <entry producer="producer22" in="00:00:00.000" out="00:00:00.233">
   <property name="kdenlive:id">30</property>
   <filter id="filter128">
    <property name="rotate_center">1</property>
    <property name="mlt_service">qtblend</property>
    <property name="kdenlive_id">qtblend</property>
    <property name="rect">00:00:00.000=619 28 640 360 1.000000;00:00:00.233=933 204 12 7 1.000000</property>
    <property name="rotation">00:00:00.000=0;00:00:00.233=0</property>
    <property name="compositing">0</property>
    <property name="distort">0</property>
    <property name="kdenlive:collapsed">0</property>
   </filter>
  </entry>
  <entry producer="producer24" in="00:00:00.000" out="00:00:29.367">
   <property name="kdenlive:id">32</property>
   <filter id="filter129">
    <property name="rotate_center">1</property>
    <property name="mlt_service">qtblend</property>
    <property name="kdenlive_id">qtblend</property>
    <property name="rect">00:00:00.000=619 28 640 360 1.000000</property>
    <property name="rotation">00:00:00.000=0</property>
    <property name="compositing">0</property>
    <property name="distort">0</property>
    <property name="kdenlive:collapsed">0</property>
   </filter>
  </entry>
  <entry producer="producer24" in="00:00:00.000" out="00:00:00.267">
   <property name="kdenlive:id">32</property>
   <filter id="filter130">
    <property name="rotate_center">1</property>
    <property name="mlt_service">qtblend</property>
    <property name="kdenlive_id">qtblend</property>
    <property name="rect">00:00:00.000=619 28 640 360 1.000000;00:00:00.267=933 204 12 7 1.000000</property>
    <property name="rotation">00:00:00.000=0;00:00:00.267=0</property>
    <property name="compositing">0</property>
    <property name="distort">0</property>
    <property name="kdenlive:collapsed">0</property>
   </filter>
  </entry>
  <entry producer="producer26" in="00:00:00.000" out="00:00:28.467">
   <property name="kdenlive:id">34</property>
   <filter id="filter131">
    <property name="rotate_center">1</property>
    <property name="mlt_service">qtblend</property>
    <property name="kdenlive_id">qtblend</property>
    <property name="rect">00:00:00.000=619 28 640 360 1.000000</property>
    <property name="rotation">00:00:00.000=0</property>
    <property name="compositing">0</property>
    <property name="distort">0</property>
    <property name="kdenlive:collapsed">0</property>
   </filter>
  </entry>
  <entry producer="producer26" in="00:00:00.000" out="00:00:00.267">
   <property name="kdenlive:id">34</property>
   <filter id="filter132">
    <property name="rotate_center">1</property>
    <property name="mlt_service">qtblend</property>
    <property name="kdenlive_id">qtblend</property>
    <property name="rect">00:00:00.000=619 28 640 360 1.000000;00:00:00.267=933 204 12 7 1.000000</property>
    <property name="rotation">00:00:00.000=0;00:00:00.267=0</property>
    <property name="compositing">0</property>
    <property name="distort">0</property>
    <property name="kdenlive:collapsed">0</property>
   </filter>
  </entry>
  <entry producer="producer29" in="00:00:00.000" out="00:00:06.233">
   <property name="kdenlive:id">37</property>
   <filter id="filter133">
    <property name="rotate_center">1</property>
    <property name="mlt_service">qtblend</property>
    <property name="kdenlive_id">qtblend</property>
    <property name="rect">00:00:00.000=619 28 640 360 1.000000</property>
    <property name="rotation">00:00:00.000=0</property>
    <property name="compositing">0</property>
    <property name="distort">0</property>
    <property name="kdenlive:collapsed">0</property>
   </filter>
  </entry>
  <entry producer="producer29" in="00:00:00.000" out="00:00:00.200">
   <property name="kdenlive:id">37</property>
   <filter id="filter134">
    <property name="rotate_center">1</property>
    <property name="mlt_service">qtblend</property>
    <property name="kdenlive_id">qtblend</property>
    <property name="rect">00:00:00.000=619 28 640 360 1.000000;00:00:00.200=933 204 12 7 1.000000</property>
    <property name="rotation">00:00:00.000=0;00:00:00.200=0</property>
    <property name="compositing">0</property>
    <property name="distort">0</property>
    <property name="kdenlive:collapsed">0</property>
   </filter>
  </entry>
  <entry producer="producer31" in="00:00:00.000" out="00:01:03.600">
   <property name="kdenlive:id">39</property>
   <filter id="filter135">
    <property name="rotate_center">1</property>
    <property name="mlt_service">qtblend</property>
    <property name="kdenlive_id">qtblend</property>
    <property name="rect">00:00:00.000=619 28 640 360 1.000000</property>
    <property name="rotation">00:00:00.000=0</property>
    <property name="compositing">0</property>
    <property name="distort">0</property>
    <property name="kdenlive:collapsed">0</property>
   </filter>
  </entry>
  <entry producer="producer31" in="00:00:00.000" out="00:00:00.167">
   <property name="kdenlive:id">39</property>
   <filter id="filter136">
    <property name="rotate_center">1</property>
    <property name="mlt_service">qtblend</property>
    <property name="kdenlive_id">qtblend</property>
    <property name="rect">00:00:00.000=619 28 640 360 1.000000;00:00:00.167=933 204 12 7 1.000000</property>
    <property name="rotation">00:00:00.000=0;00:00:00.167=0</property>
    <property name="compositing">0</property>
    <property name="distort">0</property>
    <property name="kdenlive:collapsed">0</property>
   </filter>
  </entry>
  <entry producer="producer33" in="00:00:00.000" out="00:00:31.600">
   <property name="kdenlive:id">41</property>
   <filter id="filter137">
    <property name="rotate_center">1</property>
    <property name="mlt_service">qtblend</property>
    <property name="kdenlive_id">qtblend</property>
    <property name="rect">00:00:00.000=619 28 640 360 1.000000</property>
    <property name="rotation">00:00:00.000=0</property>
    <property name="compositing">0</property>
    <property name="distort">0</property>
    <property name="kdenlive:collapsed">0</property>
   </filter>
  </entry>
  <entry producer="producer33" in="00:00:00.000" out="00:00:00.300">
   <property name="kdenlive:id">41</property>
   <filter id="filter138">
    <property name="rotate_center">1</property>
    <property name="mlt_service">qtblend</property>
    <property name="kdenlive_id">qtblend</property>
    <property name="rect">00:00:00.000=619 28 640 360 1.000000;00:00:00.300=933 204 12 7 1.000000</property>
    <property name="rotation">00:00:00.000=0;00:00:00.300=0</property>
    <property name="compositing">0</property>
    <property name="distort">0</property>
    <property name="kdenlive:collapsed">0</property>
   </filter>
  </entry>
  <entry producer="producer35" in="00:00:00.000" out="00:01:41.967">
   <property name="kdenlive:id">43</property>
   <filter id="filter139">
    <property name="rotate_center">1</property>
    <property name="mlt_service">qtblend</property>
    <property name="kdenlive_id">qtblend</property>
    <property name="rect">00:00:00.000=619 28 640 360 1.000000;00:00:53.100=619 28 640 360 1.000000;00:00:53.233=619 16 640 360 1.000000;00:00:53.367=619 28 640 360 1.000000;00:01:08.433=619 28 640 360 1.000000;00:01:08.600=619 17 640 360 1.000000;00:01:08.800=619 28 640 360 1.000000</property>
    <property name="rotation">00:00:00.000=0;00:00:53.100=0;00:00:53.233=0;00:00:53.367=0;00:01:08.433=0;00:01:08.600=0;00:01:08.800=0</property>
    <property name="compositing">0</property>
    <property name="distort">0</property>
    <property name="kdenlive:collapsed">0</property>
   </filter>
  </entry>
  <entry producer="producer35" in="00:00:00.000" out="00:00:00.233">
   <property name="kdenlive:id">43</property>
   <filter id="filter140">
    <property name="rotate_center">1</property>
    <property name="mlt_service">qtblend</property>
    <property name="kdenlive_id">qtblend</property>
    <property name="rect">00:00:00.000=619 28 640 360 1.000000;00:00:00.233=933 204 12 7 1.000000</property>
    <property name="rotation">00:00:00.000=0;00:00:00.233=0</property>
    <property name="compositing">0</property>
    <property name="distort">0</property>
    <property name="kdenlive:collapsed">0</property>
   </filter>
  </entry>
  <entry producer="producer38" in="00:00:00.000" out="00:00:13.267">
   <property name="kdenlive:id">46</property>
   <filter id="filter141">
    <property name="rotate_center">1</property>
    <property name="mlt_service">qtblend</property>
    <property name="kdenlive_id">qtblend</property>
    <property name="rect">00:00:00.000=619 28 640 360 1.000000;00:00:13.267=619 28 640 360 1.000000</property>
    <property name="rotation">00:00:00.000=0;00:00:13.267=0</property>
    <property name="compositing">0</property>
    <property name="distort">0</property>
    <property name="kdenlive:collapsed">0</property>
   </filter>
  </entry>
  <entry producer="producer38" in="00:00:00.000" out="00:00:00.200">
   <property name="kdenlive:id">46</property>
   <filter id="filter142">
    <property name="rotate_center">1</property>
    <property name="mlt_service">qtblend</property>
    <property name="kdenlive_id">qtblend</property>
    <property name="rect">00:00:00.000=619 28 640 360 1.000000;00:00:00.200=933 204 12 7 1.000000</property>
    <property name="rotation">00:00:00.000=0;00:00:00.200=0</property>
    <property name="compositing">0</property>
    <property name="distort">0</property>
    <property name="kdenlive:collapsed">0</property>
   </filter>
  </entry>
  <entry producer="producer40" in="00:00:00.000" out="00:00:08.400">
   <property name="kdenlive:id">48</property>
   <filter id="filter143">
    <property name="rotate_center">1</property>
    <property name="mlt_service">qtblend</property>
    <property name="kdenlive_id">qtblend</property>
    <property name="rect">00:00:00.000=619 28 640 360 1.000000;00:00:08.167=619 28 640 360 1.000000;00:00:08.400=1212 28 640 360 1.000000</property>
    <property name="rotation">00:00:00.000=0;00:00:08.167=0;00:00:08.400=0</property>
    <property name="compositing">0</property>
    <property name="distort">0</property>
    <property name="kdenlive:collapsed">0</property>
   </filter>
  </entry>
  <blank length="00:00:00.567"/>
  <entry producer="producer41" in="00:00:00.000" out="00:00:00.500">
   <property name="kdenlive:id">49</property>
   <filter id="filter144">
    <property name="rotate_center">1</property>
    <property name="mlt_service">qtblend</property>
    <property name="kdenlive_id">qtblend</property>
    <property name="rect">00:00:00.000=-585 23 640 360 1.000000;00:00:00.500=18 23 640 360 1.000000</property>
    <property name="rotation">00:00:00.000=0;00:00:00.500=0</property>
    <property name="compositing">0</property>
    <property name="distort">0</property>
    <property name="kdenlive:collapsed">0</property>
   </filter>
  </entry>
  <blank length="00:00:07.733"/>
  <entry producer="producer42" in="00:00:00.000" out="00:00:00.200">
   <property name="kdenlive:id">50</property>
   <filter id="filter145">
    <property name="rotate_center">1</property>
    <property name="mlt_service">qtblend</property>
    <property name="kdenlive_id">qtblend</property>
    <property name="rect">00:00:00.000=1201 23 640 360 1.000000;00:00:00.200=619 23 640 360 1.000000</property>
    <property name="rotation">00:00:00.000=0;00:00:00.200=0</property>
    <property name="compositing">0</property>
    <property name="distort">0</property>
    <property name="kdenlive:collapsed">0</property>
   </filter>
  </entry>
  <entry producer="producer42" in="00:00:00.000" out="00:00:25.100">
   <property name="kdenlive:id">50</property>
   <filter id="filter146">
    <property name="rotate_center">1</property>
    <property name="mlt_service">qtblend</property>
    <property name="kdenlive_id">qtblend</property>
    <property name="rect">00:00:00.000=619 23 640 360 1.000000;00:00:25.100=619 25 640 360 1.000000</property>
    <property name="rotation">00:00:00.000=0;00:00:25.100=0</property>
    <property name="compositing">0</property>
    <property name="distort">0</property>
    <property name="kdenlive:collapsed">0</property>
   </filter>
  </entry>
  <entry producer="producer42" in="00:00:00.000" out="00:00:00.267">
   <property name="kdenlive:id">50</property>
   <filter id="filter147">
    <property name="rotate_center">1</property>
    <property name="mlt_service">qtblend</property>
    <property name="kdenlive_id">qtblend</property>
    <property name="rect">00:00:00.000=619 24 640 360 1.000000;00:00:00.267=933 201 12 7 1.000000</property>
    <property name="rotation">00:00:00.000=0;00:00:00.267=0</property>
    <property name="compositing">0</property>
    <property name="distort">0</property>
    <property name="kdenlive:collapsed">0</property>
   </filter>
  </entry>
  <entry producer="producer44" in="00:00:00.000" out="00:00:17.300">
   <property name="kdenlive:id">52</property>
   <filter id="filter148">
    <property name="rotate_center">1</property>
    <property name="mlt_service">qtblend</property>
    <property name="kdenlive_id">qtblend</property>
    <property name="rect">00:00:00.000=619 23 640 360 1.000000;00:00:17.300=619 23 640 360 1.000000</property>
    <property name="rotation">00:00:00.000=0;00:00:17.300=0</property>
    <property name="compositing">0</property>
    <property name="distort">0</property>
    <property name="kdenlive:collapsed">0</property>
   </filter>
  </entry>
  <entry producer="producer44" in="00:00:00.000" out="00:00:00.200">
   <property name="kdenlive:id">52</property>
   <filter id="filter149">
    <property name="rotate_center">1</property>
    <property name="mlt_service">qtblend</property>
    <property name="kdenlive_id">qtblend</property>
    <property name="rect">00:00:00.000=619 23 640 360 1.000000;00:00:00.200=933 199 12 7 1.000000</property>
    <property name="rotation">00:00:00.000=0;00:00:00.200=0</property>
    <property name="compositing">0</property>
    <property name="distort">0</property>
    <property name="kdenlive:collapsed">0</property>
   </filter>
  </entry>
  <entry producer="producer46" in="00:00:00.000" out="00:00:19.633">
   <property name="kdenlive:id">54</property>
   <filter id="filter150">
    <property name="rotate_center">1</property>
    <property name="mlt_service">qtblend</property>
    <property name="kdenlive_id">qtblend</property>
    <property name="rect">00:00:00.000=619 23 640 360 1.000000;00:00:19.633=619 23 640 360 1.000000</property>
    <property name="rotation">00:00:00.000=0;00:00:19.633=0</property>
    <property name="compositing">0</property>
    <property name="distort">0</property>
    <property name="kdenlive:collapsed">0</property>
   </filter>
  </entry>
  <entry producer="producer46" in="00:00:00.000" out="00:00:00.333">
   <property name="kdenlive:id">54</property>
   <filter id="filter151">
    <property name="rotate_center">1</property>
    <property name="mlt_service">qtblend</property>
    <property name="kdenlive_id">qtblend</property>
    <property name="rect">00:00:00.000=619 23 640 360 1.000000;00:00:00.333=901 181 76 42 1.000000</property>
    <property name="rotation">00:00:00.000=0;00:00:00.333=0</property>
    <property name="compositing">0</property>
    <property name="distort">0</property>
    <property name="kdenlive:collapsed">0</property>
   </filter>
  </entry>
  <entry producer="producer47" in="00:00:00.000" out="00:00:15.333">
   <property name="kdenlive:id">55</property>
   <filter id="filter152">
    <property name="rotate_center">1</property>
    <property name="mlt_service">qtblend</property>
    <property name="kdenlive_id">qtblend</property>
    <property name="rect">00:00:00.000=619 23 640 360 1.000000;00:00:15.333=619 23 640 360 1.000000</property>
    <property name="rotation">00:00:00.000=0;00:00:15.333=0</property>
    <property name="compositing">0</property>
    <property name="distort">0</property>
    <property name="kdenlive:collapsed">0</property>
   </filter>
  </entry>
  <entry producer="producer47" in="00:00:00.000" out="00:00:00.333">
   <property name="kdenlive:id">55</property>
   <filter id="filter153">
    <property name="rotate_center">1</property>
    <property name="mlt_service">qtblend</property>
    <property name="kdenlive_id">qtblend</property>
    <property name="rect">00:00:00.000=619 23 640 360 1.000000;00:00:00.333=933 199 12 7 1.000000</property>
    <property name="rotation">00:00:00.000=0;00:00:00.333=0</property>
    <property name="compositing">0</property>
    <property name="distort">0</property>
    <property name="kdenlive:collapsed">0</property>
   </filter>
  </entry>
  <entry producer="producer49" in="00:00:00.000" out="00:00:23.533">
   <property name="kdenlive:id">57</property>
   <filter id="filter154">
    <property name="rotate_center">1</property>
    <property name="mlt_service">qtblend</property>
    <property name="kdenlive_id">qtblend</property>
    <property name="rect">00:00:00.000=619 23 640 360 1.000000;00:00:23.533=619 23 640 360 1.000000</property>
    <property name="rotation">00:00:00.000=0;00:00:23.533=0</property>
    <property name="compositing">0</property>
    <property name="distort">0</property>
    <property name="kdenlive:collapsed">0</property>
   </filter>
  </entry>
  <entry producer="producer49" in="00:00:00.000" out="00:00:00.367">
   <property name="kdenlive:id">57</property>
   <filter id="filter155">
    <property name="rotate_center">1</property>
    <property name="mlt_service">qtblend</property>
    <property name="kdenlive_id">qtblend</property>
    <property name="rect">00:00:00.000=619 23 640 360 1.000000;00:00:00.367=933 199 12 7 1.000000</property>
    <property name="rotation">00:00:00.000=0;00:00:00.367=0</property>
    <property name="compositing">0</property>
    <property name="distort">0</property>
    <property name="kdenlive:collapsed">0</property>
   </filter>
  </entry>
  <entry producer="producer51" in="00:00:00.000" out="00:00:50.533">
   <property name="kdenlive:id">59</property>
   <filter id="filter156">
    <property name="rotate_center">1</property>
    <property name="mlt_service">qtblend</property>
    <property name="kdenlive_id">qtblend</property>
    <property name="rect">00:00:00.000=619 23 640 360 1.000000;00:00:50.533=619 23 640 360 1.000000</property>
    <property name="rotation">00:00:00.000=0;00:00:50.533=0</property>
    <property name="compositing">0</property>
    <property name="distort">0</property>
    <property name="kdenlive:collapsed">0</property>
   </filter>
   <filter id="filter157" in="00:00:39.533" out="00:00:50.533">
    <property name="start">1</property>
    <property name="mlt_service">brightness</property>
    <property name="kdenlive_id">fade_to_black</property>
    <property name="end">0</property>
    <property name="alpha">-1</property>
    <property name="kdenlive:collapsed">0</property>
   </filter>
  </entry>
  <blank length="00:00:11.567"/>
  <entry producer="producer52" in="00:00:00.000" out="00:00:00.267">
   <property name="kdenlive:id">60</property>
   <filter id="filter158">
    <property name="rotate_center">1</property>
    <property name="mlt_service">qtblend</property>
    <property name="kdenlive_id">qtblend</property>
    <property name="rect">00:00:00.000=1220 23 640 360 1.000000;00:00:00.267=619 23 640 360 1.000000</property>
    <property name="rotation">00:00:00.000=0;00:00:00.267=0</property>
    <property name="compositing">0</property>
    <property name="distort">0</property>
    <property name="kdenlive:collapsed">0</property>
   </filter>
  </entry>
  <entry producer="producer52" in="00:00:00.000" out="00:00:38.833">
   <property name="kdenlive:id">60</property>
   <filter id="filter159">
    <property name="rotate_center">1</property>
    <property name="mlt_service">qtblend</property>
    <property name="kdenlive_id">qtblend</property>
    <property name="rect">00:00:00.000=619 23 640 360 1.000000;00:00:38.833=619 23 640 360 1.000000</property>
    <property name="rotation">00:00:00.000=0;00:00:38.833=0</property>
    <property name="compositing">0</property>
    <property name="distort">0</property>
    <property name="kdenlive:collapsed">0</property>
   </filter>
  </entry>
  <entry producer="producer52" in="00:00:00.000" out="00:00:00.667">
   <property name="kdenlive:id">60</property>
   <filter id="filter160">
    <property name="rotate_center">1</property>
    <property name="mlt_service">qtblend</property>
    <property name="kdenlive_id">qtblend</property>
    <property name="rect">00:00:00.000=619 23 640 360 1.000000;00:00:00.667=933 199 12 7 1.000000</property>
    <property name="rotation">00:00:00.000=0;00:00:00.667=0</property>
    <property name="compositing">0</property>
    <property name="distort">0</property>
    <property name="kdenlive:collapsed">0</property>
   </filter>
  </entry>
  <entry producer="producer55" in="00:00:00.000" out="00:00:16.767">
   <property name="kdenlive:id">63</property>
   <filter id="filter161">
    <property name="rotate_center">1</property>
    <property name="mlt_service">qtblend</property>
    <property name="kdenlive_id">qtblend</property>
    <property name="rect">00:00:00.000=619 23 640 360 1.000000;00:00:16.767=619 23 640 360 1.000000</property>
    <property name="rotation">00:00:00.000=0;00:00:16.767=0</property>
    <property name="compositing">0</property>
    <property name="distort">0</property>
    <property name="kdenlive:collapsed">0</property>
   </filter>
  </entry>
  <entry producer="producer55" in="00:00:00.000" out="00:00:00.333">
   <property name="kdenlive:id">63</property>
   <filter id="filter162">
    <property name="rotate_center">1</property>
    <property name="mlt_service">qtblend</property>
    <property name="kdenlive_id">qtblend</property>
    <property name="rect">00:00:00.000=619 23 640 360 1.000000;00:00:00.333=933 199 12 7 1.000000</property>
    <property name="rotation">00:00:00.000=0;00:00:00.333=0</property>
    <property name="compositing">0</property>
    <property name="distort">0</property>
    <property name="kdenlive:collapsed">0</property>
   </filter>
  </entry>
  <entry producer="producer57" in="00:00:00.000" out="00:00:05.733">
   <property name="kdenlive:id">65</property>
   <filter id="filter163">
    <property name="rotate_center">1</property>
    <property name="mlt_service">qtblend</property>
    <property name="kdenlive_id">qtblend</property>
    <property name="rect">00:00:00.000=619 23 640 360 1.000000;00:00:05.733=619 23 640 360 1.000000</property>
    <property name="rotation">00:00:00.000=0;00:00:05.733=0</property>
    <property name="compositing">0</property>
    <property name="distort">0</property>
    <property name="kdenlive:collapsed">0</property>
   </filter>
  </entry>
  <entry producer="producer57" in="00:00:00.000" out="00:00:00.567">
   <property name="kdenlive:id">65</property>
   <filter id="filter164">
    <property name="rotate_center">1</property>
    <property name="mlt_service">qtblend</property>
    <property name="kdenlive_id">qtblend</property>
    <property name="rect">00:00:00.000=619 23 640 360 1.000000;00:00:00.567=933 199 12 7 1.000000</property>
    <property name="rotation">00:00:00.000=0;00:00:00.567=0</property>
    <property name="compositing">0</property>
    <property name="distort">0</property>
    <property name="kdenlive:collapsed">0</property>
   </filter>
  </entry>
  <entry producer="producer58" in="00:00:00.000" out="00:00:34.633">
   <property name="kdenlive:id">66</property>
   <filter id="filter165">
    <property name="rotate_center">1</property>
    <property name="mlt_service">qtblend</property>
    <property name="kdenlive_id">qtblend</property>
    <property name="rect">00:00:00.000=619 23 640 360 1.000000;00:00:34.633=619 23 640 360 1.000000</property>
    <property name="rotation">00:00:00.000=0;00:00:34.633=0</property>
    <property name="compositing">0</property>
    <property name="distort">0</property>
    <property name="kdenlive:collapsed">0</property>
   </filter>
  </entry>
  <entry producer="producer58" in="00:00:00.000" out="00:00:00.633">
   <property name="kdenlive:id">66</property>
   <filter id="filter166">
    <property name="rotate_center">1</property>
    <property name="mlt_service">qtblend</property>
    <property name="kdenlive_id">qtblend</property>
    <property name="rect">00:00:00.000=619 23 640 360 1.000000;00:00:00.633=933 199 12 7 1.000000</property>
    <property name="rotation">00:00:00.000=0;00:00:00.633=0</property>
    <property name="compositing">0</property>
    <property name="distort">0</property>
    <property name="kdenlive:collapsed">0</property>
   </filter>
  </entry>
  <entry producer="producer60" in="00:00:00.000" out="00:00:04.167">
   <property name="kdenlive:id">68</property>
   <filter id="filter167">
    <property name="rotate_center">1</property>
    <property name="mlt_service">qtblend</property>
    <property name="kdenlive_id">qtblend</property>
    <property name="rect">00:00:00.000=619 23 640 360 1.000000</property>
    <property name="rotation">00:00:00.000=0</property>
    <property name="compositing">0</property>
    <property name="distort">0</property>
    <property name="kdenlive:collapsed">0</property>
   </filter>
  </entry>
  <entry producer="producer60" in="00:00:00.000" out="00:00:00.233">
   <property name="kdenlive:id">68</property>
   <filter id="filter168">
    <property name="rotate_center">1</property>
    <property name="mlt_service">qtblend</property>
    <property name="kdenlive_id">qtblend</property>
    <property name="rect">00:00:00.000=619 23 640 360 1.000000;00:00:00.233=933 199 12 7 1.000000</property>
    <property name="rotation">00:00:00.000=0;00:00:00.233=0</property>
    <property name="compositing">0</property>
    <property name="distort">0</property>
    <property name="kdenlive:collapsed">0</property>
   </filter>
  </entry>
  <entry producer="producer62" in="00:00:00.000" out="00:00:10.300">
   <property name="kdenlive:id">70</property>
   <filter id="filter169">
    <property name="rotate_center">1</property>
    <property name="mlt_service">qtblend</property>
    <property name="kdenlive_id">qtblend</property>
    <property name="rect">00:00:00.000=619 23 640 360 1.000000</property>
    <property name="rotation">00:00:00.000=0</property>
    <property name="compositing">0</property>
    <property name="distort">0</property>
    <property name="kdenlive:collapsed">0</property>
   </filter>
   <filter id="filter170" in="00:00:07.300" out="00:00:10.300">
    <property name="start">1</property>
    <property name="mlt_service">brightness</property>
    <property name="kdenlive_id">fade_to_black</property>
    <property name="end">0</property>
    <property name="alpha">-1</property>
    <property name="kdenlive:collapsed">0</property>
   </filter>
  </entry>
  <blank length="00:00:28.833"/>
  <entry producer="producer9" in="00:00:00.000" out="00:00:05.100">
   <property name="kdenlive:id">11</property>
   <filter id="filter171">
    <property name="mode">alpha</property>
    <property name="alpha_operation">min</property>
    <property name="invert">0</property>
    <property name="feather">0</property>
    <property name="feather_passes">1</property>
    <property name="mlt_service">rotoscoping</property>
    <property name="kdenlive_id">rotoscoping</property>
    <property name="spline">{&#xd;
    "000": [&#xd;
        [&#xd;
            [&#xd;
                0.06326963906581741,&#xd;
                0.17674858223062379&#xd;
            ],&#xd;
            [&#xd;
                0.06369426751592357,&#xd;
                0.18998109640831756&#xd;
            ],&#xd;
            [&#xd;
                0.06624203821656051,&#xd;
                0.19035916824196594&#xd;
            ]&#xd;
        ],&#xd;
        [&#xd;
            [&#xd;
                0.07388535031847134,&#xd;
                0.19149338374291117&#xd;
            ],&#xd;
            [&#xd;
                0.07643312101910828,&#xd;
                0.19187145557655955&#xd;
            ],&#xd;
            [&#xd;
                0.07600849256900212,&#xd;
                0.1775047258979206&#xd;
            ]&#xd;
        ],&#xd;
        [&#xd;
            [&#xd;
                0.07579617834394904,&#xd;
                0.13629489603024572&#xd;
            ],&#xd;
            [&#xd;
                0.07537154989384288,&#xd;
                0.12192816635160679&#xd;
            ],&#xd;
            [&#xd;
                0.07282377919320594,&#xd;
                0.12268431001890358&#xd;
            ]&#xd;
        ],&#xd;
        [&#xd;
            [&#xd;
                0.06411889596602972,&#xd;
                0.12306238185255197&#xd;
            ],&#xd;
            [&#xd;
                0.06157112526539278,&#xd;
                0.12381852551984876&#xd;
            ],&#xd;
            [&#xd;
                0.06199575371549894,&#xd;
                0.1370510396975425&#xd;
            ]&#xd;
        ]&#xd;
    ],&#xd;
    "004": [&#xd;
        [&#xd;
            [&#xd;
                0.06326963906581741,&#xd;
                0.17674858223062379&#xd;
            ],&#xd;
            [&#xd;
                0.06369426751592357,&#xd;
                0.18998109640831756&#xd;
            ],&#xd;
            [&#xd;
                0.06624203821656051,&#xd;
                0.19035916824196594&#xd;
            ]&#xd;
        ],&#xd;
        [&#xd;
            [&#xd;
                0.1386411889596603,&#xd;
                0.19527410207939508&#xd;
            ],&#xd;
            [&#xd;
                0.14118895966029724,&#xd;
                0.19565217391304346&#xd;
            ],&#xd;
            [&#xd;
                0.14076433121019108,&#xd;
                0.18128544423440449&#xd;
            ]&#xd;
        ],&#xd;
        [&#xd;
            [&#xd;
                0.140552016985138,&#xd;
                0.12117202268431&#xd;
            ],&#xd;
            [&#xd;
                0.14012738853503184,&#xd;
                0.10680529300567107&#xd;
            ],&#xd;
            [&#xd;
                0.1375796178343949,&#xd;
                0.10756143667296786&#xd;
            ]&#xd;
        ],&#xd;
        [&#xd;
            [&#xd;
                0.06411889596602972,&#xd;
                0.12306238185255197&#xd;
            ],&#xd;
            [&#xd;
                0.06157112526539278,&#xd;
                0.12381852551984876&#xd;
            ],&#xd;
            [&#xd;
                0.06199575371549894,&#xd;
                0.1370510396975425&#xd;
            ]&#xd;
        ]&#xd;
    ]&#xd;
}&#xd;
</property>
    <property name="kdenlive:collapsed">0</property>
   </filter>
  </entry>
 </playlist>
 <playlist id="playlist15"/>
 <tractor id="tractor7" in="00:00:00.000" out="00:12:55.467">
  <property name="kdenlive:trackheight">67</property>
  <property name="kdenlive:timeline_active">1</property>
  <property name="kdenlive:collapsed">0</property>
  <property name="kdenlive:thumbs_format"/>
  <property name="kdenlive:audio_rec"/>
  <track hide="audio" producer="playlist14"/>
  <track producer="playlist15"/>
 </tractor>
 <playlist id="playlist16">
  <blank length="00:00:53.700"/>
  <entry producer="producer17" in="00:00:00.000" out="00:00:00.400">
   <property name="kdenlive:id">25</property>
   <property name="kdenlive:activeeffect">0</property>
   <filter id="filter172">
    <property name="rotate_center">1</property>
    <property name="mlt_service">qtblend</property>
    <property name="kdenlive_id">qtblend</property>
    <property name="rect">00:00:00.000=-574 23 640 360 1.000000;00:00:00.400=18 23 640 360 1.000000</property>
    <property name="rotation">00:00:00.000=0;00:00:00.400=0</property>
    <property name="compositing">0</property>
    <property name="distort">0</property>
    <property name="kdenlive:collapsed">0</property>
   </filter>
  </entry>
  <blank length="00:00:35.600"/>
  <entry producer="producer18" in="00:00:00.000" out="00:00:00.233">
   <property name="kdenlive:id">26</property>
   <property name="kdenlive:activeeffect">0</property>
   <filter id="filter173">
    <property name="rotate_center">1</property>
    <property name="mlt_service">qtblend</property>
    <property name="kdenlive_id">qtblend</property>
    <property name="rect">00:00:00.000=1200 28 640 360 1.000000;00:00:00.233=619 28 640 360 1.000000</property>
    <property name="rotation">00:00:00.000=0;00:00:00.233=0</property>
    <property name="compositing">0</property>
    <property name="distort">0</property>
    <property name="kdenlive:collapsed">0</property>
   </filter>
  </entry>
  <blank length="00:00:13.400"/>
  <entry producer="producer19" in="00:00:00.000" out="00:00:00.200">
   <property name="kdenlive:id">27</property>
   <property name="kdenlive:activeeffect">0</property>
   <filter id="filter174">
    <property name="rotate_center">1</property>
    <property name="mlt_service">qtblend</property>
    <property name="kdenlive_id">qtblend</property>
    <property name="rect">00:00:00.000=-561 23 640 360 1.000000;00:00:00.200=18 23 640 360 1.000000</property>
    <property name="rotation">00:00:00.000=0;00:00:00.200=0</property>
    <property name="compositing">0</property>
    <property name="distort">0</property>
    <property name="kdenlive:collapsed">0</property>
   </filter>
  </entry>
  <blank length="00:00:17.433"/>
  <entry producer="producer20" in="00:00:00.000" out="00:00:00.167">
   <property name="kdenlive:id">28</property>
   <filter id="filter175">
    <property name="rotate_center">1</property>
    <property name="mlt_service">qtblend</property>
    <property name="kdenlive_id">qtblend</property>
    <property name="rect">00:00:00.000=1205 28 640 360 1.000000;00:00:00.167=619 28 640 360 1.000000</property>
    <property name="rotation">00:00:00.000=0;00:00:00.167=0</property>
    <property name="compositing">0</property>
    <property name="distort">0</property>
    <property name="kdenlive:collapsed">0</property>
   </filter>
  </entry>
  <blank length="00:00:08.167"/>
  <entry producer="producer21" in="00:00:00.000" out="00:00:00.400">
   <property name="kdenlive:id">29</property>
   <filter id="filter176">
    <property name="rotate_center">1</property>
    <property name="mlt_service">qtblend</property>
    <property name="kdenlive_id">qtblend</property>
    <property name="rect">00:00:00.000=-561 23 640 360 1.000000;00:00:00.400=18 23 640 360 1.000000</property>
    <property name="rotation">00:00:00.000=0;00:00:00.400=0</property>
    <property name="compositing">0</property>
    <property name="distort">0</property>
    <property name="kdenlive:collapsed">0</property>
   </filter>
  </entry>
  <blank length="00:00:17.600"/>
  <entry producer="producer22" in="00:00:00.000" out="00:00:00.200">
   <property name="kdenlive:id">30</property>
   <filter id="filter177">
    <property name="rotate_center">1</property>
    <property name="mlt_service">qtblend</property>
    <property name="kdenlive_id">qtblend</property>
    <property name="rect">00:00:00.000=1201 28 640 360 1.000000;00:00:00.200=619 28 640 360 1.000000</property>
    <property name="rotation">00:00:00.000=0;00:00:00.200=0</property>
    <property name="compositing">0</property>
    <property name="distort">0</property>
    <property name="kdenlive:collapsed">0</property>
   </filter>
  </entry>
  <blank length="00:00:18.500"/>
  <entry producer="producer23" in="00:00:00.000" out="00:00:00.267">
   <property name="kdenlive:id">31</property>
   <filter id="filter178">
    <property name="rotate_center">1</property>
    <property name="mlt_service">qtblend</property>
    <property name="kdenlive_id">qtblend</property>
    <property name="rect">00:00:00.000=-560 23 640 360 1.000000;00:00:00.267=18 23 640 360 1.000000</property>
    <property name="rotation">00:00:00.000=0;00:00:00.267=0</property>
    <property name="compositing">0</property>
    <property name="distort">0</property>
    <property name="kdenlive:collapsed">0</property>
   </filter>
  </entry>
  <blank length="00:00:02.267"/>
  <entry producer="producer24" in="00:00:00.000" out="00:00:00.233">
   <property name="kdenlive:id">32</property>
   <filter id="filter179">
    <property name="rotate_center">1</property>
    <property name="mlt_service">qtblend</property>
    <property name="kdenlive_id">qtblend</property>
    <property name="rect">00:00:00.000=1202 28 640 360 1.000000;00:00:00.233=619 28 640 360 1.000000</property>
    <property name="rotation">00:00:00.000=0;00:00:00.233=0</property>
    <property name="compositing">0</property>
    <property name="distort">0</property>
    <property name="kdenlive:collapsed">0</property>
   </filter>
  </entry>
  <blank length="00:00:05.667"/>
  <entry producer="producer25" in="00:00:00.000" out="00:00:00.200">
   <property name="kdenlive:id">33</property>
   <filter id="filter180">
    <property name="rotate_center">1</property>
    <property name="mlt_service">qtblend</property>
    <property name="kdenlive_id">qtblend</property>
    <property name="rect">00:00:00.000=-562 23 640 360 1.000000;00:00:00.200=18 23 640 360 1.000000</property>
    <property name="rotation">00:00:00.000=0;00:00:00.200=0</property>
    <property name="compositing">0</property>
    <property name="distort">0</property>
    <property name="kdenlive:collapsed">0</property>
   </filter>
  </entry>
  <blank length="00:00:23.500"/>
  <entry producer="producer26" in="00:00:00.000" out="00:00:00.267">
   <property name="kdenlive:id">34</property>
   <filter id="filter181">
    <property name="rotate_center">1</property>
    <property name="mlt_service">qtblend</property>
    <property name="kdenlive_id">qtblend</property>
    <property name="rect">00:00:00.000=1202 28 640 360 1.000000;00:00:00.267=619 28 640 360 1.000000</property>
    <property name="rotation">00:00:00.000=0;00:00:00.267=0</property>
    <property name="compositing">0</property>
    <property name="distort">0</property>
    <property name="kdenlive:collapsed">0</property>
   </filter>
  </entry>
  <blank length="00:00:04.267"/>
  <entry producer="producer27" in="00:00:00.000" out="00:00:00.267">
   <property name="kdenlive:id">35</property>
   <filter id="filter182">
    <property name="rotate_center">1</property>
    <property name="mlt_service">qtblend</property>
    <property name="kdenlive_id">qtblend</property>
    <property name="rect">00:00:00.000=-558 23 640 360 1.000000;00:00:00.267=18 23 640 360 1.000000</property>
    <property name="rotation">00:00:00.000=0;00:00:00.267=0</property>
    <property name="compositing">0</property>
    <property name="distort">0</property>
    <property name="kdenlive:collapsed">0</property>
   </filter>
  </entry>
  <blank length="00:00:23.933"/>
  <entry producer="producer29" in="00:00:00.000" out="00:00:00.267">
   <property name="kdenlive:id">37</property>
   <filter id="filter183">
    <property name="rotate_center">1</property>
    <property name="mlt_service">qtblend</property>
    <property name="kdenlive_id">qtblend</property>
    <property name="rect">00:00:00.000=1200 28 640 360 1.000000;00:00:00.267=619 28 640 360 1.000000</property>
    <property name="rotation">00:00:00.000=0;00:00:00.267=0</property>
    <property name="compositing">0</property>
    <property name="distort">0</property>
    <property name="kdenlive:collapsed">0</property>
   </filter>
  </entry>
  <blank length="00:00:03.867"/>
  <entry producer="producer30" in="00:00:00.000" out="00:00:00.200">
   <property name="kdenlive:id">38</property>
   <filter id="filter184">
    <property name="rotate_center">1</property>
    <property name="mlt_service">qtblend</property>
    <property name="kdenlive_id">qtblend</property>
    <property name="rect">00:00:00.000=-565 23 640 360 1.000000;00:00:00.200=18 23 640 360 1.000000</property>
    <property name="rotation">00:00:00.000=0;00:00:00.200=0</property>
    <property name="compositing">0</property>
    <property name="distort">0</property>
    <property name="kdenlive:collapsed">0</property>
   </filter>
  </entry>
  <blank length="00:00:02.167"/>
  <entry producer="producer31" in="00:00:00.000" out="00:00:00.200">
   <property name="kdenlive:id">39</property>
   <filter id="filter185">
    <property name="rotate_center">1</property>
    <property name="mlt_service">qtblend</property>
    <property name="kdenlive_id">qtblend</property>
    <property name="rect">00:00:00.000=1198 28 640 360 1.000000;00:00:00.200=619 28 640 360 1.000000</property>
    <property name="rotation">00:00:00.000=0;00:00:00.200=0</property>
    <property name="compositing">0</property>
    <property name="distort">0</property>
    <property name="kdenlive:collapsed">0</property>
   </filter>
  </entry>
  <blank length="00:00:21.100"/>
  <entry producer="producer32" in="00:00:00.000" out="00:00:00.200">
   <property name="kdenlive:id">40</property>
   <filter id="filter186">
    <property name="rotate_center">1</property>
    <property name="mlt_service">qtblend</property>
    <property name="kdenlive_id">qtblend</property>
    <property name="rect">00:00:00.000=-566 23 640 360 1.000000;00:00:00.200=18 23 640 360 1.000000</property>
    <property name="rotation">00:00:00.000=0;00:00:00.200=0</property>
    <property name="compositing">0</property>
    <property name="distort">0</property>
    <property name="kdenlive:collapsed">0</property>
   </filter>
  </entry>
  <blank length="00:00:42.300"/>
  <entry producer="producer33" in="00:00:00.000" out="00:00:00.167">
   <property name="kdenlive:id">41</property>
   <filter id="filter187">
    <property name="rotate_center">1</property>
    <property name="mlt_service">qtblend</property>
    <property name="kdenlive_id">qtblend</property>
    <property name="rect">00:00:00.000=1211 28 640 360 1.000000;00:00:00.167=619 28 640 360 1.000000</property>
    <property name="rotation">00:00:00.000=0;00:00:00.167=0</property>
    <property name="compositing">0</property>
    <property name="distort">0</property>
    <property name="kdenlive:collapsed">0</property>
   </filter>
  </entry>
  <blank length="00:00:29.033"/>
  <entry producer="producer34" in="00:00:00.000" out="00:00:00.500">
   <property name="kdenlive:id">42</property>
   <filter id="filter188">
    <property name="rotate_center">1</property>
    <property name="mlt_service">qtblend</property>
    <property name="kdenlive_id">qtblend</property>
    <property name="rect">00:00:00.000=-562 23 640 360 1.000000;00:00:00.500=18 23 640 360 1.000000</property>
    <property name="rotation">00:00:00.000=0;00:00:00.500=0</property>
    <property name="compositing">0</property>
    <property name="distort">0</property>
    <property name="kdenlive:collapsed">0</property>
   </filter>
  </entry>
  <blank length="00:00:02.067"/>
  <entry producer="producer35" in="00:00:00.000" out="00:00:00.300">
   <property name="kdenlive:id">43</property>
   <filter id="filter189">
    <property name="rotate_center">1</property>
    <property name="mlt_service">qtblend</property>
    <property name="kdenlive_id">qtblend</property>
    <property name="rect">00:00:00.000=1201 28 640 360 1.000000;00:00:00.300=619 28 640 360 1.000000</property>
    <property name="rotation">00:00:00.000=0;00:00:00.300=0</property>
    <property name="compositing">0</property>
    <property name="distort">0</property>
    <property name="kdenlive:collapsed">0</property>
   </filter>
  </entry>
  <blank length="00:01:26.200"/>
  <entry producer="producer36" in="00:00:00.000" out="00:00:04.167">
   <property name="kdenlive:id">44</property>
   <property name="kdenlive:activeeffect">0</property>
   <filter id="filter190">
    <property name="rotate_center">1</property>
    <property name="mlt_service">qtblend</property>
    <property name="kdenlive_id">qtblend</property>
    <property name="rect">00:00:00.000~=0 379 1280 720 1.000000;00:00:00.167=0 105 1280 720 1.000000;00:00:00.267=0 93 1280 720 1.000000;00:00:00.367=0 105 1280 720 1.000000;00:00:03.800=0 105 1280 720 1.000000;00:00:03.967=0 65 1280 720 1.000000;00:00:04.133=0 382 1280 720 1.000000</property>
    <property name="rotation">00:00:00.000~=0;00:00:00.167=0;00:00:00.267=0;00:00:00.367=0;00:00:03.800=0;00:00:03.967=0;00:00:04.133=0</property>
    <property name="compositing">0</property>
    <property name="distort">0</property>
    <property name="kdenlive:collapsed">0</property>
   </filter>
  </entry>
  <blank length="00:00:08.167"/>
  <entry producer="producer37" in="00:00:00.000" out="00:00:00.267">
   <property name="kdenlive:id">45</property>
   <filter id="filter191">
    <property name="rotate_center">1</property>
    <property name="mlt_service">qtblend</property>
    <property name="kdenlive_id">qtblend</property>
    <property name="rect">00:00:00.000=-571 23 640 360 1.000000;00:00:00.267=18 23 640 360 1.000000</property>
    <property name="rotation">00:00:00.000=0;00:00:00.267=0</property>
    <property name="compositing">0</property>
    <property name="distort">0</property>
    <property name="kdenlive:collapsed">0</property>
   </filter>
  </entry>
  <blank length="00:00:03.133"/>
  <entry producer="producer38" in="00:00:00.000" out="00:00:00.233">
   <property name="kdenlive:id">46</property>
   <filter id="filter192">
    <property name="rotate_center">1</property>
    <property name="mlt_service">qtblend</property>
    <property name="kdenlive_id">qtblend</property>
    <property name="rect">00:00:00.000=1202 28 640 360 1.000000;00:00:00.233=619 28 640 360 1.000000;00:00:53.100=619 28 640 360 1.000000;00:00:53.233=619 16 640 360 1.000000;00:00:53.367=619 28 640 360 1.000000;00:01:03.333=</property>
    <property name="rotation">00:00:00.000=0;00:00:00.233=0;00:00:53.100=0;00:00:53.233=0;00:00:53.367=0;00:01:03.333=</property>
    <property name="compositing">0</property>
    <property name="distort">0</property>
    <property name="kdenlive:collapsed">0</property>
   </filter>
  </entry>
  <blank length="00:00:09.667"/>
  <entry producer="producer39" in="00:00:00.000" out="00:00:00.333">
   <property name="kdenlive:id">47</property>
   <filter id="filter193">
    <property name="rotate_center">1</property>
    <property name="mlt_service">qtblend</property>
    <property name="kdenlive_id">qtblend</property>
    <property name="rect">00:00:00.000=-570 23 640 360 1.000000;00:00:00.333=18 23 640 360 1.000000</property>
    <property name="rotation">00:00:00.000=0;00:00:00.333=0</property>
    <property name="compositing">0</property>
    <property name="distort">0</property>
    <property name="kdenlive:collapsed">0</property>
   </filter>
  </entry>
  <blank length="00:00:03.267"/>
  <entry producer="producer40" in="00:00:00.000" out="00:00:00.200">
   <property name="kdenlive:id">48</property>
   <filter id="filter194">
    <property name="rotate_center">1</property>
    <property name="mlt_service">qtblend</property>
    <property name="kdenlive_id">qtblend</property>
    <property name="rect">00:00:00.000=1218 28 640 360 1.000000;00:00:00.200=619 28 640 360 1.000000;00:00:13.500=619 28 640 360 1.000000</property>
    <property name="rotation">00:00:00.000=0;00:00:00.200=0;00:00:13.500=0</property>
    <property name="compositing">0</property>
    <property name="distort">0</property>
    <property name="kdenlive:collapsed">0</property>
   </filter>
  </entry>
  <blank length="00:00:34.300"/>
  <entry producer="producer43" in="00:00:00.000" out="00:00:00.467">
   <property name="kdenlive:id">51</property>
   <filter id="filter195">
    <property name="rotate_center">1</property>
    <property name="mlt_service">qtblend</property>
    <property name="kdenlive_id">qtblend</property>
    <property name="rect">00:00:00.000=-563 23 640 360 1.000000;00:00:00.467=18 23 640 360 1.000000;00:00:24.733=18 23 640 360 1.000000</property>
    <property name="rotation">00:00:00.000=0;00:00:00.467=0;00:00:24.733=0</property>
    <property name="compositing">0</property>
    <property name="distort">0</property>
    <property name="kdenlive:collapsed">0</property>
   </filter>
  </entry>
  <blank length="00:00:07.833"/>
  <entry producer="producer44" in="00:00:00.000" out="00:00:00.267">
   <property name="kdenlive:id">52</property>
   <filter id="filter196">
    <property name="rotate_center">1</property>
    <property name="mlt_service">qtblend</property>
    <property name="kdenlive_id">qtblend</property>
    <property name="rect">00:00:00.000=1202 23 640 360 1.000000;00:00:00.267=619 23 640 360 1.000000</property>
    <property name="rotation">00:00:00.000=0;00:00:00.267=0</property>
    <property name="compositing">0</property>
    <property name="distort">0</property>
    <property name="kdenlive:collapsed">0</property>
   </filter>
  </entry>
  <blank length="00:00:11.433"/>
  <entry producer="producer45" in="00:00:00.000" out="00:00:00.200">
   <property name="kdenlive:id">53</property>
   <filter id="filter197">
    <property name="rotate_center">1</property>
    <property name="mlt_service">qtblend</property>
    <property name="kdenlive_id">qtblend</property>
    <property name="rect">00:00:00.000=-578 23 640 360 1.000000;00:00:00.200=18 23 640 360 1.000000</property>
    <property name="rotation">00:00:00.000=0;00:00:00.200=0</property>
    <property name="compositing">0</property>
    <property name="distort">0</property>
    <property name="kdenlive:collapsed">0</property>
   </filter>
  </entry>
  <blank length="00:00:05.667"/>
  <entry producer="producer46" in="00:00:00.000" out="00:00:00.200">
   <property name="kdenlive:id">54</property>
   <filter id="filter198">
    <property name="rotate_center">1</property>
    <property name="mlt_service">qtblend</property>
    <property name="kdenlive_id">qtblend</property>
    <property name="rect">00:00:00.000=1209 23 640 360 1.000000;00:00:00.200=619 23 640 360 1.000000;00:00:17.533=619 23 640 360 1.000000</property>
    <property name="rotation">00:00:00.000=0;00:00:00.200=0;00:00:17.533=0</property>
    <property name="compositing">0</property>
    <property name="distort">0</property>
    <property name="kdenlive:collapsed">0</property>
   </filter>
  </entry>
  <blank length="00:00:19.667"/>
  <entry producer="producer47" in="00:00:00.000" out="00:00:00.333">
   <property name="kdenlive:id">55</property>
   <filter id="filter199">
    <property name="rotate_center">1</property>
    <property name="mlt_service">qtblend</property>
    <property name="kdenlive_id">qtblend</property>
    <property name="rect">00:00:00.000=1202 23 640 360 1.000000;00:00:00.333=619 23 640 360 1.000000</property>
    <property name="rotation">00:00:00.000=0;00:00:00.333=0</property>
    <property name="compositing">0</property>
    <property name="distort">0</property>
    <property name="kdenlive:collapsed">0</property>
   </filter>
  </entry>
  <blank length="00:00:03.867"/>
  <entry producer="producer48" in="00:00:00.000" out="00:00:00.333">
   <property name="kdenlive:id">56</property>
   <filter id="filter200">
    <property name="rotate_center">1</property>
    <property name="mlt_service">qtblend</property>
    <property name="kdenlive_id">qtblend</property>
    <property name="rect">00:00:00.000=-566 23 640 360 1.000000;00:00:00.333=18 23 640 360 1.000000</property>
    <property name="rotation">00:00:00.000=0;00:00:00.333=0</property>
    <property name="compositing">0</property>
    <property name="distort">0</property>
    <property name="kdenlive:collapsed">0</property>
   </filter>
  </entry>
  <blank length="00:00:11.133"/>
  <entry producer="producer49" in="00:00:00.000" out="00:00:00.333">
   <property name="kdenlive:id">57</property>
   <filter id="filter201">
    <property name="rotate_center">1</property>
    <property name="mlt_service">qtblend</property>
    <property name="kdenlive_id">qtblend</property>
    <property name="rect">00:00:00.000=1199 23 640 360 1.000000;00:00:00.333=619 23 640 360 1.000000</property>
    <property name="rotation">00:00:00.000=0;00:00:00.333=0</property>
    <property name="compositing">0</property>
    <property name="distort">0</property>
    <property name="kdenlive:collapsed">0</property>
   </filter>
  </entry>
  <blank length="00:00:08.533"/>
  <entry producer="producer50" in="00:00:00.000" out="00:00:00.300">
   <property name="kdenlive:id">58</property>
   <filter id="filter202">
    <property name="rotate_center">1</property>
    <property name="mlt_service">qtblend</property>
    <property name="kdenlive_id">qtblend</property>
    <property name="rect">00:00:00.000=-561 23 640 360 1.000000;00:00:00.300=18 23 640 360 1.000000</property>
    <property name="rotation">00:00:00.000=0;00:00:00.300=0</property>
    <property name="compositing">0</property>
    <property name="distort">0</property>
    <property name="kdenlive:collapsed">0</property>
   </filter>
  </entry>
  <blank length="00:00:14.700"/>
  <entry producer="producer51" in="00:00:00.000" out="00:00:00.367">
   <property name="kdenlive:id">59</property>
   <filter id="filter203">
    <property name="rotate_center">1</property>
    <property name="mlt_service">qtblend</property>
    <property name="kdenlive_id">qtblend</property>
    <property name="rect">00:00:00.000=1210 23 640 360 1.000000;00:00:00.367=619 23 640 360 1.000000</property>
    <property name="rotation">00:00:00.000=0;00:00:00.367=0</property>
    <property name="compositing">0</property>
    <property name="distort">0</property>
    <property name="kdenlive:collapsed">0</property>
   </filter>
  </entry>
  <blank length="00:01:41.300"/>
  <entry producer="producer55" in="00:00:00.000" out="00:00:00.667">
   <property name="kdenlive:id">63</property>
   <filter id="filter204">
    <property name="rotate_center">1</property>
    <property name="mlt_service">qtblend</property>
    <property name="kdenlive_id">qtblend</property>
    <property name="rect">00:00:00.000=1212 23 640 360 1.000000;00:00:00.667=619 23 640 360 1.000000</property>
    <property name="rotation">00:00:00.000=0;00:00:00.667=0</property>
    <property name="compositing">0</property>
    <property name="distort">0</property>
    <property name="kdenlive:collapsed">0</property>
   </filter>
  </entry>
  <blank length="00:00:12.733"/>
  <entry producer="producer56" in="00:00:00.000" out="00:00:00.400">
   <property name="kdenlive:id">64</property>
   <filter id="filter205">
    <property name="rotate_center">1</property>
    <property name="mlt_service">qtblend</property>
    <property name="kdenlive_id">qtblend</property>
    <property name="rect">00:00:00.000=-562 23 640 360 1.000000;00:00:00.400=18 23 640 360 1.000000</property>
    <property name="rotation">00:00:00.000=0;00:00:00.400=0</property>
    <property name="compositing">0</property>
    <property name="distort">0</property>
    <property name="kdenlive:collapsed">0</property>
   </filter>
  </entry>
  <blank length="00:00:03.633"/>
  <entry producer="producer57" in="00:00:00.000" out="00:00:00.333">
   <property name="kdenlive:id">65</property>
   <filter id="filter206">
    <property name="rotate_center">1</property>
    <property name="mlt_service">qtblend</property>
    <property name="kdenlive_id">qtblend</property>
    <property name="rect">00:00:00.000=1199 23 640 360 1.000000;00:00:00.333=619 23 640 360 1.000000</property>
    <property name="rotation">00:00:00.000=0;00:00:00.333=0</property>
    <property name="compositing">0</property>
    <property name="distort">0</property>
    <property name="kdenlive:collapsed">0</property>
   </filter>
  </entry>
  <blank length="00:00:05.767"/>
  <entry producer="producer58" in="00:00:00.000" out="00:00:00.567">
   <property name="kdenlive:id">66</property>
   <filter id="filter207">
    <property name="rotate_center">1</property>
    <property name="mlt_service">qtblend</property>
    <property name="kdenlive_id">qtblend</property>
    <property name="rect">00:00:00.000=1198 23 640 360 1.000000;00:00:00.567=619 23 640 360 1.000000</property>
    <property name="rotation">00:00:00.000=0;00:00:00.567=0</property>
    <property name="compositing">0</property>
    <property name="distort">0</property>
    <property name="kdenlive:collapsed">0</property>
   </filter>
  </entry>
  <blank length="00:00:11.233"/>
  <entry producer="producer59" in="00:00:00.000" out="00:00:00.767">
   <property name="kdenlive:id">67</property>
   <filter id="filter208">
    <property name="rotate_center">1</property>
    <property name="mlt_service">qtblend</property>
    <property name="kdenlive_id">qtblend</property>
    <property name="rect">00:00:00.000=-564 23 640 360 1.000000;00:00:00.767=18 23 640 360 1.000000</property>
    <property name="rotation">00:00:00.000=0;00:00:00.767=0</property>
    <property name="compositing">0</property>
    <property name="distort">0</property>
    <property name="kdenlive:collapsed">0</property>
   </filter>
  </entry>
  <blank length="00:00:22.633"/>
  <entry producer="producer60" in="00:00:00.000" out="00:00:00.633">
   <property name="kdenlive:id">68</property>
   <filter id="filter209">
    <property name="rotate_center">1</property>
    <property name="mlt_service">qtblend</property>
    <property name="kdenlive_id">qtblend</property>
    <property name="rect">00:00:00.000=1213 23 640 360 1.000000;00:00:00.633=619 23 640 360 1.000000</property>
    <property name="rotation">00:00:00.000=0;00:00:00.633=0</property>
    <property name="compositing">0</property>
    <property name="distort">0</property>
    <property name="kdenlive:collapsed">0</property>
   </filter>
  </entry>
  <blank length="00:00:01.767"/>
  <entry producer="producer61" in="00:00:00.000" out="00:00:00.233">
   <property name="kdenlive:id">69</property>
   <filter id="filter210">
    <property name="rotate_center">1</property>
    <property name="mlt_service">qtblend</property>
    <property name="kdenlive_id">qtblend</property>
    <property name="rect">00:00:00.000=-592 23 640 360 1.000000;00:00:00.233=18 23 640 360 1.000000</property>
    <property name="rotation">00:00:00.000=0;00:00:00.233=0</property>
    <property name="compositing">0</property>
    <property name="distort">0</property>
    <property name="kdenlive:collapsed">0</property>
   </filter>
  </entry>
  <blank length="00:00:02.167"/>
  <entry producer="producer62" in="00:00:00.000" out="00:00:00.233">
   <property name="kdenlive:id">70</property>
   <filter id="filter211">
    <property name="rotate_center">1</property>
    <property name="mlt_service">qtblend</property>
    <property name="kdenlive_id">qtblend</property>
    <property name="rect">00:00:00.000=1218 23 640 360 1.000000;00:00:00.233=619 23 640 360 1.000000</property>
    <property name="rotation">00:00:00.000=0;00:00:00.233=0</property>
    <property name="compositing">0</property>
    <property name="distort">0</property>
    <property name="kdenlive:collapsed">0</property>
   </filter>
  </entry>
  <blank length="00:00:05.333"/>
  <entry producer="producer63" in="00:00:00.000" out="00:00:00.367">
   <property name="kdenlive:id">71</property>
   <filter id="filter212">
    <property name="rotate_center">1</property>
    <property name="mlt_service">qtblend</property>
    <property name="kdenlive_id">qtblend</property>
    <property name="rect">00:00:00.000=-585 23 640 360 1.000000;00:00:00.367=18 23 640 360 1.000000</property>
    <property name="rotation">00:00:00.000=0;00:00:00.367=0</property>
    <property name="compositing">0</property>
    <property name="distort">0</property>
    <property name="kdenlive:collapsed">0</property>
   </filter>
  </entry>
 </playlist>
 <playlist id="playlist17"/>
 <tractor id="tractor8" in="00:00:00.000" out="00:12:16.900">
  <property name="kdenlive:trackheight">67</property>
  <property name="kdenlive:timeline_active">1</property>
  <track producer="playlist16"/>
  <track producer="playlist17"/>
 </tractor>
 <playlist id="playlist18"/>
 <playlist id="playlist19"/>
 <tractor id="tractor9" in="00:00:00.000">
  <property name="kdenlive:trackheight">67</property>
  <property name="kdenlive:timeline_active">1</property>
  <track producer="playlist18"/>
  <track producer="playlist19"/>
 </tractor>
 <tractor id="tractor10" global_feed="1" in="00:00:00.000" out="00:47:41.567">
  <track producer="black_track"/>
  <track producer="tractor0"/>
  <track producer="tractor1"/>
  <track producer="tractor2"/>
  <track producer="tractor3"/>
  <track producer="tractor4"/>
  <track producer="tractor5"/>
  <track producer="tractor6"/>
  <track producer="tractor7"/>
  <track producer="tractor8"/>
  <track producer="tractor9"/>
  <transition id="transition0">
   <property name="a_track">0</property>
   <property name="b_track">1</property>
   <property name="mlt_service">mix</property>
   <property name="kdenlive_id">mix</property>
   <property name="internal_added">237</property>
   <property name="always_active">1</property>
   <property name="accepts_blanks">1</property>
   <property name="sum">1</property>
  </transition>
  <transition id="transition1">
   <property name="a_track">0</property>
   <property name="b_track">2</property>
   <property name="mlt_service">mix</property>
   <property name="kdenlive_id">mix</property>
   <property name="internal_added">237</property>
   <property name="always_active">1</property>
   <property name="accepts_blanks">1</property>
   <property name="sum">1</property>
  </transition>
  <transition id="transition2">
   <property name="a_track">0</property>
   <property name="b_track">3</property>
   <property name="mlt_service">mix</property>
   <property name="kdenlive_id">mix</property>
   <property name="internal_added">237</property>
   <property name="always_active">1</property>
   <property name="accepts_blanks">1</property>
   <property name="sum">1</property>
  </transition>
  <transition id="transition3" in="00:12:49.267" out="00:12:50.533">
   <property name="a_track">6</property>
   <property name="b_track">7</property>
   <property name="start">0/0:100%x100%</property>
   <property name="factory">loader</property>
   <property name="aligned">0</property>
   <property name="progressive">1</property>
   <property name="mlt_service">composite</property>
   <property name="kdenlive_id">wipe</property>
   <property name="softness">0</property>
   <property name="luma">C:/Program Files/kdenlive/bin/data/kdenlive/lumas/HD/linear_x.pgm</property>
   <property name="luma_invert">0</property>
   <property name="geometry">0%/0%:100%x100%:0;-1=0%/0%:100%x100%:100</property>
   <property name="fill">1</property>
  </transition>
  <transition id="transition4">
   <property name="a_track">0</property>
   <property name="b_track">4</property>
   <property name="compositing">0</property>
   <property name="distort">0</property>
   <property name="rotate_center">0</property>
   <property name="mlt_service">qtblend</property>
   <property name="kdenlive_id">qtblend</property>
   <property name="internal_added">237</property>
   <property name="always_active">1</property>
  </transition>
  <transition id="transition5">
   <property name="a_track">0</property>
   <property name="b_track">5</property>
   <property name="compositing">0</property>
   <property name="distort">0</property>
   <property name="rotate_center">0</property>
   <property name="mlt_service">qtblend</property>
   <property name="kdenlive_id">qtblend</property>
   <property name="internal_added">237</property>
   <property name="always_active">1</property>
  </transition>
  <transition id="transition6">
   <property name="a_track">0</property>
   <property name="b_track">6</property>
   <property name="compositing">0</property>
   <property name="distort">0</property>
   <property name="rotate_center">0</property>
   <property name="mlt_service">qtblend</property>
   <property name="kdenlive_id">qtblend</property>
   <property name="internal_added">237</property>
   <property name="always_active">1</property>
  </transition>
  <transition id="transition7">
   <property name="a_track">0</property>
   <property name="b_track">7</property>
   <property name="compositing">0</property>
   <property name="distort">0</property>
   <property name="rotate_center">0</property>
   <property name="mlt_service">qtblend</property>
   <property name="kdenlive_id">qtblend</property>
   <property name="internal_added">237</property>
   <property name="always_active">1</property>
  </transition>
  <transition id="transition8">
   <property name="a_track">0</property>
   <property name="b_track">8</property>
   <property name="compositing">0</property>
   <property name="distort">0</property>
   <property name="rotate_center">0</property>
   <property name="mlt_service">qtblend</property>
   <property name="kdenlive_id">qtblend</property>
   <property name="internal_added">237</property>
   <property name="always_active">1</property>
  </transition>
  <transition id="transition9">
   <property name="a_track">0</property>
   <property name="b_track">9</property>
   <property name="compositing">0</property>
   <property name="distort">0</property>
   <property name="rotate_center">0</property>
   <property name="mlt_service">qtblend</property>
   <property name="kdenlive_id">qtblend</property>
   <property name="internal_added">237</property>
   <property name="always_active">1</property>
  </transition>
  <transition id="transition10">
   <property name="a_track">0</property>
   <property name="b_track">10</property>
   <property name="compositing">0</property>
   <property name="distort">0</property>
   <property name="rotate_center">0</property>
   <property name="mlt_service">qtblend</property>
   <property name="kdenlive_id">qtblend</property>
   <property name="internal_added">237</property>
   <property name="always_active">1</property>
  </transition>
  <filter id="filter213">
   <property name="window">75</property>
   <property name="max_gain">20dB</property>
   <property name="mlt_service">volume</property>
   <property name="internal_added">237</property>
   <property name="disable">1</property>
  </filter>
  <filter id="filter214">
   <property name="channel">-1</property>
   <property name="mlt_service">panner</property>
   <property name="internal_added">237</property>
   <property name="start">0.5</property>
   <property name="disable">1</property>
  </filter>
  <filter id="filter215">
   <property name="iec_scale">0</property>
   <property name="mlt_service">audiolevel</property>
   <property name="disable">1</property>
  </filter>
 </tractor>
</mlt>
